<?xml version="1.0" encoding="UTF-8"?>
<!DOCTYPE svg PUBLIC "-//W3C//DTD SVG 1.1//EN" "http://www.w3.org/Graphics/SVG/1.1/DTD/svg11.dtd">
<!-- Creator: CorelDRAW -->
<svg xmlns="http://www.w3.org/2000/svg" xml:space="preserve" width="1920px" height="1080px" version="1.1" style="shape-rendering:geometricPrecision; text-rendering:geometricPrecision; image-rendering:optimizeQuality; fill-rule:evenodd; clip-rule:evenodd"
viewBox="0 0 1920 1080"
 xmlns:xlink="http://www.w3.org/1999/xlink"
 xmlns:xodm="http://www.corel.com/coreldraw/odm/2003">
 <defs>
  <style type="text/css">
   <![CDATA[
    .fil1 {fill:#A2D2FA}
    .fil0 {fill:white}
   ]]>
  </style>
 </defs>
 <g id="Layer_x0020_1">
  <metadata id="CorelCorpID_0Corel-Layer"/>
  <g id="_2402455043040">
   <path class="fil0" d="M1280.18 376.54c-0.37,0.93 -1.26,1.55 -1.77,3.71 -2.46,10.3 13.17,15.98 20.75,17.45 6.28,1.21 13.34,1.77 20.22,1.02 8.1,-0.89 10.64,-1.81 17.48,-4.55 -0.25,-1.42 -0.7,-2.12 -0.58,-4.09 0.84,1.98 0.94,3.19 2.61,5.05 10.3,11.46 33.72,6.88 35.94,-5.13 0.05,1.39 0,2.32 -0.43,3.53 -0.42,1.2 -0.86,1.72 -1.25,2.73 11.08,2.13 27.73,0.98 38.78,-2.4 2.33,-0.71 8.76,-2.91 10.25,-4.23 -1.35,-1.55 -2.7,-3.35 -2.42,-6.23 1.12,1.61 0.9,3.19 4.88,5.91 14.86,10.13 49.79,9.1 60.66,-1.48 -0.63,-0.5 -8.63,-2.99 -8.3,-9.01l0.27 0.44c0.07,0.14 0.14,0.3 0.21,0.45 3.48,7.41 16.59,8.81 24.29,6.47 1.51,-0.46 2.79,-1.02 4.04,-1.69 1.78,-0.96 2.2,-1.76 3.38,-2.45 -1,2.3 -3.11,3.24 -4.31,4.32 0.69,2.18 5.49,4.8 7.7,5.72 7.03,2.92 16.23,3.16 23.51,1.49 3.03,-0.7 7.62,-2.41 9.46,-4.11 -0.16,-0.43 -1.81,-2.29 -2.32,-3.24 -0.7,-1.3 -1.18,-2.66 -1.04,-4.37 0.67,5.29 7.05,9.21 11.66,10.87 2.85,1.03 5.94,1.75 9.15,2.08 2.87,0.3 8.28,0.41 10.82,-0.21 -0.24,-1.03 -0.95,-1.64 -1.35,-2.71 -0.32,-0.88 -0.68,-2.08 -0.61,-3.23 2.84,11.23 19.02,13.71 28.22,9.84 2.79,-1.17 6.41,-3.37 7.91,-6.09 -0.42,-0.42 -1.11,-0.85 -1.75,-1.32 -1.56,-1.15 -3.29,-3.88 -3.01,-6.25 -0.23,2.05 2.8,5.05 4.87,6.18 6.71,3.66 16.79,2.29 20.23,-3.74 1.45,-2.56 0.57,-3.32 0.81,-4.74 0.15,-4.17 -6.05,-7.53 -10.75,-8.12 -3.22,-0.4 -4.43,0.23 -5.97,0.2 -0.96,-1.02 -1.22,-1.44 -2.74,-2.14 -2.38,-1.1 -5.67,-0.98 -8.04,0.18 -0.86,0.43 -1.46,0.92 -1.98,1.6l-0.61 0.73c-1.43,-0.29 -2.6,-0.74 -4.12,-0.97 -5.87,-0.87 -3.12,0.6 -6.04,-1.79 -1.41,-1.15 -3.08,-2.22 -4.79,-3.04 -8.62,-4.1 -21.18,-4.55 -30.49,-1.01 -0.79,0.29 -3.24,1.53 -3.59,1.6 -0.34,0.07 -2.89,-1 -3.65,-1.2 -3,-0.8 -6.42,-1.02 -9.53,-0.67 -1.62,0.18 -2.94,0.6 -4.35,0.83 -0.67,-0.72 -0.52,-1.21 -2.19,-2.86 -6.47,-6.39 -21.41,-7.8 -29.25,-5.98 -0.79,-3.89 -1.48,-4.94 -3.67,-7.1 -5.31,-5.25 -15.92,-8.2 -23.61,-9.17 -6.81,-0.85 -13.63,-0.92 -20.51,-0.1 -5.02,0.59 -8.75,1.42 -13.34,2.96 -6.51,2.2 -1.9,2.46 -7.75,-1.24 -2.86,-1.81 -5.78,-3.24 -9.1,-4.26 -5.74,-1.78 -4.61,-0.48 -5.86,-2.64 -1.71,-2.94 -6.01,-3.97 -9.34,-4.17 -0.74,-4.08 -4.03,-5.75 -5.01,-6.86 0.56,-1.49 1.41,-2.38 0.96,-4.64 -0.94,-4.64 -6.63,-6.74 -11.3,-6.77 -1.21,-9.51 -17.93,-14.59 -29.32,-8.44 -2.47,1.33 -6.12,4.39 -6.61,7.74 -7.08,1.42 -10.75,1.98 -16.76,6.4 -2.2,1.62 -4.1,3.71 -5.44,6.15 -2.69,4.87 -1.28,8.49 -1.67,9.74 -10.46,1.52 -21.46,5.94 -25.7,15.74 -0.31,0.7 -0.55,1.42 -0.75,2.19 -0.18,0.7 -0.3,1.99 -0.5,2.56l-0.25 0.1c-2.07,0.5 -4.58,-0.24 -9.24,2.68 -1.22,0.76 -2.29,1.81 -3.04,3 -1.19,1.9 -1.01,2.5 -1.2,4.99 -0.64,0.4 -3.95,1.59 -6.59,3.21 -1.74,1.06 -4.5,3.25 -5.27,4.58l0 0z"/>
   <path class="fil1" d="M1629.14 382.53c-0.24,1.42 0.64,2.18 -0.81,4.74 -3.44,6.03 -13.52,7.4 -20.23,3.74 -2.07,-1.13 -5.1,-4.13 -4.87,-6.18 -0.28,2.37 1.45,5.1 3.01,6.25 0.64,0.47 1.33,0.9 1.75,1.32 -1.5,2.72 -5.12,4.92 -7.91,6.09 -9.2,3.87 -25.38,1.39 -28.22,-9.84 -0.07,1.15 0.29,2.35 0.61,3.23 0.4,1.07 1.11,1.68 1.35,2.71 -2.54,0.62 -7.95,0.51 -10.82,0.21 -3.21,-0.33 -6.3,-1.05 -9.15,-2.08 -4.61,-1.66 -10.99,-5.58 -11.66,-10.87 -0.14,1.71 0.34,3.07 1.04,4.37 0.51,0.95 2.16,2.81 2.32,3.24 -1.84,1.7 -6.43,3.41 -9.46,4.11 -7.28,1.67 -16.48,1.43 -23.51,-1.49 -2.21,-0.92 -7.01,-3.54 -7.7,-5.72 1.2,-1.08 3.31,-2.02 4.31,-4.32 -1.18,0.69 -1.6,1.49 -3.38,2.45 -1.25,0.67 -2.53,1.23 -4.04,1.69 -7.7,2.34 -20.81,0.94 -24.29,-6.47 -0.07,-0.15 -0.14,-0.31 -0.21,-0.45l-0.27 -0.44c-0.33,6.02 7.67,8.51 8.3,9.01 -10.87,10.58 -45.8,11.61 -60.66,1.48 -3.98,-2.72 -3.76,-4.3 -4.88,-5.91 -0.28,2.88 1.07,4.68 2.42,6.23 -1.49,1.32 -7.92,3.52 -10.25,4.23 -11.05,3.38 -27.7,4.53 -38.78,2.4 0.39,-1.01 0.83,-1.53 1.25,-2.73 0.43,-1.21 0.48,-2.14 0.43,-3.53 -2.22,12.01 -25.64,16.59 -35.94,5.13 -1.67,-1.86 -1.77,-3.07 -2.61,-5.05 -0.12,1.97 0.33,2.67 0.58,4.09 -6.84,2.74 -9.38,3.66 -17.48,4.55 -6.88,0.75 -13.94,0.19 -20.22,-1.02 -7.58,-1.47 -23.21,-7.15 -20.75,-17.45 0.51,-2.16 1.4,-2.78 1.77,-3.71 -1,0.53 -2.2,2.2 -2.81,3.33 -2.69,5.05 -0.41,9.15 3.06,12.38 8.52,7.92 26.78,9.68 38.63,8.22 3.4,-0.41 6.74,-1.08 9.84,-2.04 3.76,-1.16 8,-3.35 8.37,-3.46 1.15,2.65 3.76,4.73 6.34,6.19 7.23,4.07 17.52,3.76 24.83,-0.53l3.52 -2.73c0.86,-0.22 24.97,6.05 49.85,-4.27 3.67,-1.52 2.5,-1.98 4.41,-0.84 0.41,0.24 0.94,0.5 1.38,0.74 0.97,0.51 1.95,0.94 3.03,1.37 8.78,3.48 20.73,4.69 31.26,3.57 5.24,-0.56 10.01,-1.51 14.49,-3.12 3.12,-1.13 9.08,-4.04 10.62,-6.99 2.94,0.21 4.54,1.13 8.99,0.63 1.48,-0.16 2.77,-0.38 4.13,-0.74l3.67 -1.24c0.82,3.46 4.52,6.02 7.69,7.47 7.76,3.53 17.79,3.78 26,1.61 6.83,-1.81 8.12,-4.2 9.85,-5.17 0.56,0.21 1.07,0.67 1.63,0.99 4.49,2.52 8.06,3.71 13.61,4.36 3.17,0.37 6.65,0.41 9.86,0.04 0.54,-0.06 1.82,-0.3 2.33,-0.31 0.77,-0.01 2.22,1.66 4.56,2.91 4.7,2.53 11.27,3.39 17.19,2.06 2.75,-0.62 5.25,-1.63 7.27,-3.02 2.94,-2.02 3.01,-2.55 4.89,-5.18 2.51,0.86 3.78,1.55 7.01,1.65 2.64,0.07 5.31,-0.43 7.37,-1.34 7.15,-3.16 6.9,-9.73 6.09,-10.55l0 0z"/>
  </g>
 </g>
</svg>
