<?xml version="1.0" encoding="UTF-8"?>
<!DOCTYPE svg PUBLIC "-//W3C//DTD SVG 1.1//EN" "http://www.w3.org/Graphics/SVG/1.1/DTD/svg11.dtd">
<!-- Creator: CorelDRAW -->
<svg xmlns="http://www.w3.org/2000/svg" xml:space="preserve" width="1920px" height="1080px" version="1.1" style="shape-rendering:geometricPrecision; text-rendering:geometricPrecision; image-rendering:optimizeQuality; fill-rule:evenodd; clip-rule:evenodd"
viewBox="0 0 1920 1080"
 xmlns:xlink="http://www.w3.org/1999/xlink"
 xmlns:xodm="http://www.corel.com/coreldraw/odm/2003">
 <defs>
  <style type="text/css">
   <![CDATA[
    .fil1 {fill:#A2D2FA}
    .fil0 {fill:white}
   ]]>
  </style>
 </defs>
 <g id="Layer_x0020_1">
  <metadata id="CorelCorpID_0Corel-Layer"/>
  <g id="_2437964638896">
   <path class="fil0" d="M1153.89 221.1l0.97 2.66c1.02,2.54 2.19,4.16 4.22,6.15 4.98,4.85 12.6,7.46 19.72,7.83 5.37,0.29 8.12,-0.31 12.78,-1.24 -0.03,-1.32 0.04,-4.15 1.07,-5.2 -0.52,18.19 28.53,25.53 47,16.54 0.82,-0.4 2.44,-1.1 2.94,-1.9 -5.59,-3.73 -12.66,-7.83 -12.4,-16.76 0.17,0.21 0.15,0.16 0.33,0.52 0.57,1.18 0.15,0.95 1.56,3.55 4.45,8.2 17.15,12.96 26.25,14.27 7.02,1.01 15.01,0.94 21.66,-0.42 3.32,-0.67 6.08,-1.5 8.99,-2.57 1.39,-0.52 2.62,-1.1 4.02,-1.81 1.26,-0.63 2.88,-1.3 3.69,-2.33 -0.57,-1.29 -1.32,-2.16 -1.33,-3.99 1.89,4.57 10.29,8.15 14.93,9.46 14.89,4.2 38.95,4.06 51.93,-4.68 2.9,-1.96 4.11,-3.57 5.33,-7.23 0.83,2.69 0.1,4.1 -0.84,6.18 5.28,1.37 12.7,0.67 17.32,-2.26 2.32,-1.46 2.26,-2.2 3.47,-3.53 -0.13,1.57 -0.66,1.9 -1.07,3.24 8.63,-0.06 21.49,-4.51 25.62,-12.26 0.3,-0.56 0.59,-1.17 0.81,-1.84l0.71 -2.04c0.02,-0.05 0.05,-0.13 0.09,-0.19 -0.42,-4.78 -0.1,-5.81 -2.62,-9.23 -3.41,-4.64 -9.04,-7.39 -14.61,-9.05 -3.49,-1.05 -6.37,-1.18 -10.08,-1.78 -0.67,-2.93 -2.9,-4.75 -5.49,-5.83 -4.06,-1.7 -5.81,-0.83 -9.83,-0.58 -1.34,-1.8 -4.1,-3.29 -6.52,-4.35 -2.84,-1.24 -5.25,-1.66 -8.55,-2.31 0.1,-6 -2.32,-8.77 -7.74,-12.07 -9.08,-5.52 -23.48,-6.66 -34.15,-5.55 -8,0.83 -9.46,1.87 -16.18,4.15 -0.7,-0.48 -1.14,-1.15 -1.8,-1.79 -10.69,-10.33 -29.45,-11.34 -42.74,-7.23 -4.47,1.39 -10.73,4.9 -13.54,8.21 -2.37,2.79 -1.8,3.27 -3.78,3.72 -13.76,3.13 -18.04,10.38 -18.58,10.6 -0.65,0.27 -15.92,-1.37 -26.9,6 -2.81,1.89 -3.63,2.93 -5.71,5.36 -1.99,0.19 -4.35,-0.08 -6.5,0.09 -9.65,0.74 -21.23,5.67 -23.97,15.37 -0.69,2.43 -0.23,3.82 -0.48,6.12l0 0z"/>
   <path class="fil1" d="M1413.66 221.25c-0.04,0.06 -0.07,0.14 -0.09,0.19l-0.71 2.04c-0.22,0.67 -0.51,1.28 -0.81,1.84 -4.13,7.75 -16.99,12.2 -25.62,12.26 0.41,-1.34 0.94,-1.67 1.07,-3.24 -1.21,1.33 -1.15,2.07 -3.47,3.53 -4.62,2.93 -12.04,3.63 -17.32,2.26 0.94,-2.08 1.67,-3.49 0.84,-6.18 -1.22,3.66 -2.43,5.27 -5.33,7.23 -12.98,8.74 -37.04,8.88 -51.93,4.68 -4.64,-1.31 -13.04,-4.89 -14.93,-9.46 0.01,1.83 0.76,2.7 1.33,3.99 -0.81,1.03 -2.43,1.7 -3.69,2.33 -1.4,0.71 -2.63,1.29 -4.02,1.81 -2.91,1.07 -5.67,1.9 -8.99,2.57 -6.65,1.36 -14.64,1.43 -21.66,0.42 -9.1,-1.31 -21.8,-6.07 -26.25,-14.27 -1.41,-2.6 -0.99,-2.37 -1.56,-3.55 -0.18,-0.36 -0.16,-0.31 -0.33,-0.52 -0.26,8.93 6.81,13.03 12.4,16.76 -0.5,0.8 -2.12,1.5 -2.94,1.9 -18.47,8.99 -47.52,1.65 -47,-16.54 -1.03,1.05 -1.1,3.88 -1.07,5.2 -4.66,0.93 -7.41,1.53 -12.78,1.24 -7.12,-0.37 -14.74,-2.98 -19.72,-7.83 -2.03,-1.99 -3.2,-3.61 -4.22,-6.15l-0.97 -2.66c-0.37,8.34 6.93,14.05 12.82,16.63 5.69,2.5 12.32,3.41 18.75,2.76 2.37,-0.24 4.34,-0.92 6.39,-1.13 0.59,0.91 0.81,1.95 1.38,3.02 3.59,6.66 11.96,10.55 19.42,11.98 10.46,2.02 22.25,-0.1 29.35,-5.15 4.97,-3.53 0.41,-1.68 12.72,1.02 5.39,1.18 10.96,1.56 16.84,1.29 5.36,-0.25 10.48,-1.23 15.13,-2.77 2.22,-0.74 4.39,-1.6 6.34,-2.61 2.62,-1.38 4.64,-3 5.59,-3.5 1.42,0.75 2.14,1.67 5.98,3.6 14.33,7.22 43.34,6.51 56.54,-1.3 4.94,-2.92 2.96,-3.41 6.26,-2.78 5.41,1.03 11.38,0.36 16.16,-2.34 1.08,-0.61 5.67,-0.6 8.5,-1.15 9.64,-1.91 21.37,-7.28 21.6,-17.42l0 0z"/>
  </g>
 </g>
</svg>
