<?xml version="1.0" encoding="UTF-8"?>
<!DOCTYPE svg PUBLIC "-//W3C//DTD SVG 1.1//EN" "http://www.w3.org/Graphics/SVG/1.1/DTD/svg11.dtd">
<!-- Creator: CorelDRAW -->
<svg xmlns="http://www.w3.org/2000/svg" xml:space="preserve" width="1920px" height="1080px" version="1.1" style="shape-rendering:geometricPrecision; text-rendering:geometricPrecision; image-rendering:optimizeQuality; fill-rule:evenodd; clip-rule:evenodd"
viewBox="0 0 1920 1080"
 xmlns:xlink="http://www.w3.org/1999/xlink"
 xmlns:xodm="http://www.corel.com/coreldraw/odm/2003">
 <defs>
  <style type="text/css">
   <![CDATA[
    .fil1 {fill:#A2D2FA}
    .fil0 {fill:white}
   ]]>
  </style>
 </defs>
 <g id="Layer_x0020_1">
  <metadata id="CorelCorpID_0Corel-Layer"/>
  <path class="fil0" d="M373.09 349.32c-0.64,2.18 -1.35,2.45 -1.12,5.32 0.38,4.62 4.33,7.92 8.18,10.26 12.77,7.75 37.24,8.13 51.19,2.2 1.46,-0.63 2.8,-1.24 4.12,-1.97 1.4,-0.79 2.47,-1.65 3.7,-2.29 -2.76,3.71 -5.83,4.38 -8.16,6.05 0.56,1.5 4.35,3.57 6.08,4.48 11.97,6.31 31.37,6.29 43.4,0.11 5.93,-3.05 7.93,-5.29 10.36,-10.65 0.51,3.1 -0.17,3.42 -0.67,5.8 2,0.81 3.81,1.72 6.06,2.57 16.08,6.12 35.13,7.54 52.16,5.58 36.42,-4.2 45.3,-21.02 46.4,-21.67 -1.13,5.46 -6.81,10.52 -10.48,13.29 -6.91,5.21 -10.55,5.46 -15.28,8.08 2.92,1.03 5.41,2.29 8.83,3.08 10.27,2.36 21.76,3.08 32.13,0.53 8.8,-2.16 17.54,-5.56 23.15,-12.44 1.12,-1.37 3.64,-5.55 3.74,-7.6 0.47,2.89 -0.19,5.56 -1.16,7.8 -0.45,1.06 -1.1,2.11 -1.63,2.84 -0.54,0.76 -1.61,1.87 -1.86,2.68 3.16,1.62 11.49,1.56 15.28,0.97 5.27,-0.81 8.53,-2.39 12.25,-4.61 -0.6,-1.97 -1.8,-2.12 -1.9,-6.15 0.77,1.16 1.19,2.46 1.97,3.62 9.92,14.65 49.51,13.71 56.78,-1.82 0.17,-0.35 0.26,-0.67 0.38,-0.93l0.4 -0.72c0.01,-0.1 0.07,-0.12 0.11,-0.17 -0.03,5.08 -3.16,6.38 -2.13,7.34 2.69,1.32 15.33,-1.53 17.93,-2.56 2.58,-1.02 4.72,-1.97 6.8,-3.46 3.41,-2.45 3.34,-3.74 4.28,-5.23 0.04,-0.05 0.11,-0.13 0.14,-0.18l0.32 -0.34c0.08,-4.33 -0.4,-5.62 -2.7,-8.04 -6.18,-6.53 -16.95,-7.18 -25.72,-8.1 -0.84,-1.04 -1.25,-1.85 -2.16,-2.8 -0.68,-0.73 -1.72,-1.66 -2.67,-2.33 -5.24,-3.71 -11.56,-5.93 -17.9,-7.17 -1.18,-0.23 -3.36,-0.43 -4.44,-0.84 0.26,-1.49 5.92,-9.26 -4.65,-16.7 -6.41,-4.53 -11.73,-4.96 -19,-6.06 -0.89,-4.51 -3.06,-6.4 -5.94,-8.3 -5.71,-3.74 -10.73,-1.85 -11.56,-3.48 -1.57,-3.1 -1.47,-5.08 -5.8,-9.5 -2.16,-2.21 -6.06,-5.02 -9.77,-6.57 -6.42,-2.7 -13.63,-3.9 -20.81,-2.9 -2.25,0.31 -5.08,1.2 -6.93,1.35 -2.07,-5.84 -7.67,-12.04 -11.62,-15.02 -11.87,-8.98 -27.82,-11.37 -41.73,-6 -4.48,1.72 -9.02,4.28 -12.4,7.37 -1.24,1.12 -2.34,2.33 -3.56,3.39 -2.59,-0.46 -3.81,-2.39 -11.7,-3.15 -10.84,-1.04 -24.99,4.6 -26.32,18.06 -9.78,1.31 -23.64,9.46 -25.54,20.93 -5.29,0.11 -9.21,-0.4 -14.56,0.41 -9.87,1.49 -21.54,6.69 -26.56,15.39 -0.42,0.74 -0.85,1.88 -1.36,2.54 -13.34,1.22 -22.27,5.63 -26.95,15.03 -6.85,0.82 -11.53,1.48 -17.36,3.77 -4.6,1.81 -10.39,5.35 -12.04,8.91l0 0z"/>
  <path class="fil1" d="M744.84 359.13l-0.32 0.34c-0.03,0.05 -0.1,0.13 -0.14,0.18 -0.94,1.49 -0.87,2.78 -4.28,5.23 -2.08,1.49 -4.22,2.44 -6.8,3.46 -2.6,1.03 -15.24,3.88 -17.93,2.56 -1.03,-0.96 2.1,-2.26 2.13,-7.34 -0.04,0.05 -0.1,0.07 -0.11,0.17l-0.4 0.72c-0.12,0.26 -0.21,0.58 -0.38,0.93 -7.27,15.53 -46.86,16.47 -56.78,1.82 -0.78,-1.16 -1.2,-2.46 -1.97,-3.62 0.1,4.03 1.3,4.18 1.9,6.15 -3.72,2.22 -6.98,3.8 -12.25,4.61 -3.79,0.59 -12.12,0.65 -15.28,-0.97 0.25,-0.81 1.32,-1.92 1.86,-2.68 0.53,-0.73 1.18,-1.78 1.63,-2.84 0.97,-2.24 1.63,-4.91 1.16,-7.8 -0.1,2.05 -2.62,6.23 -3.74,7.6 -5.61,6.88 -14.35,10.28 -23.15,12.44 -10.37,2.55 -21.86,1.83 -32.13,-0.53 -3.42,-0.79 -5.91,-2.05 -8.83,-3.08 4.73,-2.62 8.37,-2.87 15.28,-8.08 3.67,-2.77 9.35,-7.83 10.48,-13.29 -1.1,0.65 -9.98,17.47 -46.4,21.67 -17.03,1.96 -36.08,0.54 -52.16,-5.58 -2.25,-0.85 -4.06,-1.76 -6.06,-2.57 0.5,-2.38 1.18,-2.7 0.67,-5.8 -2.43,5.36 -4.43,7.6 -10.36,10.65 -12.03,6.18 -31.43,6.2 -43.4,-0.11 -1.73,-0.91 -5.52,-2.98 -6.08,-4.48 2.33,-1.67 5.4,-2.34 8.16,-6.05 -1.23,0.64 -2.3,1.5 -3.7,2.29 -1.32,0.73 -2.66,1.34 -4.12,1.97 -13.95,5.93 -38.42,5.55 -51.19,-2.2 -3.85,-2.34 -7.8,-5.64 -8.18,-10.26 -0.23,-2.87 0.48,-3.14 1.12,-5.32 -0.91,0.42 -0.73,0.42 -1.4,1.39 -0.36,0.53 -0.75,1.12 -1.07,1.8 -5.05,10.58 10.27,17.15 18.22,19.27 6.31,1.69 13.49,2.22 20.57,1.93 3.43,-0.14 6.76,-0.51 9.99,-1.16 3.38,-0.68 7.55,-2.17 9.11,-2.45 1.38,3.42 7.39,7.08 11.19,8.59 10.57,4.19 23.79,4.59 34.6,1.29 6.8,-2.07 8.08,-3.48 12.91,-7.05 8.23,3.24 9.76,4.71 19.75,6.83 17.19,3.64 37.04,3.7 54.1,-0.87 3.17,-0.85 2.12,-1.05 4.83,0.48 15.48,8.77 40.07,8.56 55.17,1.51 3.55,-1.66 5.58,-2.99 8.38,-5.09 1.16,-0.88 5.43,1.24 10.74,1.45 5.69,0.23 11.76,-0.81 16.64,-3.33 1.56,-0.81 2.93,-1.87 4.21,-2.57 1.22,0.93 2.2,1.94 3.78,3.01 11.63,7.87 34.39,7.59 45.39,0.2 2.76,-1.85 1.38,-1.71 5.43,-1.7 9.49,0.03 29.08,-3.58 29.21,-13.72l0 0z"/>
 </g>
</svg>
