<?xml version="1.0" encoding="UTF-8"?>
<!DOCTYPE svg PUBLIC "-//W3C//DTD SVG 1.1//EN" "http://www.w3.org/Graphics/SVG/1.1/DTD/svg11.dtd">
<!-- Creator: CorelDRAW -->
<svg xmlns="http://www.w3.org/2000/svg" xml:space="preserve" width="1920px" height="1080px" version="1.1" style="shape-rendering:geometricPrecision; text-rendering:geometricPrecision; image-rendering:optimizeQuality; fill-rule:evenodd; clip-rule:evenodd"
viewBox="0 0 1920 1080"
 xmlns:xlink="http://www.w3.org/1999/xlink"
 xmlns:xodm="http://www.corel.com/coreldraw/odm/2003">
 <defs>
  <style type="text/css">
   <![CDATA[
    .fil1 {fill:#A2D2FA}
    .fil0 {fill:white}
   ]]>
  </style>
 </defs>
 <g id="Layer_x0020_1">
  <metadata id="CorelCorpID_0Corel-Layer"/>
  <g id="_2402455055808">
   <path class="fil0" d="M1516.08 340.46c2.26,0.56 8.41,2.72 11.57,-0.92 -1.02,1.95 -3.14,2.27 -5.56,2.92 1.76,4.76 10.1,5.55 14.9,3.23 2.63,-1.27 1.9,-1.83 3.74,-3.46 0.55,-3.87 -1.4,-6.17 -4.25,-7.07 -0.56,-2.23 -0.68,-4.46 -5.34,-5.08 -1.53,-0.2 -3.11,0.11 -4.32,0.7 -2.59,1.25 -0.76,1.02 -3.85,0.54 -9.77,-1.5 -11.36,7.49 -6.89,9.14l0 0z"/>
   <path class="fil0" d="M1458.68 320.47c3.26,1.3 4.64,5.08 13.7,5.2 2.88,0.04 5.6,-0.42 8.11,-1.49 2.71,-1.15 3.72,-2.76 5.68,-3.54 -1.39,2.1 -2.03,2.27 -3.82,3.82 1.67,4.06 10.39,6.26 17.33,2.72 2.53,-1.3 1.86,-1.36 3.25,-2.81 1.42,-1.48 0.28,-0.41 1.37,-1.17 1.51,-10.26 -6.33,-8.25 -8.38,-11.7 -1.01,-1.7 0.08,-1.54 -1.9,-3.1 -5.02,-3.96 -8.78,0.58 -13.02,-1.43 -11.33,-5.4 -28.96,1.91 -22.32,13.5z"/>
   <path class="fil1" d="M1516.08 340.46c0.74,1.07 1.61,1.4 2.96,1.69 2.45,0.53 1.82,-0.27 3.01,1.72 3.68,6.18 17.49,5.29 18.68,-1.64 -1.84,1.63 -1.11,2.19 -3.74,3.46 -4.8,2.32 -13.14,1.53 -14.9,-3.23 2.42,-0.65 4.54,-0.97 5.56,-2.92 -3.16,3.64 -9.31,1.48 -11.57,0.92l0 0z"/>
   <path class="fil1" d="M1504.3 323.2c-1.09,0.76 0.05,-0.31 -1.37,1.17 -1.39,1.45 -0.72,1.51 -3.25,2.81 -6.94,3.54 -15.66,1.34 -17.33,-2.72 1.79,-1.55 2.43,-1.72 3.82,-3.82 -1.96,0.78 -2.97,2.39 -5.68,3.54 -2.51,1.07 -5.23,1.53 -8.11,1.49 -9.06,-0.12 -10.44,-3.9 -13.7,-5.2 4.6,9.61 20.08,5.27 22.61,5.09 3.18,3.15 6.18,5.41 12.25,5.02 4.88,-0.31 9.72,-2.56 10.76,-7.38l0 0z"/>
  </g>
 </g>
</svg>
