<?xml version="1.0" encoding="UTF-8"?>
<!DOCTYPE svg PUBLIC "-//W3C//DTD SVG 1.1//EN" "http://www.w3.org/Graphics/SVG/1.1/DTD/svg11.dtd">
<!-- Creator: CorelDRAW -->
<svg xmlns="http://www.w3.org/2000/svg" xml:space="preserve" width="1920px" height="1080px" version="1.1" style="shape-rendering:geometricPrecision; text-rendering:geometricPrecision; image-rendering:optimizeQuality; fill-rule:evenodd; clip-rule:evenodd"
viewBox="0 0 1920 1080"
 xmlns:xlink="http://www.w3.org/1999/xlink"
 xmlns:xodm="http://www.corel.com/coreldraw/odm/2003">
 <defs>
  <style type="text/css">
   <![CDATA[
    .fil1 {fill:#A2D2FA}
    .fil0 {fill:white}
   ]]>
  </style>
 </defs>
 <g id="Layer_x0020_1">
  <metadata id="CorelCorpID_0Corel-Layer"/>
  <path class="fil0" d="M753.38 252.46c0.31,1.43 -0.64,3.03 1.53,5.86 1.24,1.61 2.31,2.57 3.89,3.77 2.83,2.14 6.93,3.7 10.71,4.83 6.5,1.95 13.75,2.43 20.65,2.15 2.59,-0.11 4.87,-0.58 7.33,-0.7 -0.31,-1.93 -1.1,-2.31 -0.42,-4.67 1.54,2.6 2.4,4.03 5.12,5.37 2.53,1.25 5.24,1.96 8.55,2.03 5.27,0.1 12.17,-2.23 14.12,-6.83 0.53,3.73 -1.64,4.76 -2.67,6.53 4.1,2.63 13.03,4.91 18.8,5.65 7.76,1 15.03,0.84 22.76,-0.38 8.45,-1.32 19.47,-5.49 25.06,-11.61 1.38,-1.51 4.21,-5.46 4.36,-7.77 0.01,3.56 -1.2,4.4 -1.51,6.75 7.09,2.07 16.9,0.99 23.91,-1.77 2.62,-1.03 3.99,-2.32 5.97,-3.26 -0.52,-1.47 -1.07,-1.02 -1.21,-3.06 1.73,0.91 1.04,2.57 8.53,4.94 3.46,1.09 7.55,1.67 11.65,1.83 7.26,0.27 17.56,-0.85 22.1,-4.41 -4,-1.79 -8.66,-4.27 -8.8,-9.22 2.57,4.26 5.39,6.19 10.41,7.82 11,3.59 28.29,3.46 37.71,-4.02 2.08,-1.66 2.6,-3.11 2.54,-6.72 -0.09,-4.76 -9.44,-8.27 -13.66,-9.22 -3.22,-0.72 -2.72,-0.1 -3.4,-1.36 -1.38,-2.54 -1.96,-3.51 -4.18,-5.06 -3.74,-2.62 -8.96,-4.04 -14.72,-3.1 -3.43,0.56 -1.47,-3 -12.08,-5.98 -9.61,-2.69 -22.92,-2.29 -31.34,2.08 -4.33,2.24 -1.45,1.81 -6.32,0.51 -3.74,-1 -8.5,-1.28 -12.46,-0.58 -1.94,0.35 -2.3,0.9 -3.65,-0.18 -1.65,-1.33 -3.73,-2.54 -6.1,-3.41 -0.7,-6.27 -5.47,-11.2 -12.75,-9.81 -0.52,-0.57 -0.9,-1.85 -1.4,-2.7 -1.64,-2.78 -3.5,-4.82 -6.22,-6.68 -9.48,-6.48 -24.11,-5.34 -32.08,2.79 -1.64,1.67 -2.2,3.16 -3.59,5.09 -13.71,0.44 -27.71,4 -36.59,14.07 -1.27,1.44 -1.77,2.83 -2.94,4.44 -5.98,0.9 -12.37,1.03 -17.16,5.8 -1.61,1.6 -1.97,2.41 -2.42,5.21 -6.83,0.77 -11.68,1.6 -17.38,4 -3.96,1.68 -11,6.07 -10.65,10.98z"/>
  <path class="fil1" d="M753.38 252.46c-1.37,1.58 -0.5,6.03 1.71,8.84 1.48,1.87 3.93,3.7 6.56,5.05 9.56,4.9 23.76,6.09 34.81,4.4 3.13,-0.48 1.94,-0.84 4.16,0.68 4.56,3.11 11.24,3.66 16.65,1.93 3.52,-1.13 1.11,-1.41 5.69,0.78 4.16,1.99 8.49,3.39 13.09,4.34 15.2,3.13 34.55,1.54 47.77,-7.13 1.5,-0.98 5.05,-3.84 5.98,-5.59 3.09,0.37 5.6,1.15 9.03,1.27 7.25,0.26 15.1,-1.28 21.18,-5.14 1.22,-0.78 1.94,-1.54 3.1,-2.26 3.63,1.33 3.89,2.4 10.08,3.45 8.38,1.42 21.66,1.22 29.04,-3.29 2.74,-1.67 0.96,-1.68 4.75,-0.7 9.58,2.49 26.06,2.03 33.99,-4.07 2.51,-1.93 3.66,-3.41 3.84,-6.38 0.07,-1.18 0.35,-2.35 -0.34,-3.07 0.06,3.61 -0.46,5.06 -2.54,6.72 -9.42,7.48 -26.71,7.61 -37.71,4.02 -5.02,-1.63 -7.84,-3.56 -10.41,-7.82 0.14,4.95 4.8,7.43 8.8,9.22 -4.54,3.56 -14.84,4.68 -22.1,4.41 -4.1,-0.16 -8.19,-0.74 -11.65,-1.83 -7.49,-2.37 -6.8,-4.03 -8.53,-4.94 0.14,2.04 0.69,1.59 1.21,3.06 -1.98,0.94 -3.35,2.23 -5.97,3.26 -7.01,2.76 -16.82,3.84 -23.91,1.77 0.31,-2.35 1.52,-3.19 1.51,-6.75 -0.15,2.31 -2.98,6.26 -4.36,7.77 -5.59,6.12 -16.61,10.29 -25.06,11.61 -7.73,1.22 -15,1.38 -22.76,0.38 -5.77,-0.74 -14.7,-3.02 -18.8,-5.65 1.03,-1.77 3.2,-2.8 2.67,-6.53 -1.95,4.6 -8.85,6.93 -14.12,6.83 -3.31,-0.07 -6.02,-0.78 -8.55,-2.03 -2.72,-1.34 -3.58,-2.77 -5.12,-5.37 -0.68,2.36 0.11,2.74 0.42,4.67 -2.46,0.12 -4.74,0.59 -7.33,0.7 -6.9,0.28 -14.15,-0.2 -20.65,-2.15 -3.78,-1.13 -7.88,-2.69 -10.71,-4.83 -1.58,-1.2 -2.65,-2.16 -3.89,-3.77 -2.17,-2.83 -1.22,-4.43 -1.53,-5.86l0 0z"/>
  <g id="_2402455075920">
   <path class="fil0" d="M1135.61 300.84c1.38,1.69 1.95,6.82 13.15,8.19 6.25,0.77 13.51,-1.45 15.99,-4.87 -1.29,-1.28 -3.02,-1.95 -3.15,-4.46 3.72,6.15 11.88,4.94 14.74,1.82 0.39,-0.44 0.36,-0.51 0.63,-0.91l0.83 -1.03c-0.01,-5.72 -3.84,-6.68 -8.79,-6.97 -1.46,-3.02 -1.99,-5.55 -6.95,-7.26 -4.66,-1.62 -10.64,-0.26 -13.48,3.27 -0.86,1.06 -0.59,1.18 -1.94,1.56 -2.28,0.64 -3.34,0.7 -5.46,1.81 -5.06,2.64 -5.32,5.01 -5.57,8.85l0 0z"/>
   <path class="fil1" d="M1135.61 300.84c-0.04,6.4 7.13,9.48 13.43,10.1 6.77,0.67 14.93,-2.03 16.76,-6.32 5.55,0.55 11.32,0.41 12,-5.04l-0.83 1.03c-0.27,0.4 -0.24,0.47 -0.63,0.91 -2.86,3.12 -11.02,4.33 -14.74,-1.82 0.13,2.51 1.86,3.18 3.15,4.46 -2.48,3.42 -9.74,5.64 -15.99,4.87 -11.2,-1.37 -11.77,-6.5 -13.15,-8.19l0 0z"/>
  </g>
 </g>
</svg>
