<?xml version="1.0" encoding="UTF-8"?>
<!DOCTYPE svg PUBLIC "-//W3C//DTD SVG 1.1//EN" "http://www.w3.org/Graphics/SVG/1.1/DTD/svg11.dtd">
<!-- Creator: CorelDRAW -->
<svg xmlns="http://www.w3.org/2000/svg" xml:space="preserve" width="1920px" height="1080px" version="1.1" style="shape-rendering:geometricPrecision; text-rendering:geometricPrecision; image-rendering:optimizeQuality; fill-rule:evenodd; clip-rule:evenodd"
viewBox="0 0 1920 1080"
 xmlns:xlink="http://www.w3.org/1999/xlink"
 xmlns:xodm="http://www.corel.com/coreldraw/odm/2003">
 <defs>
  <style type="text/css">
   <![CDATA[
    .fil0 {fill:#17161A}
   ]]>
  </style>
 </defs>
 <g id="Layer_x0020_1">
  <metadata id="CorelCorpID_0Corel-Layer"/>
  <path class="fil0" d="M1374.37 917.06c-1.85,-2.8 -3.48,-5.82 -4.74,-9.16 7.72,-0.19 8.07,0.74 12.74,-3.3 -8.28,-6.81 -17.14,-17.95 -21.68,-32.14l23.92 -0.73c-3.42,-5.44 -3.54,-4.21 -8.32,-7.61 -9.69,-6.89 -15.63,-17.54 -23.45,-26.92 1.2,-7.7 -0.55,-0.6 4.47,-6.76 -8.87,-5.33 -17.18,-15.67 -21.55,-26.61 10.7,1.45 13.89,4.14 25.78,1.13 -1.7,-5.81 -27.77,-29.11 -34.3,-44.9l22.74 0.04c-1.67,-7.1 -17.52,-15.39 -24.78,-17.89l12.2 -4.3c-6.13,-9.7 -17.71,-15.97 -22.36,-26.41l14.99 1.8c-12.88,-20.85 -17.27,-23.24 -24.32,-50.4 -9.43,9.68 -14.09,28.31 -22.58,39.6 -3.09,4.12 -6.33,7 -9.16,12.55l14.82 -2c-3.28,11.13 -14.9,20.6 -23.41,27.72 9.78,1.41 10.69,-1.21 18.87,-2.1 -1.98,6.99 -5.64,11.18 -9.89,15.03 -5.34,4.83 -11.39,7.72 -16.1,13.16l15.69 -0.4c-3.96,8 -10.01,8.91 -17.21,16.33 6.55,1.36 14.03,2.58 18.68,5.88 -5.96,16.53 -14.01,14.35 -27.28,23.98 6.24,3.06 13.6,3.35 19.42,6 -4.6,11.91 -16.87,13.5 -26.05,20.62 6.13,5.49 17.48,6.46 26.91,7.45 -8.18,11.45 -25.18,14.16 -32.42,22.95 2.46,0.84 5.18,1.53 8.58,2.34l8.36 2.87c-6.06,6.59 -12.57,11.85 -18.31,18.1l17.93 -0.7c-6.31,11.84 -18.26,12.98 -24.94,22.82l16.45 -3.09c-3.19,14.42 -12.51,21.23 -17.54,32.79l17.2 -4.21 -14.99 24.87c-10.35,-0.34 -7.8,-0.04 -12.76,-6.64 -3.01,-4 -5.2,-6.9 -7.74,-10.97 -3.97,-6.39 -10.84,-15.35 -12.36,-23.37 8.92,-0.2 18.17,1.24 25.44,-2.75 -0.29,-0.34 -0.81,-1.28 -0.96,-0.96 -0.15,0.32 -0.76,-0.76 -0.97,-0.93 -0.21,-0.18 -0.75,-0.68 -1.02,-0.89 -0.26,-0.22 -0.76,-0.6 -1.06,-0.83 -2.47,-1.9 -2.73,-1.8 -5.43,-3.9l-17.77 -15.95c-4.73,-5.06 -5.21,-3.14 -6.84,-9.9 12.95,-0.05 3.92,2.84 12.19,-2.25 -6.72,-12 -28.19,-22.72 -28.01,-38.47l17.91 -0.49c-2.38,-5.72 -6.9,-9.05 -10.43,-14.32 -6.7,-10.01 -11.69,-22.41 -14.43,-34.24 -1.29,-5.56 -1.38,-14.94 -5.1,-19.29 -7.13,12.8 -8.52,20.78 -17.45,33.13 -3.73,5.16 -6.77,9.56 -10.77,13.63 -4.28,4.37 -9.81,8.46 -10.71,14.49l17.56 0.54c-4.67,11.35 -20.89,14.35 -25.74,26.42l18.49 -0.5c-2.96,8.98 -16.61,18.76 -20.23,26.6 0.42,0.27 1.18,-0.05 1.41,0.53 0.23,0.59 1.09,0.42 1.41,0.52l8.38 2.7c-5.95,9.62 -21.75,22.02 -26.11,31.86 6.68,2.38 10.85,-0.65 17.79,-2.6 -5.92,14.3 -19.21,17.55 -22.72,26.37 11.92,1.2 18.59,-6.01 27.71,-8.65 -6.14,27.17 -35.46,26.4 -45.86,13.59 -3.44,-4.24 -6.62,-8.64 -9.78,-13.18l22.16 -0.51 -19.45 -20.47c-7.23,-8.21 -14.97,-16.65 -18.81,-27.32l17.63 -0.7c-8.61,-15.61 -22.06,-23.48 -29.13,-45.57 13.37,1.56 19.25,0.55 31.26,-1.5 -0.61,-1.13 -39.77,-33.62 -40.79,-45.94 -0.62,-7.55 -1.15,0.56 5.11,-6.59l-8.51 -7.22c-7.09,-7.29 -15.26,-17.94 -19.24,-28.5 12.77,2 25.38,7.16 35.49,-0.57 -11.46,-9.6 -17.04,-13.61 -25.87,-24.94 -6.93,-8.9 -16.05,-21.65 -21.51,-31.99 9.79,0.35 23.61,2.6 31.11,-2.36 -8.79,-9.03 -22.95,-14.73 -34.67,-23.97l17.62 -2.23c-6.84,-14.28 -22.52,-22 -30.61,-35.83l20.14 3.09c-4.38,-9.65 -13.6,-17.95 -19.42,-30.58 -5.43,-11.8 -8.05,-23.37 -12.47,-35.98 -8.27,9.69 -12.55,25.37 -18.78,35.75 -7.58,12.63 -17.2,23.78 -22.45,33.05l19.84 -2.69c-3.72,12.52 -22.72,28.12 -31.25,36.98 10.86,0.97 15.43,-1.16 24.97,-3.83 -3.4,19.21 -24.11,26.04 -35.71,36.89 9.13,2.16 13.01,0.63 22.03,0 -4.94,10.42 -14.87,12.78 -22.68,21.44l25.11 6.53c-4.45,15.91 -21.78,25.96 -36.34,32.22 6.52,5.24 18.28,5.15 26.04,7.87 -2.61,7.64 -7.8,11.38 -15.06,16.53l-16.05 8.26c-0.34,0.2 -0.83,0.5 -1.13,0.71 -2.83,1.91 -1.34,0.63 -2.85,2.62 4.93,3.56 9.79,4.81 16.07,6.19 6.38,1.39 15.23,1.41 20.14,5.86 -7.12,3.89 -11.49,8.29 -20.02,13.75 -7.09,4.52 -16.21,8.08 -23.31,11.89 7.04,5.23 13.48,5.82 23.95,5.91 -2.16,4.33 -7.17,10.45 -10.48,13.56l-11.29 9.55c-0.32,0.32 -0.74,0.78 -1.03,1.07 -0.29,0.31 -0.78,0.88 -1.01,1.14 -0.24,0.26 -0.7,0.76 -1.02,1.17l25.35 -1.19 -8 8.23c-8.23,6.39 -23.14,14.91 -28.47,21.8 9.54,0.43 15.91,-2.26 23.03,-4.88 -1.64,11.47 -18.58,38.23 -23.66,43.54 12.36,1.3 16.92,-3.48 24.57,-7.76 -3.25,9.24 -12.28,23.72 -20.04,28.36l-14.44 0.02c-4.47,-10.41 -24.28,-23.25 -27.1,-38.06 12.19,2.9 25.71,6.99 36.65,-2.08 -9.75,-11.82 -36.37,-26.46 -46.44,-60.55 8.92,0.87 19.12,0.72 26.31,-1.71 -11.18,-11.67 -27.01,-18.74 -35.17,-33.75l12.87 -0.8c-3.57,-13.26 -25.36,-22.42 -28.07,-39.69l17.61 -0.17c-1.14,-5.65 -14.05,-20.14 -18.42,-30.72 -4.02,-9.75 -7.68,-33.24 -10.52,-37.86 -7.93,10.1 -11.08,29.5 -29.29,47.98 -4.1,4.16 -10.31,8.05 -10.2,13.59l17.38 0.62c-5.22,10.18 -21.61,16.26 -25.18,25.94l17.97 0.08c-4.6,11 -16.81,17.91 -20.17,27.08l11.63 2.28c-6.77,9.15 -24.74,26.27 -27.06,33.51 9.83,0.94 10.65,-1.19 17.75,-3.06 -1.61,11.64 -17.01,16.11 -21.72,25.37 9.66,3.6 18.54,-6.66 27.41,-7.05 -3.18,7.61 -9.71,16.54 -14.38,21.9 -5.99,6.88 -15.22,12.38 -19.43,21.52 13.83,-1.29 13.41,-4.87 23.16,-7.81 -0.93,8.46 -14.13,25.87 -18.69,31.32 -9.52,11.36 -20.44,19.24 -35.45,5.61 -17.74,-16.13 -30.89,-43.82 -28.58,-76.47 10.3,3.44 19.15,12.46 33.95,15.27l-9.56 -20.97 29.05 4.59c-5.58,-8.31 -42.71,-30.75 -54.81,-49.31 10.14,0.75 17.39,1.42 27.37,-1.36 -20.4,-9.44 -41.42,-30.51 -48.26,-51.67 8.76,4.14 17.64,8.58 30.19,8.18 -1.95,-4.69 -4.47,-9.12 -5.87,-16.27l16.33 0.19c-3.45,-3.35 -7.8,-5.76 -11.02,-8.33 -21.59,-17.25 -33.79,-40.84 -44.53,-66.02 -4.38,-10.27 -7.21,-23.38 -11.97,-33.12 -3.4,22.1 -15.96,41.9 -26.29,56.5 -6.42,9.08 -12.59,15.56 -19.38,23.7 -6.84,8.22 -15.51,14.38 -21.21,22.03l20.7 -5.26c-6.11,6.34 -13.16,9.86 -18.62,16.29l19.38 -1.1c-3.43,14.05 -17.98,28.24 -25.66,34.51 -10.75,8.77 -24.63,16.03 -34.98,24.81l29.67 0.93c-9.48,6.75 -22.28,8.77 -30.63,14.28 7.36,4.75 16.86,3.39 25.4,3.58 -9.78,11.71 -23.39,10.01 -32.63,17.03 14.16,7.37 37.12,-2.63 50.13,-5.9 -2.57,6.92 -5.21,9.29 -10.11,13.34 -2.82,2.34 -1.68,0.95 -4.33,3.78l24.52 -3.65c-5.81,16.94 -28,26.56 -42.17,35.91l-6.54 5.47 16.15 5.44 -14.43 9.92c20.4,0.51 23.46,-5.55 38.42,-9.55 -2.51,6.5 -10.57,15.34 -14.74,20.74 -18.15,23.48 -15.46,18.91 -44.17,18.78 -5.68,-8.81 -28.94,-33.14 -29.51,-46.87 7.66,2.76 12.61,7.93 23.78,8.1 -1.64,-6.05 -14.25,-15.27 -18.85,-21 -4.94,-6.17 -15.39,-17.05 -15.95,-26.4 5.67,2.66 21.61,12.22 28.68,8.77 -6.08,-9.62 -19.74,-17.17 -24.17,-27.21 7.71,0.56 8.36,3.53 19.58,2.84 -6.13,-12.77 -25.41,-25.59 -28.46,-37.13l10.7 -1.52c0.36,-0.12 0.93,-0.42 1.36,-0.71 -5.29,-10.04 -18.49,-18.07 -22.31,-28l19.8 -0.47c-3.46,-8.82 -14.44,-14.77 -21.49,-21.08 -5.1,-4.57 -5.2,-1.11 -5.2,-7.38l18.97 -0.76c-4.99,-11 -16.91,-20.17 -23.96,-30.3l-14.77 -26.45c-2.65,-7.14 -0.28,-6.79 -5.75,-8.73 -6.16,22.49 -8.27,46.91 -25.09,64.28 -4.97,5.14 -3.49,1.02 -5.56,8.73l19.88 0.55c-0.69,6.15 -8.94,16.71 -12.98,22.15 -4.7,6.33 -15.02,12.57 -17.81,19.97 5.3,2.48 7.15,1.57 13.95,1.67 -7.59,16.81 -25.54,23.38 -37.7,35.81 6.21,4.4 18.98,3.16 28.1,2.78 -5.73,18.88 -20.72,39.1 -34.2,51.37 -4.32,3.93 -11.54,8.59 -16.02,13.32 8.2,11.03 26.59,5.34 39.84,2.99 -5.89,16.38 -19.32,26.83 -28.49,40.66 -34.8,0.86 -45.3,-31.93 -45.38,-61.04 9.94,2.51 17.14,9.31 28.2,12.19l-7.47 -16.76 21.46 2.81 -5.68 -6.54c-2.79,-2.47 -2.75,-2.14 -5.36,-3.99 -9.43,-6.67 -25.61,-19.05 -31.13,-29.45l20.73 -0.12c-4.38,-4.68 -7.3,-5.25 -11.57,-8.42 -11.45,-8.49 -22.51,-20.84 -26.24,-34.54 11.12,4.21 10.28,5.88 24.33,6.28l-5.82 -13.16 13.81 -0.76c-30.86,-21.5 -38.57,-46.51 -51.71,-78.95l-1.27 -2.85c-1.41,-2.67 -1.35,-2.43 -2.72,-4.02 -13.31,49.72 -41.99,63.11 -53.71,81.83l15.1 -3.61c-2.72,3.32 -2.44,2.68 -6.36,6.01 -4,3.39 -4.02,2.9 -7.05,6.86l15.34 -1.09c-7.22,20.8 -30.3,37.98 -49.9,48.49l23.4 1.01c-7.76,8.54 -17.4,6.45 -25.96,12.6l22.5 2.82c-4.78,4.4 -12.37,7.47 -19.51,10.11 -6.13,2.26 -3.23,0.11 -7.16,4.19 20.99,3.36 25.19,-3.88 40.82,-5.03 -3.68,8.09 -5.75,6.9 -10.66,13.2l18.62 -2.89c-6.71,17.42 -28.8,21.01 -39.28,34.26l13.28 3.1 -12.53 8.66c9.39,3.78 24.43,-4.15 32.45,-7.21 -4.33,8.98 -14.64,16.35 -20.9,26.03l-31.74 0.46c-3.38,-6.1 -8.54,-13.32 -11.81,-21.54l19.08 2.63c-0.84,-4.37 -25.54,-27.1 -30.54,-38.73l12.49 -0.91c-2.69,-7.28 -15.24,-19.12 -21.26,-33.86l24.3 -1.48c-1.77,-4.43 -13.98,-12.02 -17.7,-15.74 -5.27,-5.3 -9.2,-12.49 -14.53,-18.97 1.12,-4.22 2.39,-2.63 4.47,-6.6 -9.96,-5.38 -16.23,-15.5 -21.22,-26.39 10.14,1.51 15.86,3.01 26.23,1.28 -2.97,-6.91 -13.29,-13.58 -18.86,-20.97 -5.59,-7.4 -11.3,-16.02 -16.25,-23.44l22.94 -0.73c-2.62,-6.52 -18.95,-15.98 -25.69,-19.09l13.02 -2.96c-5.42,-7.78 -19.11,-19.16 -22.73,-26.75l15.7 2.11c-15.23,-22.33 -15.45,-23.64 -25.26,-50.38 -7.82,12.58 -12.97,27.12 -21.76,39.44 -3.24,4.55 -6.56,7.8 -8.99,11.77l0 0.76 14.66 -1.92c-3.27,9.35 -9.17,13.81 -14.66,18.56l0 8.56 9.91 -1.63c-1.08,6.71 -5.01,11.4 -9.91,15.49l0 33.36 1.26 0.36c-0.39,1.21 -0.81,2.32 -1.26,3.35l0 288.56 1920 0 0 -317.24 -17.77 -0.46 17.77 0.46 0 -4.35c-4,2.23 -0.46,1.6 -3.59,3.89 -5.3,-3.55 1.4,-4.82 -4.96,-4.96l0 -2.13c0.79,-0.26 1.77,-0.28 0.19,-2.14 -1.71,-2.01 -0.42,-1.33 -3.74,-1.4 -0.83,2.24 1.54,1.01 -2.12,1.42 0.56,2.09 0.28,1.15 1.41,2.83 -1.31,0.31 -1.4,0.16 -2.5,1 -0.82,0.62 -0.5,0.52 -0.72,0.9l-0.24 0.62c-0.01,0.05 -0.03,0.22 -0.08,0.32 -3.82,-0.32 -2.58,-2.22 -5.55,-1.8 -3.66,0.51 -1.09,1.6 -0.83,4.63 -0.16,-0.08 -0.38,-0.39 -0.44,-0.26l-1.23 -0.9c-0.11,-0.08 -0.27,-0.24 -0.39,-0.32 -1.29,-0.97 -0.16,-0.81 -2.2,-1.35 -0.05,2.64 -0.64,2.59 -0.3,4.64 0.66,4.08 3.42,5.44 2.02,8.44 -1.1,2.38 -0.64,-1.9 -1.01,2.52 1.92,-0.16 1.93,-0.34 3.55,-0.71 -2.19,4.56 1.03,0.81 0,5.67 -1.95,-0.46 -3.72,-0.97 -5.67,-1.42 0.03,-0.37 0.28,-1.5 0.25,-1.73 -0.12,-1.34 -0.58,-1.35 -1.34,-2.11 -1.45,-1.47 -1.3,-2.39 -2.06,-5.07 -0.18,-0.63 -0.48,-1.47 -0.87,-1.96l-2.18 -1.43c-0.14,0.25 -3.24,-1.99 -4.77,0.6 -1.5,2.55 0.97,3.88 -2,5.83 -2.8,1.83 -4.48,-0.28 -5.85,1.98 -0.82,1.34 0.72,4.43 1.09,6.01 -4.28,-0.35 -2.08,-1.71 -4.71,-2.52 -3.1,-0.95 -2.41,2.39 -1.77,3.92 2.24,5.37 3.74,3.96 4.35,11.37 -5.35,-1.25 -1.6,-0.4 -6.38,0 0,-2.88 0.24,-2.29 -0.7,-4.26 -3.92,-0.32 -1.9,-1.34 -4.97,0.71 -1.58,-3.3 0.38,-1.82 -2.12,-2.83 -0.18,0.16 -0.59,0.63 -0.68,0.73l-2.16 2.1c-1.69,-3.53 0.24,-2.77 -0.44,-4.73 -0.77,-2.2 -2.37,-1.32 -4.52,-2.36 0,-3.57 0.2,-4.83 0.58,-7.34 0.63,-4.26 0.45,-4.62 -3.42,-4.71 0,3.26 -0.37,5.63 -1.42,7.8 -1.47,0.65 0.64,0.07 -0.99,-0.17 -1.7,-0.24 -2.4,-0.98 -2.62,2.23 -0.22,3.24 1.51,4.23 2.2,7.16 -1.35,-0.65 -3.79,-1.27 -5.68,-1.42 -0.08,0.16 -0.81,1.95 -0.83,2 -1.96,3.19 -2.4,2.13 -3.42,6.51 -3.41,-0.29 -2.94,-0.62 -2.57,-3.92 0.62,-5.55 -0.05,-1.02 -0.87,-5.39 -0.86,-4.63 0.6,-9.6 0.6,-14.09 -2.77,-0.65 -1.47,-0.65 -4.25,0 0,4.04 0.14,5.93 -1.48,9.15l-1.31 2.96c-1.04,2.68 -0.12,4.99 -0.04,8.45l-3.14 2.54c-2.7,1.78 -3.96,-1.92 -3.96,4.55l-0.7 0c0,-4.24 -0.09,-8.56 -0.03,-12.79 0.04,-3.32 0.48,-3.58 0.71,-5.83 0.37,-3.58 0.26,-3.81 -2.81,-4.07l-3.52 11.37c-0.36,0.84 -0.38,1 -0.6,1.53l-0.84 1.99c-0.37,-1.38 -0.13,-1.09 -0.71,-2.13 -4.88,0 -3.45,-0.46 -4.4,3.49 -0.5,2.09 -1.73,4.38 -2.69,0.77l-2.84 0c-1,4.29 -3.54,9.27 -3.54,14.18l-1.42 0c-0.25,-2.98 -2.1,-4.36 -3.55,-7.09 -1.61,0.37 -1.63,0.55 -3.54,0.71 0,3.29 0.65,7.59 -0.61,10.73 -1.23,3.05 -4.36,1.5 -6.42,5.64 -1.57,3.15 0.12,3.38 -4.31,3.48 0.55,6.71 -3.45,3.7 -7.7,5.78 -2.67,1.3 1.58,1.19 -3.65,1.31l0 -7.8c-1.99,-0.47 -5.61,-2.4 -6.8,-1.76 -2.11,1.12 0.18,3.81 0.42,6.72 -2.51,0.67 -2.18,0.76 -2.83,3.55 -2.91,-2.13 -0.51,-7.37 -5.68,-7.8 1.32,-1.96 1.25,-1.03 0.71,-3.55 6.63,-0.55 5.96,-3 10.64,-4.25 -0.18,-0.68 -1.55,-3.85 -1.94,-4.45 -0.16,-0.25 -1.25,-1.55 -1.57,-1.96 -0.62,-0.8 -0.9,-1.28 -1.46,-2.1 -4.48,3.28 -0.88,0.03 -4.25,1.42 0.38,4.52 2.73,4.19 2.84,9.22 -3.87,-2.84 0.29,-3.33 -5.67,-2.84l0 -1.42c2.84,-0.76 2.05,-0.19 2.12,-3.54 -6.89,-0.58 -5.76,-10.58 -9.97,-5 -0.33,0.44 -1.16,3.24 -1.17,3.75 -0.14,5.77 2.99,-0.32 -0.91,5.5 2.59,1.9 0.76,2.73 5.67,2.84 0,3.66 -0.23,4.14 2.84,4.96l0 2.13 -2.13 0c0.25,3.04 -0.1,1.27 1.42,3.54 -6.16,-1.64 1.08,-3.54 -6.38,-3.54 0.06,2.6 0.58,3.92 1.42,5.67 -5.11,3.42 -2.31,7.23 -7.09,8.51 -1.95,-1.43 -1.7,-2.1 -2.84,-4.26 -3.12,0.07 -2.21,0.48 -4.96,0.71l1.97 4.46c0.25,0.45 2.61,3.76 0.08,4.89 -1.11,0.49 -2.98,-0.91 -4.78,-1.04 -5.74,-0.39 1.4,0.98 -4.36,1.62 0.12,-5.44 1.02,-1.11 2.41,-5.39 0.53,-1.62 0.27,-0.52 0.42,-2.41 -1.93,-0.21 -3.21,-0.18 -2.8,-4.87l0.92 -3.44c0.44,-1.28 0.83,-0.9 0.47,-1.62 -2.16,-3.22 -4.03,-2.12 -9.22,-2.12 2.04,3.86 0.76,3.81 5.67,4.96 -0.21,2.57 -1.84,5.14 -1.9,7.63 -0.05,2.09 0.99,6.27 1.19,8.68 -2.19,0.18 -1.34,-0.02 -2.83,0.7 0.73,-3.47 -1.03,-4.23 -4.26,-3.54 0,2.73 0.45,3.83 0.55,5.19 0.32,4.25 -0.29,1.09 -1.26,4.73l2.25 2.73 -2.93 1.57 -0.73 -14.22 -2.84 0c0,4.12 0.05,5.24 -0.71,8.51l-1.9 -1.65c-0.09,-0.11 -0.2,-0.3 -0.29,-0.42 -0.09,-0.12 -0.2,-0.3 -0.29,-0.42l-2.48 -5.31c-1.87,0.43 -2.09,0.64 -3.55,1.42 0.14,-6.13 6.59,-10.37 0.71,-13.48 -1.93,4.04 -2.16,9.23 -6.38,12.06 0.34,-4.05 1.08,-0.92 1.42,-4.96 -2.7,-1.43 -3.25,0.47 -4.25,-2.13l-2.84 0c-0.09,4.29 0.46,2.07 -1.42,2.83 0,-4.57 1.17,-8.87 2.62,-12.27 1.78,-4.16 5.07,-6.35 2.35,-10.41 -1.87,1.37 -1.39,1.76 -2.9,3.48l-2.07 2.19c0,-3.2 -0.13,-5.23 -0.41,-8.1 -0.24,-2.45 0.41,-4.04 0.41,-7.5l-2.83 0c0,5.17 -0.21,9.84 -2.08,13.52 -0.07,0.15 -0.18,0.32 -0.24,0.47 -0.07,0.15 -0.14,0.34 -0.21,0.5 -1.11,2.75 0.35,2.94 -3.15,3.24l0 4.96c-0.9,-1.3 -0.04,1.36 -1,-1.89 -0.93,-3.12 1.02,-4.14 -1.83,-6.62l-2.73 2.25c-0.15,5.34 3.01,13.22 0.36,18.13 -1.28,2.39 -0.76,1.67 -0.47,5.14 -6.03,0 -3.32,3.34 -5.33,7.44l-0.58 1.16c-0.01,0.04 -0.39,3.28 -0.47,4.16 -2.89,-2.11 -1.3,-6.16 -1.52,-9.2 -0.39,-5.5 -0.96,1.24 -1.2,-4.22 -0.05,-1.09 0.88,-4.12 1.31,-5.01 -1.88,-2.56 -3,-0.76 -2.67,-4.04 0.29,-2.99 2.44,-1.92 0.54,-5.88 -2.48,0.2 -1.17,0.01 -2.09,0.74l-3.17 3.22c-2.95,2.32 -3.62,7.26 -8.92,7.38 0,-6.74 0.74,-9.34 -1.01,-14.59 -0.92,-2.77 0.02,-2.86 -3.24,-3.13 -0.34,3.06 -0.21,1.6 -1.68,3.99l-1.2 1.64c-2.59,3.04 -0.52,3.48 -0.81,6.35 -0.34,3.46 -1.17,0.31 -1.28,5.03 -1.88,-0.9 -0.76,-0.65 -3.54,-0.71 1,4.29 4.16,7.1 2.12,11.34 -4.5,-2.38 -2.83,-7.47 -2.83,-12.76l-4.96 0c-0.7,8.38 -0.59,4.88 2.83,11.35 -6.01,3.18 -3.49,-0.71 -10.63,-0.71 -1.98,3.73 -1.77,5.87 1.42,8.5 4.44,3.67 2.83,2.49 2.83,8.51 -2.51,-1.68 -3.52,-2.95 -4.96,-5.67 -2.33,1.12 -2.54,0.57 -4.97,0 -0.96,-4.14 -0.17,-9.53 -4.96,-9.92 -0.24,2.92 -0.95,3.11 -1.22,6.18 -0.19,2.08 0.17,-0.15 -0.12,1.37l-0.78 5.21c-2.63,-0.61 -1.99,-1.17 -4.97,-1.42 -0.94,3.52 -1.41,0.79 -1.41,6.38 -3.54,-0.94 -6.1,-5.78 -5.44,2.46 0.29,3.67 -1.65,5.28 -1.65,11.01l-2.84 0 -1.42 -3.54c0,5.2 0.47,6.1 -2.83,6.38 -1.04,-4.43 1.16,-5.57 -3.55,-5.68 -2.44,5.09 -0.46,7.74 0.71,12.77l-2.13 0c-0.94,-4.06 -0.19,-5.57 -4.96,-5.68 1.32,-5.65 1.5,-12.68 2.84,-18.43l-2.13 -1.42c0,-5.13 1.42,-5.97 1.42,-10.63 -3.78,1.01 -2.01,4.2 -2.49,6.93 -0.43,2.47 -0.58,0.19 -1.01,3.73l-0.79 15.53c-0.28,3.39 -0.68,5.54 -0.68,9.97 -2.62,-0.62 -1.98,-1.17 -4.96,-1.42l-1.42 3.54c0,-3.86 1.14,-5.85 1.42,-9.21 -1.63,-1.09 -1.42,-1.36 -4.25,-1.42 0,-2.78 -0.07,-4.87 -0.28,-7.53 -0.17,-2.14 0.12,-2.44 0.04,-3.3 -0.29,-3.11 -0.43,-1.26 -2.98,-1.73l-2.37 -0.4c-1.9,0.11 -4.57,0.37 -7.17,1.61 0.38,4.62 3.11,6.45 -2.13,9.22l3.04 -38.95c0.23,-2.52 1.35,-2.79 -1.62,-3.59 0,4.9 -1.32,10.11 -1.43,14.88 -0.17,6.95 -0.41,29.91 -4.8,36.36 -2.42,3.57 -1.98,0.59 -1.57,5.48 -2.27,-1.52 -0.5,-1.16 -3.55,-1.42 -2.01,3.01 -2.12,0.79 -2.12,5.67 -3.78,-0.88 -2.2,-2.15 -2.19,-2.58 0.02,-1.38 0.41,0.24 -0.27,-1.42l-1.23 -3.2c-0.57,-1.52 -0.93,-0.06 -0.57,-1.3 1,-4.3 2.28,-3.06 0,-7.8 -2.27,1.66 -0.59,1.93 -2.83,2.83 1.53,-3.18 -0.66,-5.12 0.74,-8.44 0.54,-1.31 0.6,-1.28 1.38,-2.19 0,4.87 -1.84,4.69 -0.63,5.81 1.01,0.95 0,0.4 2.05,0.57 0,-13.44 1.32,-14.8 1.42,-19.14 -4.53,1.06 -2.07,0.73 -3.13,3.96 -0.05,0.17 -0.11,0.37 -0.17,0.53 -1.02,2.65 -1.19,0.93 -1.64,4.04 -0.52,3.56 -1.16,7.13 -3.57,9.9 0,-9.9 1.96,-9.03 1.91,-15.11 0,-0.62 0.05,-1.67 -0.02,-2.03 -0.35,-1.84 0.32,-0.9 -1.18,-2 -1.45,3.02 -1.92,12.5 -3.24,18.02 -0.76,3.13 -1.49,3.28 -1.72,6.08 -4.9,-2.59 -0.87,-0.04 -0.71,-7.09 -4.74,3.18 -0.56,3.45 -5.96,8.22 -0.34,0.3 -1.03,0.9 -1.13,1 0,-5.32 0.57,-3.58 1.69,-7.53 1.8,-6.39 -0.69,-5.34 3.04,-10.43 1.64,-2.24 3.7,-8.32 2.36,-11.11 -3.5,1.42 -0.19,2.51 -3.54,4.96 0.74,-8.99 2.58,-11.17 2.83,-14.17 -3.19,0.85 -1.54,0.45 -4.93,6.41 -1.69,2.96 -3.52,6.9 -3.27,10.71 0.16,2.52 0.96,1.57 0.65,3.79 -0.85,6.09 0.39,1.71 -0.11,5.47 -0.36,2.74 -0.77,1.45 -0.85,4.81 -2.77,-2.03 -1.82,-7.56 -2.76,-12.83 -0.49,-2.69 -0.04,-2.53 -2.91,-2.76 0.64,2.72 0.67,2.84 0.73,6.39 0.13,7.6 1.59,4.89 -0.73,5.66l0 4.25c1.4,-0.3 2.69,-2.6 2.84,4.25l-2.13 0c0.58,2.5 0.71,2.33 0.71,5.68l-1.89 -4.5c-1.47,-2.53 -5.2,-1.83 -5.2,-16.06 -3.51,0.74 -1.28,1.28 -2.28,-0.6 -0.75,-1.41 0.04,-2.64 -1.51,-5.54 -1.88,-3.5 -1.88,-1.73 -1.88,-5.92l-1.42 0c0,4.15 0.71,6.44 0.71,11.35l2.13 0c0,5.22 -0.69,3.3 -1.19,5.9 -0.45,2.3 0.48,2.91 0.48,6.15l-2.24 -5.64c-2.23,1.66 -1.04,-0.6 -0.49,3.8l0.29 2.93c0.52,2.33 0.61,1.32 1.08,4.52 0.34,2.31 0.6,2.6 0.65,5.02 -3.06,-2.04 -5.34,-6.69 -5.67,-10.63l-2.13 0c0.33,3.98 2.13,3.89 2.13,9.22 -1.58,0.57 -0.68,-0.09 -1.72,1.12 -1.81,2.13 -0.61,1.53 -0.68,2.04 -0.33,2.67 -0.56,2.81 -1.15,5.34 -3.29,-0.88 -0.62,-1.11 -4.25,-1.41 1.45,3.03 1.86,3.53 0.44,6.78 -2.61,6 -1.17,2.22 -4.69,3.85 0,-10.96 3.85,-17.81 6.26,-26.39 1.03,-3.69 -0.31,-2 0.45,-5.18 0.87,-3.7 2.5,-1.93 2.5,-10.97l-1.42 0c-0.23,2.76 -0.64,1.85 -0.71,4.96 -1.73,0.72 -0.57,0.48 -2.83,0 -1.19,5.1 -0.77,2.88 -2.32,6.19 -1.18,2.49 -1.53,6.13 -1.98,8.66 -0.64,3.57 -0.8,2.29 -3.5,3.59 1.13,2.35 0.65,3.23 0.02,5.65 -0.76,2.92 -0.73,3.37 -0.73,7.11l-1.42 0c-0.31,-3.7 -2.53,-8.08 -2.75,-12.15 -0.22,-3.96 1.75,-9.13 2.04,-12.66l-1.41 0c-0.38,1.61 -0.55,1.63 -0.71,3.54l-1.42 0c0,-5.19 -1.74,-8.1 -2.13,-12.76l-1.42 0c0,3.15 0.82,4.78 0.41,6.78 -0.42,2.07 -2.01,4.03 -2.53,5.98 1.84,1.94 1.13,0.97 3.54,2.13 0,4.76 0.42,5.35 0.91,9.2 0.22,1.76 0.88,2.38 -1.12,2.83 -3.48,0.79 -2.44,-0.43 -2.62,-2.11l-2.13 0c-0.32,3.71 0.68,1.29 -1.42,2.13 -4.68,-8.85 -3.35,-2.25 -5.94,-6.82l-2.57 -10.19c-0.88,-3.61 0.24,-4.86 -2.83,-5.68 0.16,1.95 0.24,2.72 0.39,4.46 0.12,1.3 0.01,0.63 0.4,1.83l2.15 7.79c1.96,8.3 7.69,11.33 7.69,24.21 -3.05,-2.24 0.39,-2.13 -4.96,-4.97 -0.07,3.12 -0.48,2.21 -0.71,4.97 2.61,0.21 2.62,0.22 2.84,2.83 -3.11,-3.58 -0.89,-1.06 -3.01,-1.63 -4.61,-1.24 0.33,-3.13 -3.89,-7.07l-3.03 -3.35c0.95,-2.62 0.56,-0.58 1.01,-1.89 1.02,-2.97 -0.66,-9.28 -3.24,-11.48l-1.91 -0.92c-0.45,-0.13 -2.21,-0.42 -2.95,-0.6 -0.11,-5.04 -1.74,-2.45 0.71,-7.09 -1.33,-0.7 -2.97,-1.78 -4.34,-1.84 -3.41,-0.13 0.87,0.01 -2.23,0.51 -1.16,0.18 -0.29,0.11 -2.65,-0.09 -0.25,3.07 -1.08,3.17 -2,5.85 -1.46,4.22 -0.22,1.68 -0.12,6.21 -3.71,-0.99 -3.04,-2.5 -2.56,-6.77 0.28,-2.49 -0.28,-5.34 -0.28,-8.83l-1.8 14.38c-0.8,1.93 -2.8,2.33 -3.11,4.82 -0.2,1.61 0.87,5.99 1.37,7.03 -3.3,-0.88 -0.92,-1.08 -3.79,-1.88 -2.56,-0.71 -2.66,0.21 -5.16,-1.28l-1.14 -0.86c-0.07,-0.07 -0.21,-0.23 -0.27,-0.3 -1.62,-2.05 -0.12,-3.17 -3.82,-3.48 -1.15,4.3 -2.3,0.7 -2.63,5.78 -0.09,1.48 -1.07,4.6 -2.62,5.99 -2.58,2.3 -4.35,0.81 -6.92,1.48 -1.25,0.32 -2.45,3.72 -3.43,5.19 -2.9,-1.05 0.29,0.15 -1.87,-0.97 -3.1,-1.6 -3.44,-3.2 -7.35,-3.29 -1.06,2.95 -4.73,4 -7.8,4.26 0.21,2.4 1.31,4.44 1.07,6.26l-0.04 0.32zm75.54 -0.91l5.67 4.25 -5.67 -4.25zm0 0l0 2.12 -1.41 0c0.46,-1.94 -0.29,-1.1 1.41,-2.12zm4.26 -3.55c0.37,0.54 0.37,0.31 0.78,1.34 0.47,1.17 0.26,0.35 0.5,1.64 0.29,1.56 0.13,3.23 0.13,4.82 -1.43,-0.96 -1.95,-0.97 -2.49,-3.25 -0.87,-3.69 0.14,-1.04 1.08,-4.55zm26.23 0.71c-0.49,2.02 0.11,1.07 -1.42,2.13 1.03,1.4 0.33,0.14 0.98,1.09 1.07,1.53 0.92,-0.32 0.44,1.04l-1.6 -0.54c-2.81,-2.43 1.66,2.24 -0.69,-0.73 -3.54,-4.49 1.88,-3.02 2.29,-2.99zm0 0l1.28 -1.56c-0.35,1.99 0.4,0.93 -1.28,1.56zm4.25 -1.42c0,-1.81 1.12,-0.11 0.42,0 -0.01,0 -0.42,1.98 -0.42,0zm-1.42 -6.38c1.98,0.72 1.75,1.57 3.55,4.26 -2.16,-0.05 -2.59,-0.32 -4.25,-0.71 0.05,-2.47 -0.11,-1.9 0.7,-3.55zm50.34 1.42l2.84 0 0 1.42c-3.3,-0.27 -1.24,0.76 -2.84,-1.42zm-40.41 -1.42c-0.32,-1.74 1.3,-0.29 0.78,0.12 0,0 -0.05,0.02 -0.06,0.02 -1.44,-0.09 -0.45,1.35 -0.72,-0.14zm43.25 -4.25l1.13 0.99c0.84,1.09 0.58,0.3 0.99,1.84l-6.38 0c1.05,-1.43 2.27,-2.3 4.26,-2.83zm-70.19 1.42c0.75,-0.76 2.69,1.12 0.79,0.37 -0.02,-0.01 -1.98,0.82 -0.79,-0.37zm-27.65 -0.71c0,-2.62 1.17,-3.4 1.42,-6.38l1.41 0c0.62,2.31 2.66,2.26 0.72,10.63 -2.06,-0.54 -3.55,-1.82 -3.55,-4.25zm129.74 -0.71c0,-1.81 1.12,-0.12 0.42,0 -0.01,0 -0.42,1.98 -0.42,0zm-77.99 2.13c-3.26,0.27 -1.93,0.57 -4.25,2.12 -0.25,-3.06 -0.24,-5.48 1.45,-8.47 0.1,-0.19 0.49,-0.64 0.59,-0.83l0.51 -0.91c0.51,-1.4 0.29,-3.13 0.29,-4.68l1.41 0c0.36,1.55 0.41,1.64 1.12,3.14 0.58,1.22 2.73,4.18 2.86,7.03 0.08,2.05 -0.7,2.09 -1.14,3.3 -2.26,-1.65 -0.58,-1.18 -2.84,-2.83l0 2.13zm-24.81 -4.26l70.9 0 -70.9 0zm0 0c0,-1.81 1.12,-0.11 0.42,0 -0.01,0 -0.42,1.98 -0.42,0zm101.38 -0.71l0.21 0.21c-0.01,-0.01 -0.28,-0.13 -0.21,-0.21zm4.25 -4.96l-34.73 5.67 34.73 -5.67zm0 0c0,2.98 0.3,2.86 -0.7,4.96 -4.63,-1.23 -1.11,-3.74 0.7,-4.96zm-7.79 0.71l0.21 0.21c-0.02,-0.01 -0.28,-0.14 -0.21,-0.21zm-34.74 -2.84c0.2,-2.47 0.15,-2.08 1.42,-3.54 -0.14,1.67 -0.23,3 -1.42,3.54zm-10.64 -2.12l-0.81 -1.39 0.81 1.39zm-20.56 -4.26l0.22 0.22c-0.02,-0.02 -0.29,-0.15 -0.22,-0.22zm26.94 -0.71l0.21 0.22c-0.01,-0.02 -0.28,-0.15 -0.21,-0.22zm-46.08 -2.12c0.84,1.32 0.8,-1.59 0.59,1.42 -0.11,1.51 -0.09,0.63 -0.59,1.41l0 -2.83zm0.71 -2.13l0.21 0.21c-0.01,-0.01 -0.28,-0.14 -0.21,-0.21zm177.24 -9.22l-131.16 8.51 131.16 -8.51zm0 0c0.75,-0.75 2.69,1.13 0.79,0.37 -0.01,0 -1.98,0.82 -0.79,-0.37zm-142.5 -9.21l0.21 0.21c-0.01,-0.02 -0.28,-0.14 -0.21,-0.21zm175.82 -4.97c0.07,-0.07 0.21,0.12 0.21,0.22l-0.21 -0.22zm-44.66 -7.09l2.12 0 0 1.42c-2.07,-0.49 -1.02,0.09 -2.12,-1.42zm66.64 -0.7l0.21 0.21c-0.01,-0.02 -0.28,-0.14 -0.21,-0.21zm32.61 -0.71l2.13 0 0 2.12c-2.32,-0.84 -0.51,0.92 -2.13,-2.12zm-46.79 2.12l-1.42 0 0 -3.54 2.13 0c-0.09,1.07 -0.39,2.83 -0.71,3.54zm-46.79 -6.38c-2.76,-2.01 -1.49,-2.78 0.71,-4.25 -0.04,1.61 -0.22,3.16 -0.71,4.25zm116.27 -5.67c0,-1.92 2.54,0 0.63,0.04 -0.71,0.02 -0.63,1.57 -0.63,-0.04zm-24.81 -5.67c7.49,5.02 2.39,1.69 9.21,4.96 -1.77,3.69 -1.9,2.9 -2.13,5.68 2.08,0.49 1.03,-0.1 2.13,1.41 -0.91,0.62 -1.29,0.83 -2.2,1.35l-2.76 1.49c-0.43,-1.87 -0.65,-2.09 -1.42,-3.55 1.79,-2.43 2.49,-0.72 2.84,-4.96 -6,-1.4 -5.67,-3.33 -5.67,-6.38zm5.67 -4.25c1.71,0.39 2.34,0.26 3.16,1.93 1.01,2.09 -0.04,2.79 -1.04,3.74 -2.1,-1.54 -2.12,-2.12 -2.12,-5.67zm-2.13 -1.42l-1.52 -0.39 1.52 0.39zm91.37 -2.81l2.21 -0.03c-0.27,3.29 0.76,1.24 -1.42,2.84l-0.79 -2.81zm-4.88 -9.24c0,-7.29 -0.74,-7.34 2.95,-11.23 2.09,-2.19 0.45,-1.42 2.72,-2.24 1.01,2.09 0.8,2.27 2.13,4.25 -3.58,2.63 -2.34,8.76 -7.8,9.22zm-31.19 -10.64c0,-1.81 1.12,-0.11 0.42,0 -0.01,0 -0.42,1.98 -0.42,0zm30.48 -7.8c-0.32,-1.74 1.3,-0.29 0.79,0.12 0,0 -0.06,0.02 -0.06,0.02 -1.45,-0.09 -0.45,1.35 -0.73,-0.14zm8.51 -3.54c2.66,0.71 8.38,7.28 2.13,7.8 -0.29,-3.5 -1.99,-2.88 -2.13,-7.8zm-30.48 -2.13l0 3.55 -0.71 0c0,-0.53 -0.05,-1.59 0.06,-2.07 0.32,-1.37 0.18,-0.74 0.65,-1.48zm34.74 -2.13c0,-1.81 1.12,-0.11 0.42,0 -0.01,0 -0.42,1.98 -0.42,0zm53.17 -8.51c0.75,-0.75 2.69,1.13 0.79,0.38 -0.02,-0.01 -1.98,0.82 -0.79,-0.38zm4.96 -17.72c2.07,0.5 1.02,-0.09 2.13,1.42l-2.13 0 0 -1.42z"/>
 </g>
</svg>
