<?xml version="1.0" encoding="UTF-8"?>
<!DOCTYPE svg PUBLIC "-//W3C//DTD SVG 1.1//EN" "http://www.w3.org/Graphics/SVG/1.1/DTD/svg11.dtd">
<!-- Creator: CorelDRAW -->
<svg xmlns="http://www.w3.org/2000/svg" xml:space="preserve" width="1920px" height="1080px" version="1.1" style="shape-rendering:geometricPrecision; text-rendering:geometricPrecision; image-rendering:optimizeQuality; fill-rule:evenodd; clip-rule:evenodd"
viewBox="0 0 1920 1080"
 xmlns:xlink="http://www.w3.org/1999/xlink"
 xmlns:xodm="http://www.corel.com/coreldraw/odm/2003">
 <defs>
  <style type="text/css">
   <![CDATA[
    .fil0 {fill:#15537D}
   ]]>
  </style>
 </defs>
 <g id="Layer_x0020_1">
  <metadata id="CorelCorpID_0Corel-Layer"/>
  <g id="_1691873688128">
   <path class="fil0" d="M1704.96 570.75c10.49,4.78 23.5,-2.11 27.83,-2.02 9.08,0.18 14.56,-1.21 18.02,-1.25 5.47,-0.05 4.88,2.58 10.75,1.81l18.79 -8.15c18.99,-11.67 11.57,-8 27.1,-14.33 0.73,-0.3 23.26,-20.38 34.63,-26.12 5.15,-2.6 2.07,0.82 8.6,-4.74l8.05 -5.54c2.26,-0.9 7.41,0.2 10.87,0.13 8.83,-0.18 15.42,-4.27 23.05,-8.14 4.71,-1.98 9.11,-3.32 13.56,-6.01 1.35,-0.81 6.47,-3.61 6.89,-3.73 3,-0.83 4.57,0.49 6.9,1.68l0 585.66 -1920 0 0 -720.32c17.28,2.1 11.33,0.96 27.57,3.76 2.4,0.42 4.71,0.33 6.25,1.12 7.26,0.47 12.98,0.09 19.14,2.87 16.78,4.64 3.67,7.2 32.46,8.54 15.05,0.69 8.88,1.56 16.71,3.66 2.48,0.66 6.37,0.41 9.53,1.11 5.13,1.14 3.6,2.07 9.57,0.33 7.96,-2.32 11.37,-4 19.59,-4.31 15.69,-0.6 27,-8.15 28.07,-8.42 3.43,-0.83 7.28,-0.69 10.31,-1.5 5.89,0.1 5.47,-1.39 7.72,-0.11 5.62,-1.86 4.52,0.34 9.85,-2.52 3.05,-1.63 3.91,-2.65 7.72,-4.28 1.46,-2.29 11.77,-3.99 16.5,-3.8 9.67,0.41 14.89,1.28 19.54,6.4 1.76,1.93 0.28,0.84 2.22,1.85 11.54,6.05 9.11,-3.34 12.31,8.76 5.05,-0.47 12.28,1.39 16.4,3.2 4.1,1.81 -1.86,1.14 4.7,1.21 5.28,0.05 13.41,-1.66 19,4.75 3.48,0.7 2.11,3.53 2.09,6.31 13.17,15.44 4.56,26.76 23.05,38.69 3.35,2.16 -1.38,-1.02 1.97,1.99 2.96,2.66 1.86,0.88 6.01,2.27l8.17 1.66c0.22,0.04 0.46,0.13 0.67,0.18 3.14,0.79 0.91,1.11 5.26,0.15 5.03,-1.1 5.31,0.84 7.63,1.88 0.54,3.88 -1.27,4.62 1.82,7.26 1.64,-2.12 4.5,-3.47 6.63,-4.22 4.79,-1.68 6.45,-1.16 10.9,-0.83l0.55 0.27c7.43,-0.58 4.32,2.42 6.09,3.54 0.54,3.42 0.73,7.35 1.37,10.62 1.34,6.83 7,16.93 13.03,20.12 4.7,-7.77 4.68,1.58 5.85,3.81 1.58,2.99 0.69,1.31 2.39,1.97 1.76,2.6 3.2,4.27 3.07,7.74l2.46 3.26 11.63 -1.89 5.49 0.99 0.93 10.34c5.26,-0.36 2.47,1.31 9.5,0.55 6.51,-0.7 6.16,0.8 6.17,0.76 0.04,-0.11 0.28,0.2 0.45,0.28 1.23,2.27 3.84,5.78 6.66,6.72l9.3 3.76c0.34,0.14 41.17,7.94 41.73,7.89 12.06,-1.11 -0.67,3.52 15.9,2.48 1.22,1.62 1.36,2.36 3.64,3.48l5.39 1.67c3.77,-2.25 1.4,-2.72 5.29,-3.01 1.11,-0.09 4.15,0.83 6.21,1.07 3.63,6.05 4.38,4.41 8.41,8.32 2.79,2.7 2.51,1.73 6.66,3.3 3.29,1.25 1.83,1.47 4.42,1.64 2.24,1.33 5.05,1.08 7.07,2.4 4.3,2.81 -2.55,1.41 10.38,3.46 6.86,1.09 27.83,2.44 29.06,6.59l0.34 0.37 1.41 2.87c3.38,0.52 8.93,2.03 12.63,1.14 4.28,3.51 8.73,4.57 14.14,5.74l8.57 2.09c15.58,3.7 20.45,2.68 25.4,4.13 4.87,0.11 6.53,2.39 9.96,3.82 9.17,3.81 27.53,6.65 39.38,9.65 4.91,0.75 28.61,7.22 29.07,11.16 3.81,-0.02 3.22,0.94 6.25,1.13 0.8,0.05 5.06,-0.08 7.5,-0.22 7.74,-0.41 6.74,0.38 14.18,1.9l10.69 4.59c1.32,0.54 4.16,0.73 7.38,1.24 2.49,0.4 1.24,0.23 3.21,0.84 7.84,2.41 20.29,3.11 27.49,5.21 5.29,1.54 3.12,-0.22 11.84,2.9l4 1.68c2.43,1.63 5.7,3.72 11.87,4.21 1.03,-1.24 7.23,-2.39 10.76,-2.22 1.28,0.93 1.8,2.59 3.11,3.35 1.84,1.07 2.4,0.3 5.22,1.37 2.87,1.1 5.78,3.65 9,4 7.95,1.72 8.13,3.43 11.07,2.46 3.1,-1.02 5.69,-4.36 12.32,-2.75 4.27,1.04 -0.02,1.74 5.52,1.55 9.31,-0.32 10.78,-2.69 16.23,5.36 5.72,-0.13 5.07,-0.19 10.21,0.68 3.07,0.89 5.49,1.71 7.95,2.07l0.48 1.02c5.83,4.76 1.57,5.84 8.94,6.18l6.51 0.73c0.83,0.19 0.78,0.24 0.62,0.24 0.23,0.02 0.67,0.06 1.43,0.13 1.92,0.19 0.65,-0.44 4.15,0.08 2.95,2.78 -0.38,2.06 4.13,3.07 1.82,0.41 3.23,0.17 5.82,0.8 5.23,1.28 4.62,3.53 9.92,1.89 4,-1.25 11.82,-3.28 16.2,-1.67 1.94,0.72 1.95,1.67 3.33,3.47 2.27,1.52 20.54,3.21 24.21,4.95l6.62 3.9c3.61,-0.69 1.81,0.02 5.4,1.07 1.33,1.07 1.52,0.43 2.62,1.41 4.86,0.17 7.71,1.74 12.6,2.3 0.24,0.03 0.52,0.02 0.76,0.05l14.32 2.35c36.28,-44.61 0.56,-17.11 42.97,-14.85 2.91,0.16 0.41,6.78 4.88,7.19l2.96 1.18c16.03,4.98 11.4,2.27 17.67,3.88 4.35,2.59 1.34,-0.54 6.36,0.72 12.22,3.04 9.35,-1.3 14.13,3.59 3.37,3.44 3,0.62 7.6,2.42 4.86,1.91 -0.06,3.37 6.03,3.44 3.19,0.03 2.52,-0.98 8.59,-1.4 4.08,-0.28 4.85,0.68 8.61,0.96 3.18,0.23 5.13,-1 8.64,-0.38 4.82,0.87 1.27,2.92 5.28,4.38 5.7,2.09 2.8,-1.49 8.28,1.97 2.34,-0.08 5.26,0.04 9.02,0.47l12.46 -3.82c4.69,-0.66 8.94,18.73 13,16.65 14.21,-7.29 3.64,-2.9 17.52,-7.73l4.06 -2.24c0.15,-0.09 0.68,-0.43 0.97,-0.58 7.39,-4.17 2.51,2.51 13.82,-8.83 5.73,-5.75 2.79,-2.41 9.09,-5.87l6.38 -3.17c1.53,-0.58 2.32,-0.9 3.84,-1.32 3.34,-4.17 2.9,-1.05 9.46,-1.39 6.77,-0.36 10.65,-4.73 28.9,-1.73 3.69,0.7 3.11,-0.19 6.57,0.8l5.96 1.98c0.28,0.05 0.53,0.07 0.82,0.12 1.1,0.16 1.5,0.23 2.64,0.32 17.2,1.49 13.88,-4.39 29.84,1.36 14.55,5.24 48.5,4.84 62.68,-4.04 30.06,-7.95 29.4,-17.95 66.44,-18.29 22.72,1.4 6.22,-0.52 29.89,-4.7 4.79,-0.84 3.45,-1.62 10.87,-3.86 2.3,-0.7 2.79,-0.92 4.57,-1.97 5.21,-3.08 2.56,-2.9 9.34,-4.74 4.17,-1.13 7.81,-0.59 13.07,-0.42 1.76,-1.22 2.67,-2.52 4.19,-4.04 1.44,-1.43 2.99,-2.74 4.71,-4.12 3.53,-2.84 7.97,-3.48 13.88,-2.9 10.26,-6.01 11.27,-4.38 21.48,-5.17 6.89,-0.53 4.16,-3.08 10.45,-5.05 8.27,-2.61 6.98,-3.51 11.72,-4.82 2.29,-2.3 4.43,-3.24 7.77,-7.1l3.6 -4.32c1.02,-1.71 1.39,-4.04 2.18,-6.38 0.71,-0.93 14.06,-4.86 18.4,-8.7 3.12,-2.76 2.93,-4.3 9.43,-2.83l20.72 4.02 0 0zm-1519.18 -203.76c0.06,0.05 -0.09,-0.08 0,0z"/>
  </g>
 </g>
</svg>
