<?xml version="1.0" encoding="UTF-8"?>
<!DOCTYPE svg PUBLIC "-//W3C//DTD SVG 1.1//EN" "http://www.w3.org/Graphics/SVG/1.1/DTD/svg11.dtd">
<!-- Creator: CorelDRAW -->
<svg xmlns="http://www.w3.org/2000/svg" xml:space="preserve" width="1920px" height="1080px" version="1.1" style="shape-rendering:geometricPrecision; text-rendering:geometricPrecision; image-rendering:optimizeQuality; fill-rule:evenodd; clip-rule:evenodd"
viewBox="0 0 1920 1080"
 xmlns:xlink="http://www.w3.org/1999/xlink"
 xmlns:xodm="http://www.corel.com/coreldraw/odm/2003">
 <defs>
  <style type="text/css">
   <![CDATA[
    .fil0 {fill:#4D90BA}
   ]]>
  </style>
 </defs>
 <g id="Layer_x0020_1">
  <metadata id="CorelCorpID_0Corel-Layer"/>
  <path class="fil0" d="M1920 596.1l0 483.9 -1920 0 0 -473.11 44.71 -73.71c3.58,-0.73 20.48,-10.86 24.5,-13.51 6.61,-4.36 6.23,-3.01 11.5,0.92l10.89 7.62c0.2,0.18 0.49,0.49 0.65,0.64 0.16,0.15 0.44,0.43 0.65,0.66 2.17,0.18 0.96,-0.05 3.58,0.87 4.14,1.46 5.49,2.6 8.39,5.54l1.52 1.63c3.5,3.35 7.14,4.67 10.71,7.31l4.03 3.56c2.47,0.12 8.68,5.24 12.52,7.56 5.16,3.11 9.02,5.55 14.09,8.27l1.37 1.47c5.73,1.1 6.26,4.85 11.13,6.29 5.69,1.68 9.36,-0.97 17.02,2.22 8.7,3.61 18.73,8.3 27.05,9.79l1.58 4.04c7.38,-0.7 10.41,-4.8 17.42,-3.15 4.89,-1.26 2.56,-0.32 5.97,-2.97 1.34,-1.04 3.03,-2.27 4.97,-3.54 6.86,-4.47 3.57,-3.65 11.4,-1.67 1.96,1.94 47.52,16.59 48.86,17.49 3.35,2.24 4.33,5.36 11.62,4.15 7.43,-1.24 4.68,-4.67 13.3,-0.4 4.55,2.25 7.21,4.47 13.1,3.37 5.31,-1 8.72,-2.44 13.17,1.54 5.07,1.62 4.74,2.76 10.71,3.81 4.24,0.73 7.97,1.76 11.64,3.55 5.12,1.72 5.34,-1.2 10.03,-2.82 4.48,-2.12 4.41,-3.84 8.49,-4.53 0.23,-0.22 0.58,-0.86 0.71,-0.64 0.13,0.21 0.53,-0.48 0.71,-0.62l9.24 -4.54c1.69,-1.08 3.19,-2.09 4.85,-3.15 0.85,-0.54 1.63,-0.99 2.51,-1.57 1.12,-0.76 1.53,-1.02 1.77,-1.35 7.32,-2.3 11.54,-5.7 19.67,-8.17 5.85,-1.77 5.1,-1.26 9.05,-4.65 1.71,-1.47 5.7,-4.93 8.03,-5.19 2.54,-2.81 6.19,-3.64 10.22,-6.37l2.74 -2.02c0.12,-0.4 0.48,-0.38 0.72,-0.56 3.3,-0.74 7.33,-4.27 10.26,-6.1 1.88,-1.18 3.28,-2.26 5.3,-3.31 1.96,-1.02 3.76,-1.17 5.31,-3.24l6.39 -2.72c9.98,-4.25 3.39,2.17 17.91,-4.8 7.99,-3.83 2.07,1.02 11.81,-6.26l5.61 -3.2 8.58 1.29 4.3 -3.04c2.77,-1.7 1.33,-0.94 4.18,-2.22 17.54,-7.88 13.88,-13.77 21.45,-14.94 12.4,-6.68 22.8,-13.8 32.28,-23.24 0.89,-1.21 8.56,-9.52 13.25,-11.93 29.88,-15.38 55.74,-24.37 80.07,-53.71 0.96,-1.48 -0.21,-0.35 1.27,-1.99l15.07 -10.5c3.2,-1.57 1.31,1.34 17.12,-6.74 4.05,-2.07 5.49,-1.78 8.77,0.27 2.83,1.76 5.54,4.04 8.41,5.59 2.95,2.39 5.53,4.27 8.81,6.07 4.26,2.33 5.29,2.34 9.29,0.28 3.79,-0.76 10.33,-2.27 13.8,-3.25 4.63,-1.32 6.83,-4.4 11.87,-4.45l8.39 -3.19c10.82,-2.92 12.1,-9.71 24.69,-10.95 4.42,-0.43 20.72,-8.78 24.26,-11.1 7.24,-2.09 9.14,-5.52 15.96,-7.34 8.75,-8.28 27.15,-15.5 31.93,-20.33 4.25,-1.83 3.94,-1.98 7.27,-4.56 12.46,-6.07 54.71,-42.22 60.56,-46.01l7.5 -5.36c1.62,-1.49 4.75,2.66 5.55,4.3l16.79 12.52c1.16,1.69 2.4,3.34 3.86,4.66 1.23,1.52 1.2,1.12 2.51,2.88 8.79,11.83 19.56,18.48 32.05,29.49 12.02,10.61 22.74,16.04 32.99,27.78 0.07,0.09 29.64,20.06 36.22,26.44 1.95,1.89 2.69,1.94 4.73,3.81 5.32,4.9 7.64,5.79 9.17,8.94l18.12 14.9 14.81 9.62c2.41,1.8 4.84,3.56 7.04,5.71 2.33,2.28 3.19,3.53 6.51,4.58 0.21,0.18 0.5,0.43 0.65,0.56 0.14,0.12 0.46,0.4 0.64,0.54 12.89,10.59 33.83,30.25 48.72,36.5l3.32 -2.59c5.43,-1.97 9.32,-4.73 14.29,-6.87 5.58,-2.4 26.45,-12.81 30.02,-15.77 3.61,-2.99 9.42,-6.74 14.71,-9.87 3.64,1.17 0.94,0.32 4.25,1.81 3.68,1.66 0.84,1.07 4.75,1.74 2.02,3.97 16.69,10.67 21.63,14.22 5.07,2.6 1.33,0.73 3.8,2.82l32.26 20.86c4.27,4.2 5.75,2.92 11.68,0.84 5,-1.75 9.4,2.08 14.54,3.64l1.57 0.66c5.85,5.71 13.85,4.38 18.49,8.27 3.27,2.76 4.47,3.62 7.83,6.06 2.93,2.14 5.31,4.06 8.09,5.49 6.66,2.53 5.14,4.58 11.82,1.1 11.2,-5.84 7.7,-2.12 18.2,-10.58 0.17,-0.14 0.41,-0.34 0.58,-0.48l3.75 -2.71c1.65,-1.2 10.54,-6.1 11.07,-7 5.88,-2.16 11.07,-5.5 15.61,-8.91 4.33,-3.24 9.59,-6.71 13.66,-9.8 7.1,-1.01 11.28,4.6 18.86,6.46 6.31,-1.79 13.91,-5.51 17.03,-9.59l17.36 -10.57c7.56,-4.08 25.64,-18.16 27.54,-18.57 12.73,-9.52 29.35,-15.72 41.67,-25.07 8.86,-6.74 16.62,2.72 27.67,8.55 32.99,21.33 26.84,10.01 44.72,5.06 9.96,-2.76 9.12,12.07 22.1,4.29l238.31 146.3 0 0z"/>
 </g>
</svg>
