<?xml version="1.0" encoding="UTF-8"?>
<!DOCTYPE svg PUBLIC "-//W3C//DTD SVG 1.1//EN" "http://www.w3.org/Graphics/SVG/1.1/DTD/svg11.dtd">
<!-- Creator: CorelDRAW -->
<svg xmlns="http://www.w3.org/2000/svg" xml:space="preserve" width="1920px" height="1080px" version="1.1" style="shape-rendering:geometricPrecision; text-rendering:geometricPrecision; image-rendering:optimizeQuality; fill-rule:evenodd; clip-rule:evenodd"
viewBox="0 0 1920 1080"
 xmlns:xlink="http://www.w3.org/1999/xlink"
 xmlns:xodm="http://www.corel.com/coreldraw/odm/2003">
 <defs>
  <style type="text/css">
   <![CDATA[
    .fil0 {fill:#0B2842}
   ]]>
  </style>
 </defs>
 <g id="Layer_x0020_1">
  <metadata id="CorelCorpID_0Corel-Layer"/>
  <path class="fil0" d="M1920 752.82c-0.52,0.65 -1.23,2.16 -1.8,2.8 -9.17,-4.07 -8.42,-1.53 -9.85,-7.51 -5.85,17.77 -0.37,6.92 -13.58,10.89 -20.88,6.27 9.23,-10.16 -5.01,1.73l-3.42 5c-0.32,-0.93 -1.37,2.27 -2.21,3.29 -5.48,-2.71 -7.22,1.74 -10.25,-8.33 -5.5,19.59 -23.96,25.11 -42.2,20.7l-2.97 15.33c-15.08,-1.35 -5.97,1.6 -16.02,-4.39 -3.69,19.83 -13.71,23.89 -18.67,32.49 -0.3,0.52 -1.55,3.48 -1.78,2.78 -0.25,-0.75 -1.28,1.97 -2.02,2.88 -3.84,-6.96 -6.78,-16.65 -10.47,-23.61l-2.06 15.64c-13.11,0.83 -13.03,-1.4 -18.87,4.38 -3.49,3.45 -9.4,24.11 -19.64,25.44l-14.93 7.45c-0.34,-0.87 -1.76,1.32 -2.61,2 -4.86,-13.12 -7.18,-13 -10.28,-29.71l-10.36 20.71c-0.85,-0.93 -2.01,-2.14 -2.52,-2.81l-7.22 -13.01 -6.1 24.16c-14.44,-5.14 -6.86,11.36 -12.37,-15.65 -3.58,14.4 0.85,2.23 -8.18,12.47 -8.91,-3.09 -7.17,-0.97 -14.94,-5.55 -6.71,-3.96 -1.41,0.15 -6.25,-7.01 -1.33,18.25 -10.67,15.58 -18.85,32.29 -17.07,-13.69 -19.18,-0.74 -27.01,-25.3 -4.42,6.64 -6.7,7.06 -9.12,1.14 -5.1,10.33 -5.61,9.34 -15.22,13.96l-14.07 -17.71 -5.99 24.35c-14.44,-4.88 -6.85,11.51 -12.38,-12.79l-10.14 18.32 -8.52 -17.71c-4.19,9.37 -5.76,16.86 -14.26,20.22 -0.27,0.11 -1.39,-0.04 -1.63,0.02l-34.68 11.98c-29.11,12.53 15.45,-3.13 -9.06,4.44l-5.17 -6.93c-0.3,-0.3 -1.15,-1.17 -1.46,-1.43 -5.48,-4.68 8.1,3.34 -4.72,-2.44 -17.16,-7.76 14.92,6.11 -6.96,-2.56 -14.53,-5.76 -0.94,10.31 -3.93,-1.73 -0.22,-0.88 -1.44,-0.69 -2.08,-1.15l-9.75 17.69 -8.52 -16.52c-5.91,6.73 -3.55,3.84 -7.46,6.37 -6.25,4.04 -1.76,0.81 -1.9,0.18 -2.52,9.46 -1.3,13.32 -7.52,18.61 -17.85,15.18 -5.68,1.19 -10.39,-2.37 -13.5,-10.19 10.39,1.58 -2.18,-1.7l-26.54 5.72c-0.62,0.71 -1.56,1.68 -2.17,2.39 -0.61,0.71 -1.56,1.81 -2.1,2.47l-5.65 7.73c-9.54,-7.41 -15.58,-12.64 -19.25,-24.71 2.08,4.56 4.57,0.11 -3.68,17.11l-4.86 7.67c-0.92,-1.21 -1.93,-2.74 -2.6,-3.74 -0.63,-0.93 -1.71,-2.47 -2.41,-3.52l-6.71 -9.73c3.72,-10.63 -1.21,-0.84 -2.11,-1.17 -5.8,-2.12 -3.38,1.64 -3.79,-3.51 -3.19,15.29 -6.35,24.34 -16.45,34.52 -10.55,-6.57 -7.55,-6.44 -12.78,-17.69 -3.27,7.68 -2.13,6.35 -6.62,11.17 -7.48,8.05 -5.79,4.92 -12.1,9.29 -4.17,-5.87 -7.16,-9.72 -11.07,-18.89 3.27,4.31 4.68,0.85 -2.14,13.43 -10.57,-17.37 -13,-46.26 -18.69,-65.07l-15.4 42.1 -14.91 -49.94 -15.62 61.67 -10.83 -34.93 -7.71 24.99c-11.01,-17.28 -8.45,-47.82 -21.63,-65.2 -3.89,15.07 -7.82,38.47 -14.35,49.75l-10.65 -41.56 -15.38 49.7 -14.78 -44.66 -10.76 33.28 -13.67 -59.62 -9.65 22.47c-2.72,11.68 -2.99,12.92 -8,21.68 -2.92,-12.19 -6.32,-36.75 -13.06,-47.47 -10.5,14.84 -8.94,39.31 -19.23,58.9l-12.08 -34.82 -7.02 16.93c-12.03,-18.1 -4.47,-49.46 -21.29,-68.47 -3.23,4.38 -3.19,1.16 -7.18,12.42l-9.97 40.44c-4.16,-7.23 -3.06,-6.62 -5.54,-14.07l-8.49 -16.63c-3.12,9.08 -2.87,30.2 -13.19,35.6l-14.07 -58.18 -17.19 72.09c-9.06,-10.14 -3.08,-10.51 -13.97,-27.4l-11.7 41.81c-6.62,-14.68 -10.91,-40.59 -15.76,-58.21l-9.68 25.43 -22.09 -79.89 -18.87 81.28 -9.28 -26.54 -8.53 26.88 -23.1 -81.19 -8.6 40.56 -8.51 -21c-1.08,-5.19 -1.34,-9.68 -3.19,-14.68 -2.56,-6.89 -3.04,-4.93 -5.34,-7.98 -9.93,15.18 -12.91,44.33 -16.71,61.63l-6.32 -10.77c-0.4,-0.95 -0.65,-2.27 -1.02,-3.22 -2.98,-7.81 -0.91,-4.91 -4.72,-11.69 -2.96,15.93 -6.46,33.02 -12.16,44.92 -2.81,-11.52 -3.18,-40.72 -21.03,-36.72l-19.85 -76.26c-8.25,12.52 -9.08,29.6 -12.92,45.78 -5.59,-10.07 -4.17,-8.03 -7.43,-20.26l-10.02 -19.22 -7.07 22.62c-7.72,-11.74 -11.12,-35.39 -12.61,-52.91l-11.39 -1.95c-10.03,-7.91 -4.6,0.64 -7.72,-18.34l-5 15.35c-4.86,-5.19 -3.43,3.59 -8.4,-12.36l-11.36 16.7 -9.64 -33.67c-0.01,0.35 0.57,3.14 -0.74,7.31 -2.12,6.71 -3.01,6.25 -5.54,10.13 -12.82,-14.63 -9.63,-16.28 -9.7,-16.8 -2.73,15.96 -1.02,24.12 -12.43,18.77 -0.07,-0.07 -6.16,-1.79 -7.68,-7.72 -8.47,11.46 -7.72,28 -11.67,42.54l-3.7 9.77c-0.2,-0.59 -1.1,1.93 -3.03,3.23l-6.24 -23.25c-4.18,4.55 -2.96,-0.1 -7.9,11.13l-9.3 27.63c-3.17,-7.96 -3.21,-12.83 -5.55,-24.01 -4.71,-22.57 -8.93,-17.18 -13.82,-20.61l-8.12 35.55c-9.78,-20.95 -7.03,-23.91 -11.14,-37.3 -3.79,-12.37 -2.62,-6.22 -4.72,-9.66 -13.13,22.02 -9.65,45.17 -20.54,64.79l-11.11 -24.08 -14.38 53.53 -15.43 -45.25 -6.67 29.62c-12.49,-3.75 -8.53,4.19 -12.93,-17.68 -2.94,-14.56 -0.37,-11.35 -8.39,-21.3l-12.76 39.54c-12.12,-18.98 -4.97,-28.51 -17.2,-47.06l-7.7 34.07 -17.69 -60.64c-12.62,17.72 -17.9,57.61 -23.07,81.57l-9.96 -13.14 -9.04 16.52c-2.89,-11.29 -4.83,-22.2 -7.69,-35.55 -4.36,-20.4 -2.24,-18.19 -11.27,-29.77l-13.82 50.83 -12.22 -36.06 -7.36 29.29c-10.32,-15.81 -9.59,-33.46 -15.28,-52.23 -16.96,19.37 -2.38,19.87 -19.09,41.45l-2.47 -21.49c-12.45,1.29 -7.91,-2.84 -15.31,4.88 -2.74,-12.26 -5.11,-19.79 -7.73,-31.09 -9.07,-39.21 -4.89,-21.44 -13.65,-29.22l-10.42 27.72 -7.68 -29.9c-2.36,-6.51 -3.41,-6.23 -5.59,-9.29 -8.95,12.74 -5.76,12.76 -11.18,29.39 -6.03,-11.02 -8.85,-33.76 -13.32,-46.16 -3.94,4.61 -2.92,1.34 -6.45,9.08l-7.38 24.43c-7.41,-12.23 -4.47,-22.12 -10.8,-33.99 -4.05,-7.59 -2.74,-3.8 -6.65,-8.31l-9.53 35 -15.22 -49.14 -14.83 51.73 0 387.95 1920 0 0 -327.18z"/>
 </g>
</svg>
