<?xml version="1.0" encoding="UTF-8"?>
<!DOCTYPE svg PUBLIC "-//W3C//DTD SVG 1.1//EN" "http://www.w3.org/Graphics/SVG/1.1/DTD/svg11.dtd">
<!-- Creator: CorelDRAW -->
<svg xmlns="http://www.w3.org/2000/svg" xml:space="preserve" width="1920px" height="1080px" version="1.1" style="shape-rendering:geometricPrecision; text-rendering:geometricPrecision; image-rendering:optimizeQuality; fill-rule:evenodd; clip-rule:evenodd"
viewBox="0 0 1920 1080"
 xmlns:xlink="http://www.w3.org/1999/xlink"
 xmlns:xodm="http://www.corel.com/coreldraw/odm/2003">
 <defs>
  <style type="text/css">
   <![CDATA[
    .fil0 {fill:#2D74A1}
   ]]>
  </style>
 </defs>
 <g id="Layer_x0020_1">
  <metadata id="CorelCorpID_0Corel-Layer"/>
  <path class="fil0" d="M1268.22 578.33c2.83,1.69 0.21,2.08 10.08,-0.49 4.61,-1.2 5.76,-0.37 7.38,-0.49 7.27,-0.5 10.9,-0.56 17.18,4.11 3.55,2.65 10.19,4.61 14.91,5.11l14.6 3.35c0.55,-0.61 5.7,-1.18 6.25,-1.18 6.91,-0.01 2.55,4.5 17.79,5.42 6.37,0.38 11.07,6.73 16.11,10.72 3.7,2.69 8.82,2.05 13.45,3.36 0.33,1.13 0.95,2.06 4.25,3.11 41.37,13.19 29.52,10.58 41.72,20 9.57,7.38 30.27,18.84 36.3,24.59 9.76,9.3 10.96,7.44 24.85,9.37 29.74,4.15 438.38,408.7 426.66,414.69l-1919.75 0c1.18,0.63 383.73,-486.62 440.43,-522.09 3.76,2.88 3.97,3.34 9.05,4.79 1.72,3.11 2.78,2.64 5.91,3.43 4.11,2.69 6.66,0.97 11.31,1.1 1.68,0.94 2.54,1.47 4.21,2.41 1.64,0.92 2.34,0.72 3.88,2.49 4.44,2.28 8.98,0.34 14.74,0.37 6.82,0.04 7.65,3.56 12.76,3.33 10.28,-0.47 11.64,-8.53 25.05,-3.09 3.84,-0.02 7.25,-1.18 10.7,-2.16l22.24 -11.97c1.9,-1.44 1.48,-0.91 2.67,-3.02 2.71,-0.78 0.64,0.63 3.53,-1.74 9.54,-0.84 15.92,-0.35 24.15,-4.99 9.47,0.61 10.15,-4.69 15.2,-5.53 3.82,-0.64 3.09,1.86 17.29,0.22 10.93,-1.27 7.52,0.95 17.32,-3.56 19.04,-3.92 66.12,-25.02 80.01,-23.91 10.16,4.07 7.81,2.14 16,7.08l25.6 3.8c2.9,-3.46 5.21,-4.27 14.94,-1.6 4.71,1.29 10.8,5.45 16.82,4.27 0.38,-0.09 0.79,-0.19 1.27,-0.32 5.34,1.64 9.42,5.03 14.96,4.48 2.88,-0.87 3.58,-1.32 6.75,-0.92 6.31,0.79 4.32,2.29 10.69,0.17 23.57,-7.87 61.08,-2.97 83.34,-12.6 4.78,-2.07 8.91,-2.04 13.27,-3.92 10.58,-3.81 1.43,-2.05 11.71,-4.12 2.02,-0.4 2.85,-1.43 3.75,-2.35 7.69,-7.88 53.93,-28.91 61.96,-25.07 3.04,1.45 1.11,2.61 5.99,2.13 6.31,-0.63 10.23,-0.92 13.92,3.36 9.9,1.1 31.35,-3.73 37.02,-3.49 7.31,0.3 0.28,3.56 10.97,0.99 2.82,-0.68 2.9,-0.58 6,-0.17 5.23,0.82 2.54,1.01 5.76,-0.23 3.55,-1.36 2.54,-2.08 6.76,-0.21 6.65,3.1 10.33,5.76 16.36,8.69 13.67,6.63 13.97,12.14 22.64,16.47 6.47,3.24 27.76,19.13 33.83,24.11 2.57,2.11 6.95,4.13 10.65,3.8 6.63,-0.6 4.23,-5.54 15.36,-0.98 3.46,1.42 4.06,4.56 9.5,7.21 0.25,0.58 4.39,3.72 5.16,4.3 0.88,0.66 1.21,0.78 2.21,1.73 1.61,1.53 1.14,1.14 1.49,1.84 12.64,9.88 20.89,14.81 37.07,19.84 11.91,3.7 8.79,-5.63 26.02,3.96l0 0z"/>
 </g>
</svg>
