<?xml version="1.0" encoding="UTF-8"?>
<!DOCTYPE svg PUBLIC "-//W3C//DTD SVG 1.1//EN" "http://www.w3.org/Graphics/SVG/1.1/DTD/svg11.dtd">
<!-- Creator: CorelDRAW -->
<svg xmlns="http://www.w3.org/2000/svg" xml:space="preserve" width="1920px" height="1080px" version="1.1" style="shape-rendering:geometricPrecision; text-rendering:geometricPrecision; image-rendering:optimizeQuality; fill-rule:evenodd; clip-rule:evenodd"
viewBox="0 0 1920 1080"
 xmlns:xlink="http://www.w3.org/1999/xlink"
 xmlns:xodm="http://www.corel.com/coreldraw/odm/2003">
 <defs>
  <style type="text/css">
   <![CDATA[
    .fil0 {fill:#0D3151}
   ]]>
  </style>
 </defs>
 <g id="Layer_x0020_1">
  <metadata id="CorelCorpID_0Corel-Layer"/>
  <path class="fil0" d="M0 615.06l8.6 -21.48 6.08 20.78 9.51 -14.87 10.43 25.02 4.84 -19.01 6.84 18.33c11.2,-6.27 2.23,2.1 11.86,-11.02l6.45 15.71 8.25 -27.72 9.25 30.43c1.5,-0.07 2.63,-0.84 2.77,-0.23l11.71 8.81 9.81 -20.59 5.52 21.85c14.87,2.15 7.79,-0.33 18.74,5.04l6.62 -13.63c4.02,8.91 1.23,4.21 9.54,7.66l6.21 -30.2 9.16 25.82c8.08,-6.14 3.58,0.83 9.21,-12.15l7.5 26.88 8.35 -22.96 6.88 23.82 7.99 -15.25 7.46 12.66 8.37 -30.34 9.63 25.81c0.42,-2.5 0.37,-3.14 2.42,-7.25l7.46 -12.33c2.78,12.99 0.65,9.71 8.1,17.34l5.78 -15.06c6.35,13.42 3.58,4.68 7.76,9.35l4.68 -21.76c8.03,7.55 3.5,-0.96 11.68,13.82l4.75 -16.38 7.44 6.03c0.57,0.56 1.8,2.01 2.31,2.53 0.51,0.53 1.44,1.83 2.18,2.71l6.92 -29.16 8.41 22.67 7.08 -26.07c7.16,12.96 3.85,14.52 8.72,26.15 7.46,17.78 2.53,-4.01 14.66,20l8.41 -23.32 8.35 27.86c8.63,-3.95 10,-0.81 14.47,2.91l7.27 -14.63 7.71 17.78c4.17,1.54 -3.34,19.09 8.71,-3.63l5.33 15.61 7.79 -18.43 10.04 16.55 7.03 -21.34 8.48 23.01 8.28 -21.39 12.15 26c12.59,4.18 8.28,10.47 8.29,10.58l9.61 -17.42c0.54,-0.88 1.51,-2.25 2.3,-3.36l10.82 32.35 3.35 -13.09 7.8 27.96 5.06 -30.11c0.59,-0.32 9.88,19.74 10.81,19.19l5.21 -23.03 9.88 25.25 9.74 -24.34 7.98 25.45 7.85 -8.72 0.26 34.57 6.29 -17.18 4.68 11.32 6.51 -19.84 6.77 25.82 8.1 -17.97 5.04 22.7 6 -4.25 7.49 -37.5 10.13 25.71 5.72 -48.19 8.32 38.21 4.62 -22.96 6.77 24.66 10.04 -21.15 6.4 22.93 8.19 -18.81 8.25 20 7.48 -12.41c0.5,-0.76 1.59,-2.11 2.36,-3.19 0.89,0.95 2.6,1.08 2.8,2.74l12.48 -28.09 6.98 22.32c7.53,-4.38 6.96,-4.18 11.64,-11.89l6.33 16.48 8.55 -31.24 8.04 23.95 7.55 -22.61 9.36 22.85c1.74,-8.58 5.68,-11.47 12.28,-16.12l5.34 22.54 5.55 -15.79 11.23 20.45 4.62 -16.19 8.73 17.74 6.63 -22.48c3.92,7.8 6.54,23.06 10.97,23.16 0.23,0 3.28,-1.74 3.52,-1.85l11.28 26.85c0.6,-0.39 5.22,-5.1 5.3,-5.15 0.27,-0.19 1.4,-0.81 1.68,-0.99 8.74,-5.38 9.18,-16.39 12.08,-26.38 2.33,1.56 3.41,1.81 3.67,3.59 0.25,1.73 1.47,2.29 1.8,3.07 1.48,3.51 1.62,3.47 2.62,6.48 3.8,11.58 5.59,21.02 16.19,25.43l6.62 -25.16 24.06 38.19 6.48 -24.71c0.23,0.89 1.21,1.17 1.44,2.84 0.22,1.63 1.36,2.22 1.65,2.94 0.36,0.91 1.99,5.08 2.4,6.38 8.69,27.21 8.69,12.22 18.3,35.27l7.85 -23.88 7.77 29.79 6.79 -11.23 7.24 15.99 8.37 -27.75 8.54 24.23 8.4 -21.11 4.42 17.02 8.63 -14.23 18.82 39.16c0.56,0.47 1.9,1.74 2.38,2.16 0.53,0.46 1.72,1.63 2.57,2.46l6.31 -26.44 8.83 21.36 7.71 -18.67 7.34 26.07c1.44,-0.12 3.85,-0.82 10.93,-2.56l5.03 19.57c4.7,2.1 -1.17,9.44 5.89,-2.58 7.16,16.1 7.3,11.56 14.63,14.98 6.07,2.84 2.95,-0.09 8.65,4.5l9.15 -25.42 7.24 24.53 8.54 -14.84 3.67 13.6 11.67 -22.7 5.23 15.19c2.73,-1.82 3.86,-4.84 4.31,-3.99l7.03 -7.62c7.03,-7.53 10.04,-21.95 14.32,-37.6l7.01 26.22c5.98,-8.31 -1.19,7.99 5.36,-8.58 3.5,-8.86 -0.18,2.9 2.65,-10.99l7.21 18.03 8.36 -19.23 10.07 12.87 6.33 -30.46 8.48 24.06 8.01 -24.89 5.98 17.84 11.03 -25.44c2.06,8.17 2.38,26.3 11.05,24.16 0.41,-0.1 1.58,-0.98 2.01,-1.13l16.43 -31.31 8.51 18.24 6.64 -29.77 11.24 29.24c4.9,-20.4 2.57,-8.66 10.53,-13.53l5.23 30.66c9.66,-13.45 -0.71,-8.77 15.84,-2.8l5.67 -13.71c12.36,16.47 10.67,-2.23 14.17,-22.58l10.95 27.15 17.92 0.71 4.91 -17.69 8.3 16.94 6.44 -16.32 6.35 15.16c4.76,-14.87 5.39,-35.1 16.36,-46.88 1.88,12.62 4.65,24.94 9.59,33.39 -1.46,-17.1 4.58,-13.66 6.34,-15.99l5.45 26.74 6.96 -22.79c0.01,0.93 1.21,1.29 1.58,3.37l7.84 12.92 7.39 -35.39 10.57 37.28c7.05,-16.42 2.19,-5.07 11.41,-10.57l6.62 35.76 8.76 -15.54 7.52 18.77c1.56,-0.9 -0.97,-5.56 14.82,2.24l10.19 -18.79 4.52 21.03c7.97,-2.57 8.39,-7.53 17.52,-2.83l8.17 -34.71 7.9 28.95 9.69 -5.92 7.33 23.33 8.68 -15.98c-1.32,-0.59 2.73,7.08 3.47,7.91 8.49,9.67 -2.87,2.87 3.57,1.73l8.23 -22.96 6.69 12.68 9.15 -30.06 11.67 25.71 5.36 -15.87 9.23 23.01 7.28 -15.95 8.66 20.6 8.81 -21.7 4.54 12.31 8.82 -19.51c1.55,1.22 2.65,1.48 2.94,3.09 0.27,1.55 1.58,2.2 1.93,2.76 0.01,0.04 4.25,7.37 4.53,7.87l7.44 -17.89 7.71 25.93c5.33,-4.92 -1.1,0.24 4.29,-5.33 0.35,-0.35 1.32,-1.51 1.71,-1.88 0.36,-0.34 1.38,-1.24 1.76,-1.57 0.33,-0.29 1.4,-0.94 1.73,-1.21l8.66 -10.85 6.44 17.75 9.4 -42.72c9.71,-3.64 -2.63,-10.47 6.73,-0.23 6.85,7.5 0.86,3.79 0.63,5.55l14.2 -20.4c0.34,0.04 2.14,0.41 2.47,0.45 4.24,0.36 -0.27,12.48 1.57,-0.63 3.95,-13.41 18.38,-23.28 31.05,-30.9l14.9 -12.14c14.67,-16.34 26.11,-14.45 39.95,-36.93 7.05,-11.45 -0.78,-5.24 7.93,-9.71 5.86,-3 5.78,-0.67 11.11,3.81 5.61,-14.08 8.13,-13.33 17.28,-19.62 1.55,-1.06 2.78,-1.97 3.77,-2.75l0 466.82 -1920 0 0 -464.94z"/>
 </g>
</svg>
