<?xml version="1.0" encoding="UTF-8"?>
<!DOCTYPE svg PUBLIC "-//W3C//DTD SVG 1.1//EN" "http://www.w3.org/Graphics/SVG/1.1/DTD/svg11.dtd">
<!-- Creator: CorelDRAW -->
<svg xmlns="http://www.w3.org/2000/svg" xml:space="preserve" width="1920px" height="1080px" version="1.1" style="shape-rendering:geometricPrecision; text-rendering:geometricPrecision; image-rendering:optimizeQuality; fill-rule:evenodd; clip-rule:evenodd"
viewBox="0 0 1920 1080"
 xmlns:xlink="http://www.w3.org/1999/xlink"
 xmlns:xodm="http://www.corel.com/coreldraw/odm/2003">
 <defs>
  <style type="text/css">
   <![CDATA[
    .fil3 {fill:#D57528;fill-rule:nonzero}
    .fil2 {fill:#E48225;fill-rule:nonzero}
    .fil1 {fill:#F79220;fill-rule:nonzero}
    .fil0 {fill:#FBAC43;fill-rule:nonzero}
   ]]>
  </style>
 </defs>
 <g id="Layer_x0020_1">
  <metadata id="CorelCorpID_0Corel-Layer"/>
  <g id="_2437968368592">
   <circle class="fil0" cx="1310.49" cy="312.65" r="75.72"/>
   <g>
    <path class="fil1" d="M1351.28 248.87c7.55,11.78 11.94,25.77 11.94,40.79 0,41.81 -33.91,75.72 -75.72,75.72 -15.02,0 -29.02,-4.39 -40.79,-11.94 13.46,21 36.98,34.93 63.78,34.93 41.81,0 75.72,-33.91 75.72,-75.72 0,-26.79 -13.93,-50.32 -34.93,-63.78l0 0z"/>
    <circle class="fil1" cx="1287.44" cy="315.94" r="16.46"/>
   </g>
   <path class="fil2" d="M1287.44 302.77c8.53,0 15.46,6.51 16.3,14.82 0.05,-0.55 0.16,-1.09 0.16,-1.65 0,-9.09 -7.37,-16.46 -16.46,-16.46 -9.09,0 -16.46,7.37 -16.46,16.46 0,0.56 0.11,1.1 0.16,1.65 0.84,-8.31 7.77,-14.82 16.3,-14.82z"/>
   <circle class="fil1" cx="1340.11" cy="299.48" r="9.88"/>
   <circle class="fil2" cx="1330.24" cy="368.62" r="9.88"/>
   <path class="fil3" d="M1330.24 362.03c4.89,0 8.92,3.56 9.71,8.23 0.09,-0.54 0.17,-1.08 0.17,-1.64 0,-5.45 -4.43,-9.88 -9.88,-9.88 -5.45,0 -9.88,4.43 -9.88,9.88 0,0.56 0.08,1.1 0.17,1.64 0.78,-4.67 4.82,-8.23 9.71,-8.23z"/>
   <circle class="fil1" cx="1349.99" cy="332.4" r="9.88"/>
   <g>
    <path class="fil2" d="M1349.99 325.82c4.89,0 8.93,3.56 9.71,8.23 0.09,-0.54 0.17,-1.08 0.17,-1.65 0,-5.45 -4.43,-9.87 -9.88,-9.87 -5.45,0 -9.87,4.42 -9.87,9.87 0,0.57 0.07,1.11 0.16,1.65 0.79,-4.67 4.82,-8.23 9.71,-8.23z"/>
    <path class="fil2" d="M1340.12 292.9c4.88,0 8.92,3.56 9.7,8.23 0.1,-0.54 0.17,-1.09 0.17,-1.65 0,-5.46 -4.42,-9.88 -9.87,-9.88 -5.46,0 -9.88,4.42 -9.88,9.88 0,0.56 0.07,1.11 0.17,1.65 0.78,-4.67 4.82,-8.23 9.71,-8.23l0 0z"/>
    <circle class="fil2" cx="1376.33" cy="309.36" r="6.58"/>
   </g>
   <path class="fil3" d="M1376.33 306.06c3.06,0 5.62,2.11 6.35,4.94 0.14,-0.53 0.23,-1.07 0.23,-1.64 0,-3.64 -2.95,-6.59 -6.58,-6.59 -3.64,0 -6.59,2.95 -6.59,6.59 0,0.57 0.1,1.11 0.23,1.64 0.74,-2.83 3.29,-4.94 6.36,-4.94l0 0z"/>
   <circle class="fil1" cx="1301.3" cy="275.8" r="9.75"/>
   <path class="fil2" d="M1301.3 270.93c4.54,0 8.32,3.11 9.41,7.31 0.2,-0.79 0.34,-1.59 0.34,-2.44 0,-5.38 -4.37,-9.75 -9.75,-9.75 -5.38,0 -9.75,4.37 -9.75,9.75 0,0.85 0.14,1.65 0.35,2.44 1.08,-4.2 4.86,-7.31 9.4,-7.31z"/>
  </g>
 </g>
</svg>
