<?xml version="1.0" encoding="UTF-8"?>
<!DOCTYPE svg PUBLIC "-//W3C//DTD SVG 1.1//EN" "http://www.w3.org/Graphics/SVG/1.1/DTD/svg11.dtd">
<!-- Creator: CorelDRAW -->
<svg xmlns="http://www.w3.org/2000/svg" xml:space="preserve" width="1080px" height="135px" version="1.1" style="shape-rendering:geometricPrecision; text-rendering:geometricPrecision; image-rendering:optimizeQuality; fill-rule:evenodd; clip-rule:evenodd"
viewBox="0 0 1080 135"
 xmlns:xlink="http://www.w3.org/1999/xlink"
 xmlns:xodm="http://www.corel.com/coreldraw/odm/2003">
 <defs>
  <style type="text/css">
   <![CDATA[
    .fil0 {fill:#ffffff}
   ]]>
  </style>
 </defs>
 <g id="Layer_x0020_1">
  <metadata id="CorelCorpID_0Corel-Layer"/>
  <path class="fil0" d="M393.11 70.42c4.16,5.98 12.08,10.03 21.16,10.03 7.65,0 14.47,-2.87 18.92,-7.34 5.57,10.76 18.21,18.28 32.9,18.28 15.33,0 28.42,-8.18 33.59,-19.68 4.07,15.97 17.8,27.72 34.12,27.72 10.62,0 20.15,-4.98 26.63,-12.85 4.32,9.17 12.56,15.36 22.01,15.36 7.03,0 13.38,-3.43 17.96,-8.95 8.84,16.22 26.41,27.29 46.65,27.29 26.25,0 48.01,-18.6 52.05,-42.95 3.51,3.71 8.16,5.97 13.26,5.97 10.92,0 19.78,-10.35 19.78,-23.12 0,-1.06 -0.07,-2.1 -0.19,-3.13 2.78,0.53 5.76,0.82 8.87,0.82 7.91,0 15.02,-1.87 19.9,-4.83l0.35 0c1.39,9.53 10.88,16.91 22.38,16.91 8.55,0 16,-4.09 19.82,-10.11 3.12,22.05 23.2,39.06 47.51,39.06 26.4,0 47.82,-20.08 47.93,-44.88 4.37,11.49 13.93,19.46 25.03,19.46 5.1,0 9.87,-1.68 13.97,-4.62 1.09,21.88 19.7,39.28 42.49,39.28 11.4,0 21.75,-4.35 29.39,-11.44 8.27,18.42 25.5,31.09 45.42,31.09 9.09,0 17.62,-2.64 24.99,-7.26l0 -120.03 -1080 0 0 53.19c3.02,1.15 6.34,1.8 9.82,1.8 3.18,0 6.22,-0.54 9.02,-1.51 4.72,12.34 16.81,21.12 30.98,21.12 2.86,0 5.64,-0.36 8.3,-1.04 9.02,27.6 35.85,47.63 67.55,47.63 29.84,0 55.37,-17.75 65.78,-42.86 8.56,8.64 20.46,14.01 33.63,14.01 25.35,0 46.03,-19.89 47.1,-44.82 3.55,2.65 8.03,4.23 12.89,4.23 5.18,0 9.91,-1.79 13.57,-4.75 2.2,10.34 10.85,18.05 21.18,18.05 4.21,0 8.14,-1.28 11.47,-3.5 5.33,12.97 18.26,22.12 33.36,22.12 11.58,0 21.88,-5.39 28.46,-13.75z"/>
 </g>
</svg>
