<?xml version="1.0" encoding="UTF-8"?>
<!DOCTYPE svg PUBLIC "-//W3C//DTD SVG 1.1//EN" "http://www.w3.org/Graphics/SVG/1.1/DTD/svg11.dtd">
<!-- Creator: CorelDRAW -->
<svg xmlns="http://www.w3.org/2000/svg" xml:space="preserve" width="1080px" height="60px" version="1.1" style="shape-rendering:geometricPrecision; text-rendering:geometricPrecision; image-rendering:optimizeQuality; fill-rule:evenodd; clip-rule:evenodd"
viewBox="0 0 1080 60"
 xmlns:xlink="http://www.w3.org/1999/xlink"
 xmlns:xodm="http://www.corel.com/coreldraw/odm/2003">
 <defs>
  <style type="text/css">
   <![CDATA[
    .fil0 {fill:#ffffff}
   ]]>
  </style>
 </defs>
 <g id="Layer_x0020_1">
  <metadata id="CorelCorpID_0Corel-Layer"/>
  <path class="fil0" d="M840.08 24.42c1.46,2.09 4.22,3.5 7.39,3.5 2.67,0 5.06,-1 6.61,-2.56 1.95,3.76 6.36,6.39 11.49,6.39 5.36,0 9.93,-2.86 11.73,-6.88 1.43,5.58 6.22,9.68 11.92,9.68 3.71,0 7.04,-1.73 9.3,-4.48 1.51,3.2 4.39,5.36 7.69,5.36 2.46,0 4.68,-1.19 6.27,-3.13 3.09,5.67 9.23,9.54 16.3,9.54 9.17,0 16.77,-6.5 18.18,-15 1.23,1.29 2.85,2.08 4.63,2.08 3.82,0 6.91,-3.61 6.91,-8.07 0,-0.37 -0.02,-0.74 -0.07,-1.1 0.97,0.19 2.02,0.29 3.1,0.29 2.77,0 5.25,-0.65 6.95,-1.69l0.13 0c0.48,3.33 3.79,5.91 7.81,5.91 2.99,0 5.59,-1.43 6.92,-3.53 1.1,7.7 8.11,13.64 16.6,13.64 9.22,0 16.7,-7.01 16.74,-15.68 1.53,4.02 4.87,6.8 8.74,6.8 1.78,0 3.45,-0.59 4.88,-1.61 0.38,7.64 6.88,13.72 14.84,13.72 3.98,0 7.6,-1.52 10.27,-4 2.89,6.43 8.9,10.86 15.86,10.86 3.18,0 6.16,-0.92 8.73,-2.53l0 -41.93 -377.22 0 0 0 -377.22 0 -0.01 0 -325.55 0 0 41.13c6.94,-2.21 12.51,-7.29 15.21,-13.77 2.98,3.02 7.14,4.89 11.74,4.89 8.86,0 16.08,-6.94 16.45,-15.65 1.24,0.92 2.81,1.48 4.5,1.48 1.81,0 3.47,-0.63 4.74,-1.67 0.77,3.62 3.79,6.31 7.4,6.31 1.47,0 2.84,-0.45 4.01,-1.22 1.86,4.53 6.37,7.72 11.65,7.72 4.04,0 7.64,-1.88 9.94,-4.8 1.45,2.09 4.22,3.5 7.39,3.5 2.67,0 5.05,-1 6.61,-2.56 1.94,3.76 6.36,6.39 11.49,6.39 5.36,0 9.92,-2.86 11.73,-6.88 1.42,5.58 6.22,9.68 11.92,9.68 3.71,0 7.04,-1.73 9.3,-4.48 1.51,3.2 4.39,5.36 7.69,5.36 2.45,0 4.67,-1.19 6.27,-3.13 3.09,5.67 9.23,9.54 16.3,9.54 9.16,0 16.77,-6.5 18.18,-15 1.22,1.29 2.85,2.08 4.63,2.08 3.81,0 6.9,-3.61 6.9,-8.07 0,-0.37 -0.02,-0.74 -0.06,-1.1 0.97,0.19 2.01,0.29 3.1,0.29 2.76,0 5.24,-0.65 6.95,-1.69l0.12 0c0.49,3.33 3.8,5.91 7.82,5.91 2.99,0 5.59,-1.43 6.92,-3.53 1.09,7.7 8.11,13.64 16.59,13.64 9.23,0 16.71,-7.01 16.75,-15.68 1.52,4.02 4.86,6.8 8.74,6.8 1.78,0 3.45,-0.59 4.88,-1.61 0.38,7.64 6.88,13.72 14.84,13.72 3.98,0 7.6,-1.52 10.27,-4 2.88,6.43 8.9,10.86 15.86,10.86 3.17,0 6.15,-0.92 8.73,-2.53 2.57,1.61 5.55,2.53 8.72,2.53 6.96,0 12.98,-4.43 15.87,-10.86 2.66,2.48 6.28,4 10.26,4 7.96,0 14.46,-6.08 14.84,-13.72 1.43,1.02 3.1,1.61 4.88,1.61 3.88,0 7.22,-2.78 8.75,-6.8 0.03,8.67 7.51,15.68 16.74,15.68 8.49,0 15.5,-5.94 16.59,-13.64 1.34,2.1 3.94,3.53 6.93,3.53 4.01,0 7.32,-2.58 7.81,-5.91l0.12 0c1.71,1.04 4.19,1.69 6.95,1.69 1.09,0 2.13,-0.1 3.1,-0.29 -0.04,0.36 -0.06,0.73 -0.06,1.1 0,4.46 3.09,8.07 6.9,8.07 1.79,0 3.41,-0.79 4.63,-2.09 1.42,8.51 9.02,15.01 18.19,15.01 7.07,0 13.2,-3.87 16.29,-9.54 1.6,1.93 3.82,3.13 6.27,3.13 3.31,0 6.18,-2.16 7.69,-5.36 2.27,2.75 5.59,4.48 9.3,4.48 5.7,0 10.5,-4.1 11.92,-9.68 1.81,4.02 6.38,6.87 11.73,6.87 5.14,0 9.55,-2.62 11.5,-6.38 1.55,1.56 3.93,2.56 6.6,2.56 3.17,0 5.94,-1.41 7.39,-3.5 2.3,2.92 5.9,4.8 9.95,4.8 5.27,0 9.78,-3.19 11.65,-7.72 1.16,0.77 2.53,1.22 4,1.22 3.61,0 6.63,-2.69 7.4,-6.31 1.28,1.04 2.93,1.67 4.74,1.67 1.7,0 3.26,-0.56 4.5,-1.48 0.37,8.71 7.6,15.65 16.45,15.65 4.6,0 8.76,-1.87 11.75,-4.89 3.64,8.77 12.55,14.97 22.98,14.97 11.07,0 20.44,-6.99 23.59,-16.64 0.93,0.24 1.9,0.37 2.9,0.37 4.95,0 9.17,-3.07 10.82,-7.38 0.98,0.34 2.04,0.53 3.15,0.53 1.22,0 2.38,-0.23 3.43,-0.63 1.05,0.4 2.21,0.63 3.42,0.63 1.12,0 2.18,-0.19 3.16,-0.53 1.64,4.31 5.87,7.38 10.81,7.38 1.01,0 1.98,-0.13 2.9,-0.37 3.16,9.65 12.53,16.64 23.6,16.64 10.42,0 19.34,-6.2 22.98,-14.97 2.99,3.02 7.14,4.89 11.74,4.89 8.86,0 16.08,-6.94 16.45,-15.65 1.24,0.92 2.81,1.48 4.51,1.48 1.81,0 3.46,-0.63 4.73,-1.67 0.77,3.62 3.79,6.31 7.4,6.31 1.47,0 2.85,-0.45 4.01,-1.22 1.86,4.53 6.38,7.72 11.65,7.72 4.04,0 7.64,-1.88 9.94,-4.8z"/>
 </g>
</svg>
