<?xml version="1.0" encoding="UTF-8"?>
<!DOCTYPE svg PUBLIC "-//W3C//DTD SVG 1.1//EN" "http://www.w3.org/Graphics/SVG/1.1/DTD/svg11.dtd">
<!-- Creator: CorelDRAW -->
<svg xmlns="http://www.w3.org/2000/svg" xml:space="preserve" width="1080px" height="50px" version="1.1" style="shape-rendering:geometricPrecision; text-rendering:geometricPrecision; image-rendering:optimizeQuality; fill-rule:evenodd; clip-rule:evenodd"
viewBox="0 0 1080 50"
 xmlns:xlink="http://www.w3.org/1999/xlink"
 xmlns:xodm="http://www.corel.com/coreldraw/odm/2003">
 <defs>
  <style type="text/css">
   <![CDATA[
    .fil0 {fill:#ffffff}
   ]]>
  </style>
 </defs>
 <g id="Layer_x0020_1">
  <metadata id="CorelCorpID_0Corel-Layer"/>
  <path class="fil0" d="M237.14 25.58c-1.47,-2.09 -4.26,-3.51 -7.46,-3.51 -2.7,0 -5.1,1.01 -6.67,2.57 -1.96,-3.76 -6.42,-6.39 -11.6,-6.39 -5.4,0 -10.01,2.86 -11.84,6.88 -1.43,-5.58 -6.27,-9.68 -12.03,-9.68 -3.74,0 -7.1,1.73 -9.38,4.48 -1.53,-3.2 -4.43,-5.36 -7.76,-5.36 -2.48,0 -4.72,1.19 -6.33,3.13 -3.12,-5.67 -9.31,-9.54 -16.45,-9.54 -9.25,0 -16.92,6.5 -18.35,15 -1.23,-1.29 -2.87,-2.08 -4.67,-2.08 -3.85,0 -6.97,3.61 -6.97,8.07 0,0.37 0.02,0.74 0.06,1.1 -0.98,-0.19 -2.03,-0.29 -3.13,-0.29 -2.78,0 -5.29,0.65 -7.01,1.69l-0.12 0c-0.49,-3.33 -3.84,-5.91 -7.89,-5.91 -3.02,0 -5.64,1.43 -6.99,3.53 -1.1,-7.7 -8.18,-13.64 -16.75,-13.64 -9.3,0 -16.86,7.01 -16.89,15.68 -1.54,-4.02 -4.92,-6.8 -8.83,-6.8 -1.79,0 -3.48,0.58 -4.92,1.61 -0.39,-7.64 -6.95,-13.72 -14.98,-13.72 -4.02,0 -7.67,1.52 -10.36,4 -2.92,-6.43 -8.99,-10.86 -16.01,-10.86 -3.21,0 -6.21,0.92 -8.81,2.53l0 41.93 380.71 0 0.01 0 380.71 0 0 0 328.57 0 0 -41.13c-7,2.21 -12.63,7.29 -15.34,13.77 -3.02,-3.02 -7.21,-4.89 -11.85,-4.89 -8.94,0 -16.23,6.94 -16.61,15.65 -1.25,-0.92 -2.83,-1.48 -4.55,-1.48 -1.82,0 -3.49,0.63 -4.78,1.66 -0.77,-3.61 -3.82,-6.3 -7.46,-6.3 -1.49,0 -2.87,0.45 -4.05,1.22 -1.88,-4.53 -6.43,-7.72 -11.76,-7.72 -4.08,0 -7.71,1.88 -10.03,4.8 -1.47,-2.09 -4.26,-3.51 -7.46,-3.51 -2.7,0 -5.1,1.01 -6.67,2.57 -1.96,-3.76 -6.42,-6.39 -11.6,-6.39 -5.4,0 -10.01,2.86 -11.84,6.88 -1.43,-5.58 -6.27,-9.68 -12.02,-9.68 -3.75,0 -7.11,1.73 -9.39,4.48 -1.53,-3.2 -4.43,-5.36 -7.76,-5.36 -2.48,0 -4.72,1.19 -6.33,3.13 -3.12,-5.67 -9.31,-9.54 -16.45,-9.54 -9.25,0 -16.92,6.5 -18.35,15 -1.23,-1.29 -2.87,-2.08 -4.67,-2.08 -3.85,0 -6.97,3.61 -6.97,8.07 0,0.37 0.02,0.74 0.06,1.1 -0.97,-0.19 -2.03,-0.29 -3.13,-0.29 -2.78,0 -5.29,0.65 -7.01,1.69l-0.12 0c-0.49,-3.33 -3.84,-5.91 -7.89,-5.91 -3.02,0 -5.64,1.43 -6.99,3.53 -1.1,-7.7 -8.18,-13.64 -16.74,-13.64 -9.31,0 -16.86,7.01 -16.9,15.68 -1.54,-4.02 -4.91,-6.8 -8.83,-6.8 -1.79,0 -3.48,0.58 -4.92,1.61 -0.39,-7.64 -6.95,-13.72 -14.98,-13.72 -4.02,0 -7.67,1.52 -10.36,4 -2.92,-6.43 -8.99,-10.86 -16.01,-10.86 -3.21,0 -6.21,0.92 -8.81,2.53 -2.6,-1.61 -5.6,-2.53 -8.81,-2.53 -7.02,0 -13.09,4.43 -16.01,10.86 -2.69,-2.48 -6.34,-4 -10.36,-4 -8.03,0 -14.59,6.08 -14.98,13.72 -1.44,-1.02 -3.12,-1.61 -4.92,-1.61 -3.91,0 -7.28,2.78 -8.83,6.8 -0.03,-8.67 -7.58,-15.68 -16.89,-15.68 -8.57,0 -15.65,5.94 -16.75,13.64 -1.35,-2.1 -3.97,-3.53 -6.99,-3.53 -4.05,0 -7.39,2.58 -7.88,5.91l-0.13 0c-1.72,-1.04 -4.22,-1.69 -7.01,-1.69 -1.1,0 -2.15,0.1 -3.13,0.29 0.04,-0.36 0.06,-0.73 0.06,-1.1 0,-4.46 -3.12,-8.07 -6.97,-8.07 -1.79,0 -3.43,0.79 -4.67,2.09 -1.43,-8.51 -9.1,-15.01 -18.35,-15.01 -7.14,0 -13.33,3.87 -16.45,9.54 -1.61,-1.93 -3.85,-3.13 -6.33,-3.13 -3.33,0 -6.23,2.16 -7.75,5.36 -2.29,-2.75 -5.65,-4.48 -9.39,-4.48 -5.75,0 -10.6,4.1 -12.03,9.68 -1.82,-4.02 -6.44,-6.87 -11.84,-6.87 -5.18,0 -9.64,2.62 -11.6,6.38 -1.57,-1.56 -3.97,-2.56 -6.67,-2.56 -3.2,0 -5.99,1.41 -7.46,3.5 -2.32,-2.92 -5.95,-4.8 -10.03,-4.8 -5.32,0 -9.88,3.19 -11.76,7.72 -1.17,-0.77 -2.56,-1.22 -4.04,-1.22 -3.64,0 -6.69,2.69 -7.47,6.3 -1.29,-1.03 -2.96,-1.66 -4.78,-1.66 -1.72,0 -3.29,0.56 -4.55,1.48 -0.37,-8.71 -7.66,-15.65 -16.6,-15.65 -4.64,0 -8.84,1.87 -11.86,4.89 -3.67,-8.77 -12.67,-14.97 -23.19,-14.97 -11.17,0 -20.63,6.99 -23.81,16.63 -0.93,-0.23 -1.92,-0.36 -2.93,-0.36 -4.99,0 -9.25,3.07 -10.92,7.38 -0.98,-0.34 -2.05,-0.53 -3.18,-0.53 -1.22,0 -2.39,0.23 -3.45,0.63 -1.07,-0.4 -2.24,-0.63 -3.46,-0.63 -1.12,0 -2.19,0.19 -3.18,0.53 -1.67,-4.31 -5.93,-7.38 -10.92,-7.38 -1.01,0 -1.99,0.13 -2.93,0.37 -3.18,-9.65 -12.64,-16.64 -23.81,-16.64 -10.52,0 -19.52,6.2 -23.19,14.97 -3.02,-3.02 -7.21,-4.89 -11.86,-4.89 -8.94,0 -16.22,6.94 -16.6,15.65 -1.25,-0.92 -2.83,-1.48 -4.55,-1.48 -1.82,0 -3.49,0.63 -4.78,1.66 -0.77,-3.61 -3.82,-6.3 -7.47,-6.3 -1.48,0 -2.86,0.45 -4.04,1.22 -1.88,-4.53 -6.43,-7.72 -11.76,-7.72 -4.08,0 -7.71,1.88 -10.03,4.8z"/>
 </g>
</svg>
