<?xml version="1.0" encoding="UTF-8"?>
<!DOCTYPE svg PUBLIC "-//W3C//DTD SVG 1.1//EN" "http://www.w3.org/Graphics/SVG/1.1/DTD/svg11.dtd">
<!-- Creator: CorelDRAW -->
<svg xmlns="http://www.w3.org/2000/svg" xml:space="preserve" width="2000px" height="1000px" version="1.1" style="shape-rendering:geometricPrecision; text-rendering:geometricPrecision; image-rendering:optimizeQuality; fill-rule:evenodd; clip-rule:evenodd"
viewBox="0 0 2000 1000"
 xmlns:xlink="http://www.w3.org/1999/xlink"
 xmlns:xodm="http://www.corel.com/coreldraw/odm/2003">
 <defs>
  <style type="text/css">
   <![CDATA[
    .fil0 {fill:#FEFEFE}
    .fil1 {fill:#0869A8;fill-rule:nonzero}
   ]]>
  </style>
 </defs>
 <g id="Layer_x0020_1">
  <metadata id="CorelCorpID_0Corel-Layer"/>
  <g id="_2770385267440">
   <path class="fil0" d="M384.72 476.69c-20.02,14.43 -43.6,21.65 -70.72,21.65 -12.87,0 -25.19,-1.46 -36.99,-4.36 -12.2,-3.01 -23.52,-7.63 -33.92,-13.85l-1.39 -0.92c-9.03,-5.95 -16.53,-12.51 -22.45,-19.65 -6.74,-8.12 -11.71,-17.1 -14.9,-26.92 -4.59,-14.1 -6.89,-28.02 -6.89,-41.74 0,-3.29 0.25,-7.72 0.76,-13.33 0.79,-8.71 1.9,-16.69 3.3,-23.91 1.58,-8.08 3.52,-15.94 5.82,-23.53l0.61 -1.69c3.96,-11.16 10.86,-19.77 20.68,-25.82 7.85,-4.82 16.96,-7.37 27.33,-7.63l0.92 -0.15c6.07,0 12.25,0.83 18.53,2.46l0.15 0c6.38,1.68 12.27,4.1 17.67,7.25 14.16,8.27 22.73,19.19 25.73,32.75 4.28,-1 8.86,-1.6 13.75,-1.8l1.54 -0.16 34.38 0c1.06,-2.67 2.37,-5.27 3.92,-7.8 4.63,-7.56 10.99,-13.58 19.08,-18.07l2.77 -1.38c7.07,-3.22 14.26,-4.83 21.54,-4.83 3.96,0 7.8,0.42 11.5,1.27 8.29,-6.46 19.78,-9.69 34.47,-9.69 3.59,0 7.27,0.4 10.98,1.2 2.86,0.63 5.87,1.61 8.99,2.94l0.04 -0.08 2.14 0.93c3.09,-2.13 6.53,-3.93 10.34,-5.41 7.47,-2.9 14.39,-4.36 20.76,-4.36 4.05,0 8.3,0.6 12.73,1.79 2.84,-3.25 6.15,-6.09 9.91,-8.53 3.77,-2.45 7.43,-4.36 10.91,-5.74 5.87,-2.29 11.66,-3.45 17.42,-3.45 2.14,0 4.26,0.14 6.34,0.42l0 -8.12 0.31 -4.62c1.02,-8.51 3.67,-16.06 7.91,-22.63 6.21,-9.64 14.8,-16.15 25.75,-19.45l0.03 0.1c3.26,-0.98 6.06,-1.69 8.38,-2.13 3.38,-0.63 6.42,-1.01 9.13,-1.11 -0.81,-3.53 -1.22,-6.95 -1.22,-10.24 0,-5.52 0.98,-11.04 2.93,-16.55 1.46,-4.11 3.68,-8.34 6.65,-12.67l4.16 -5.23 53.25 -54.84c4.25,-4.45 8.81,-8.01 13.69,-10.65 7.29,-3.92 14.92,-5.91 22.89,-5.91l4.78 0.31 1.82 0.23 5.54 1.08c6.26,1.7 11.95,4.43 17.05,8.18l1.82 1.44c3.97,-3.03 8.2,-5.49 12.7,-7.36l-0.02 -0.06c6.48,-2.7 13.09,-4.04 19.8,-4.04 3.34,0.27 6.5,0.58 9.82,1 10.52,2.05 19.38,6.48 26.54,13.28 9.75,9.28 14.65,20.7 14.65,34.22 0,7 -1.72,13.95 -5.17,20.85 -2.36,4.69 -5.37,9.01 -9.02,12.91l-1.08 1.08c-78.21,76.77 -29.15,23.84 -0.01,23.84l1.69 0.15c6.63,0.31 12.85,1.77 18.66,4.38l0.16 0c6.06,2.73 11.44,6.59 16.12,11.61 9.12,9.81 13.69,21.42 13.69,34.86l-0.15 1.08c-0.16,5.67 -0.26,12.95 -0.3,21.83 6.8,-3.61 14.22,-5.42 22.26,-5.42l3.64 0c4.25,0 8.88,0.56 13.87,1.67 4.48,1.01 8.8,2.45 12.96,4.33l0.03 -0.07c6.06,2.76 11.26,6.32 15.58,10.62l0.15 0c16.77,16.77 36.61,20.93 54.62,0.42 3.98,-4.55 7.94,-8.18 11.82,-10.88l0.07 0.1c6.7,-4.66 13.73,-7.52 21.1,-8.57 4.8,-0.69 8.28,-1.03 10.43,-1.03 1.62,0 3.22,0.08 4.79,0.23l1.67 -7.8 -0.11 -0.03c2.13,-9.75 3.67,-17.24 4.63,-22.43l0.61 -2.62c2.93,-11.36 8.78,-20.35 17.56,-26.99 8.59,-6.51 18.52,-9.77 29.79,-9.77l1.07 0.15c6.7,0.21 13.17,1.44 19.39,3.68 6.07,2.18 11.72,5.25 16.96,9.18 6.6,4.95 11.74,10.63 15.4,17.03l0 0.15c4.54,7.96 6.83,16.41 6.83,25.37l0 1.82 -0.77 7.39 -0.69 3.41c2.22,-0.25 4.52,-0.36 6.89,-0.36 7.45,0 14.58,1.71 21.42,5.12l0 0.15c2.16,1.09 4.23,2.28 6.18,3.59 1.95,-3.73 4.38,-7.22 7.28,-10.48 8.4,-9.42 19.52,-15.21 33.3,-17.34l6 -0.62 2.05 0c20.96,0 36.23,8.09 45.79,24.27l0.05 -0.03c2.46,4.01 4.36,8.31 5.68,12.93l0 0.15c0.47,1.67 0.86,3.34 1.17,5.01 9.78,-9.1 21.28,-13.65 34.47,-13.65 2.72,0 6,0.38 9.85,1.15 2.82,0.56 5.39,1.26 7.76,2.1l0.02 -0.04c5.55,1.96 10.74,4.59 15.55,7.86 5.97,4.06 10.88,8.88 14.72,14.43 2.78,4.03 4.94,7.91 6.48,11.62 2.6,6.26 3.9,12.48 3.9,18.66l2.82 -3.3 1.08 -6.31 0.21 -0.86c0.97,-4.69 2.4,-8.99 4.27,-12.9 -4.02,-4.61 -7.13,-9.98 -9.32,-16.11l-0.15 -0.62c-2.19,-6.58 -3.3,-13.01 -3.3,-19.29 0,-2.79 0.31,-6.05 0.9,-9.74 0.52,-3.19 1.27,-6.31 2.25,-9.32 2.95,-9.2 7.93,-16.88 14.92,-23.05l-0.07 -0.07c1.06,-0.93 2.14,-1.8 3.26,-2.63l-0.1 -4.12c0,-4.01 0.45,-8.04 1.33,-12.06 0.82,-3.78 2.2,-7.74 4.11,-11.84 9.22,-19.73 25.17,-29.6 47.85,-29.6l1.14 0 5.69 0.46c14.34,2.12 26.08,7.53 35.22,16.21 9.49,9.02 14.99,19.96 16.49,32.82 2.82,0.84 5.58,1.94 8.27,3.29 8.29,4.15 14.8,10.11 19.49,17.9l0.04 -0.03c2.16,3.52 3.95,7.57 5.37,12.2 0.74,2.43 1.31,4.81 1.69,7.14 3.49,2.08 6.73,4.59 9.72,7.52l1.85 -2.19c8.4,-9.42 19.51,-15.21 33.3,-17.34l6 -0.62 2.05 0c16.23,0 29.04,4.86 38.44,14.55 3.51,-1.67 6.95,-3.07 10.33,-4.2 8.36,-2.8 16.39,-4.2 24.05,-4.2 3.72,0 7.61,0.31 11.66,0.92l0.16 0c3.46,0.52 7.24,1.39 11.31,2.59l0.31 0c15.79,4.78 26.62,13.6 36.46,26.51 6.67,-8.91 14.06,-15.96 22.17,-21.15l0.15 0c4.78,-3.06 9.68,-5.45 14.69,-7.16 -4.35,-3.62 -8.1,-8.31 -11.24,-14.08l-0.61 -1.07c-1.91,-3.8 -3.27,-7.69 -4.06,-11.7l0.12 -0.02c-0.71,-3.57 -1.06,-6.69 -1.06,-9.4 0,-7.31 1.81,-15.98 5.42,-25.97l0.31 -1.09c4.78,-12.17 9.61,-22.17 14.5,-29.98 7.48,-11.96 16.09,-20.49 25.82,-25.56l0.06 0.11c12.68,-6.61 24.65,-9.93 35.84,-9.93 11.42,0 24.12,3.39 38.08,10.15 7.48,3.62 15.75,8.45 24.81,14.48 3.78,-6.09 8.87,-11.18 15.24,-15.25 4.79,-3.05 9.74,-5.3 14.86,-6.73 5.21,-1.46 10.4,-2.19 15.56,-2.19 8.19,0 15.86,1.71 23.01,5.11l0.06 -0.13c10.19,4.86 17.65,12.5 22.35,22.96l1.84 5.08c3.56,12.22 5.34,23.69 5.34,34.37 0,4.68 -0.36,9.47 -1.09,14.34 -0.71,4.81 -1.8,9.55 -3.26,14.2 -3,9.84 -6.97,18.28 -11.94,25.27 -7.32,10.3 -16.54,17.43 -27.66,21.4 -4.89,1.73 -9.13,3.03 -12.68,3.87l-0.15 0c-5.52,1.3 -10.57,1.96 -15.16,1.96 -7.59,0 -15.48,-1.27 -23.66,-3.81l-1.04 110.91c-0.57,8.78 -2.49,16.53 -5.75,23.22l-0.06 -0.03c-5.35,10.94 -13.47,18.73 -24.3,23.38 -8.74,3.74 -16.94,5.62 -24.61,5.62 -3.86,0 -8.12,-0.57 -12.78,-1.69l-0.15 0c-3.98,-0.97 -7.79,-2.3 -11.36,-3.98l-0.77 -0.46 -2.27 -1.21c-3.91,2.83 -7.92,5.23 -12.02,7.2 -9.63,4.64 -19.43,6.97 -29.37,6.97 -5.49,0 -11.11,-0.77 -16.83,-2.3l0.01 -0.04c-5.91,-1.5 -11.42,-3.68 -16.54,-6.54l-33.22 0c-6.8,8.99 -13.48,17.09 -20.04,24.28 -11.75,12.86 -23.33,23.14 -34.73,30.84l-3.24 1.85c-3.85,2.1 -7.51,3.63 -10.96,4.56 -4.21,1.15 -8.5,1.73 -12.82,1.73 -6.73,0 -13.46,-1.51 -20.12,-4.54 -4.91,-2.24 -9.42,-5.21 -13.52,-8.91l-0.03 0.03c-8.02,-7.12 -5.08,-9.82 -13,-4.78 -9.73,6.21 -19.75,9.33 -30.01,9.33l-4.7 -0.37c-2.76,-0.24 -4.45,-0.46 -5.35,-0.63l0.01 -0.06c-8.95,-1.74 -16.66,-4.96 -23.12,-9.64 -9.56,-6.94 -15.79,-16.05 -18.67,-27.31 -0.44,-1.74 -1,-4.44 -1.65,-8.1 -0.78,-4.28 -1.17,-7.74 -1.17,-10.36 0,-1.42 0.05,-2.84 0.16,-4.27 -5.05,-1.15 -10.08,-2.87 -15.08,-5.14 -2.96,1.14 -5.98,2.05 -9.05,2.72 -4.17,0.9 -8.11,1.59 -11.8,2.06 -2.67,3.9 -5.52,7.63 -8.55,11.18 -8.94,10.46 -19.3,19.15 -31.07,26.03l0.04 0.07c-22,12.84 -44.29,19.27 -66.84,19.27 -2.42,0 -5.54,-0.14 -9.28,-0.38 -2.41,-0.17 -5.52,-0.51 -9.23,-1l-2.46 -0.31c-15.06,-2.97 -27.94,-7.52 -38.63,-13.65 -13.49,-7.73 -23.61,-17.8 -30.33,-30.21 -1.32,-2.44 -2.55,-4.9 -3.7,-7.37l-3.57 5.67c-5.34,8.24 -11.48,16.62 -18.42,25.12l-0.77 0.92c-5.94,6.84 -12.13,12.32 -18.58,16.43 -9.73,6.21 -19.74,9.33 -30.01,9.33l-4.7 -0.37c-2.76,-0.24 -4.45,-0.46 -5.35,-0.63l0.01 -0.06c-8.94,-1.74 -16.66,-4.96 -23.12,-9.64 -2.32,-1.69 -4.44,-3.5 -6.37,-5.44 -6.62,3.48 -14.18,5.83 -22.67,7.03l-5.39 0.46 -1.13 0c-9.54,0 -18.26,-2.18 -26.16,-6.52 -9.43,-5.18 -16.46,-12.75 -21.1,-22.66l-0.06 0.03c-0.78,-1.67 -1.48,-3.46 -2.11,-5.35 -2.08,2.55 -4.28,5.06 -6.6,7.54l-1.08 1.24c-14.54,14.32 -31.99,24.74 -52.33,31.23 -18.44,5.88 -36.96,8.82 -55.54,8.82l-2.96 0 -1.08 -0.15c-15.82,-0.48 -30.13,-2.53 -42.9,-6.13 -14.22,-4.01 -26.87,-9.91 -37.92,-17.67 -10.1,-7.1 -18.62,-14.72 -25.54,-22.88 -5.27,-6.2 -9.59,-12.7 -12.96,-19.49 -7.54,4.01 -15.8,6.02 -24.78,6.02l-0.91 0c-6.01,0 -12.08,-0.89 -18.21,-2.69 -6.26,-1.82 -12.02,-4.52 -17.3,-8.06l-0.16 0 -1.77 -1.25 -1 0.49c-3.29,1.6 -6.62,3.03 -10,4.31l0 7.43c-56.5,0 -84.27,0 -138.91,0 -1.57,9 -5.49,17.02 -11.76,24.03 -7.77,8.7 -17.75,14.05 -29.95,16.09l-1.84 0.3 -30.27 3.65 -4.61 0.31c-9.8,0 -18.72,-2.59 -26.76,-7.74 -8.47,-5.44 -14.68,-13.07 -18.6,-22.89l-0.61 -1.23c-1.85,-5.18 -2.96,-10.39 -3.32,-15.6 -3.4,0.54 -6.84,0.81 -10.34,0.81 -11.29,0 -22.02,-2.68 -32.19,-8.03l-1.99 -1.09c-2.52,0.31 -5.01,0.47 -7.46,0.47 -4.51,0 -9.02,-0.46 -13.53,-1.36 -1.65,1.01 -3.36,1.97 -5.1,2.86l0 9.42 -10.05 0c-2.36,7.21 -5.89,14.07 -10.58,20.57 -4.95,6.87 -10.92,13.06 -17.89,18.53l-1.38 0.92z"/>
   <path class="fil0" d="M175.2 893.82c-9.13,2.37 -18.4,4.02 -27.8,4.95l-4.17 0.45c-15.62,1.06 -29.98,0.43 -43.06,-1.91 -14.28,-2.54 -27.43,-7.2 -39.43,-13.98 -11,-6.21 -20.22,-12.91 -27.65,-20.08 -8.78,-8.49 -15.51,-17.84 -20.17,-28.06 -3.58,-7.85 -6.3,-14.79 -8.12,-20.81l0.14 -0.04c-2.27,-7.5 -3.74,-14.6 -4.4,-21.25 -0.52,-5.26 -0.66,-10.55 -0.43,-15.86 0.25,-5.75 0.8,-10.97 1.64,-15.66 2.12,-12 6.05,-23.34 11.8,-33.98 5.6,-10.37 12.89,-19.98 21.85,-28.8 4.05,-3.96 8.67,-7.12 13.9,-9.46 4.76,-2.12 9.79,-3.46 15.06,-3.97l3.63 -0.36c4.91,-0.49 9.56,-0.47 13.89,0.06 4.51,0.54 9,1.59 13.45,3.11 13.13,4.48 22.41,11.97 27.81,22.45 2.29,-0.91 4.68,-1.71 7.17,-2.4l6.62 -1.23 2.04 -0.2c6.89,-0.69 13.39,-0.35 19.51,1.02 1.68,-5.45 4.33,-10.7 7.96,-15.74 3.38,-4.71 6.93,-8.64 10.61,-11.78 6.11,-5.24 12.84,-8.76 20.19,-10.57l4.24 -1.05c1.67,-0.36 3.76,-0.67 6.12,-0.9 5.61,-0.58 11,-0.25 16.15,0.99 -0.18,-5.81 -0.5,-12.1 -0.96,-18.88l0 -0.46c-0.33,-6.52 0.52,-12.83 2.57,-18.9 2.18,-6.54 5.48,-12.3 9.87,-17.27 4.41,-5 9.54,-8.96 15.43,-11.89l0.15 0c5.46,-2.72 11.42,-4.42 17.86,-5.05l1.85 -0.16c6.49,-0.33 12.79,0.52 18.89,2.57 6.52,2.18 12.29,5.48 17.27,9.87 4.81,4.24 8.72,9.39 11.74,15.43l0.15 0.15c2.72,5.47 4.4,11.43 5.05,17.86l0.05 0.38c4.28,-1.25 8.57,-2.08 12.88,-2.51 3.98,-0.39 7.93,-0.48 11.83,-0.29 4,0.21 7.87,0.67 11.58,1.38l0.16 0c6,1.19 11.67,3.1 17.01,5.75 1.92,-2.28 3.93,-4.46 6.01,-6.53 3.87,-3.84 7.82,-7.23 11.83,-10.13l1.23 -0.77c5.5,-3.68 11.13,-6.64 16.87,-8.86 6.38,-2.46 12.87,-4.02 19.42,-4.67 4.81,-0.48 9.51,-0.47 14.12,0.02 4.75,0.53 9.32,1.46 13.67,2.82l0.31 0.15c8.55,2.76 16.61,6.77 24.17,12.05 2.59,1.8 5.1,3.76 7.53,5.84 5.65,-3.99 11.29,-7.24 16.89,-9.75 7.79,-3.5 15.63,-5.63 23.48,-6.41 3.96,-0.39 7.92,-0.49 11.83,-0.29 1.56,0.08 3.1,0.2 4.63,0.36l0.24 -3.17c0.41,-3.58 1.32,-7.42 2.72,-11.46l0.31 -1.24c3.76,-9.89 10.06,-17.76 18.89,-23.61 7.1,-4.72 15.29,-7.55 24.56,-8.46l0.68 -0.07 5.54 -0.15c13.84,0.6 25.51,4.61 35,12.06l-0.06 0.08c11.68,9.19 18.29,21.48 19.8,36.87 0.46,4.61 0.25,9.28 -0.6,13.98 -0.73,4.02 -1.88,7.89 -3.46,11.57l0.11 0.05 -1.02 2.26c2.86,2.51 5.49,5.03 7.88,7.55l2.6 2.85c1.86,-7.96 4.65,-15.54 8.36,-22.71 5.76,-11.14 13.37,-20.04 22.82,-26.69 9.8,-6.9 21.01,-10.98 33.61,-12.22l2.61 -0.15 3.42 -0.11 5.38 0.15c13.02,1.39 24.33,5.66 33.94,12.81 5.79,4.29 10.66,9.39 14.61,15.29l0.61 -0.44c4.74,-3.39 9.71,-6.12 14.89,-8.16 5.33,-2.11 11.1,-3.49 17.29,-4.1 11.62,-1.14 22.08,1.07 31.39,6.66l0.16 0c10.4,6.27 17.5,15.58 21.28,27.92l1.38 6.46c0.4,3.15 0.89,5.95 1.47,8.41l5.42 -0.38c2.88,-0.29 5.56,-0.65 8.03,-1.1 1.62,-0.28 4.54,-0.97 8.82,-2.05l0.01 0.06c15.14,-4.05 25.39,-8.64 30.71,-13.75 1.11,-1.06 1.61,-2.22 1.49,-3.45 -0.12,-1.19 -0.47,-2.69 -1.05,-4.48 -0.76,-2.37 -1.94,-5.12 -3.52,-8.26l-0.31 -0.77c-1.38,-2.89 -2.47,-5.64 -3.24,-8.22 -0.89,-3.05 -1.51,-6.24 -1.83,-9.53 -0.46,-4.66 -0.26,-9.28 0.62,-13.84 -2.92,-3.6 -5.4,-7.56 -7.41,-11.86 -2.79,-5.97 -4.52,-12.26 -5.17,-18.85 -0.97,-9.84 0.55,-18.97 4.53,-27.35l0 -0.15c4.23,-8.87 10.77,-16.03 19.59,-21.42l3.54 -1.84 147.91 -71.06 -0.03 -0.05c2.98,-1.5 5.91,-2.7 8.75,-3.59 114.61,-39.9 59.22,52.25 100.21,35.7l0.15 -0.16c4.87,-2.48 9.85,-5.15 14.91,-7.99 6.05,-3.4 11.43,-6.49 16.04,-9.23l45.74 -32.22c3.1,-2.09 6.6,-3.91 10.49,-5.43l-0.03 -0.05c4.18,-1.63 8.59,-2.68 13.21,-3.13 9.11,-0.9 17.74,0.52 25.9,4.25 7.86,3.58 14.46,8.97 19.79,16.15l0.31 0.31c2.55,3.53 4.64,7.34 6.24,11.43 1.63,4.17 2.68,8.63 3.14,13.31 0.89,9.09 -0.52,17.73 -4.25,25.91 -3.59,7.85 -8.97,14.46 -16.15,19.79l-0.77 0.61 -47.04 33.01 -33.02 20.35c7.03,5.44 13.27,11.79 18.73,19.05 5.99,7.95 10.74,16.2 14.24,24.74 3.72,9.07 6.06,18.38 7.01,27.93 1.27,12.86 -0.04,25.14 -3.94,36.81l-0.05 -0.01c-3.96,11.83 -10.26,22.41 -18.86,31.74l-0.31 0.3c-8.74,9.27 -19.72,16.55 -32.92,21.83l-1.22 0.48 0.49 4.92 -35.48 3.5 -2.26 0.27c-2.5,0 -5.64,0.51 -8.16,0.76 -5.93,9.73 -11.82,18.51 -17.66,26.33 -10.32,13.83 -20.84,25.18 -31.55,34.07l-2.92 2.15c-3.45,2.35 -6.97,4.21 -10.55,5.57 -3.88,1.48 -8.09,2.45 -12.62,2.9 -7.06,0.7 -13.92,-0.07 -20.5,-2.32l0.03 -0.1c-4.92,-1.69 -9.65,-4.24 -14.18,-7.59l-0.09 0.12c-4.55,-3.31 -8.65,-7.13 -12.29,-11.46 -2.85,-3.39 -5.21,-6.92 -7.09,-10.6l-3.97 2.04 -1.39 0.61c-2.61,1.17 -5.05,2.07 -7.32,2.71l-0.15 0c-2.74,0.76 -5.57,1.3 -8.47,1.58 -7.33,0.73 -14.53,-0.16 -21.58,-2.61 -5.88,-2.05 -11.26,-4.99 -16.14,-8.78l-0.15 -0.15c-4.28,-3.36 -8.04,-7.05 -11.29,-11.04 -4.77,-5.85 -8.08,-12.03 -9.93,-18.54l0 -0.15 -1 -3.86c-2.93,1.73 -5.98,3.39 -9.13,4.97l-0.16 0.16c-11.36,5.64 -23.41,10.29 -36.12,13.95 -12.54,3.61 -25.18,6.05 -37.9,7.31 -17.76,1.76 -33.12,1.89 -46.05,0.42 -16.43,-1.87 -30.18,-6.39 -41.25,-13.53l-0.15 -0.15c-4.26,-2.77 -8.17,-5.92 -11.71,-9.46 -2.4,4.99 -5.16,10.01 -8.27,15.06 -5.33,8.63 -11.32,16.63 -17.96,23.99 -5.45,6.03 -11.43,12.24 -17.91,18.62 -5.68,5.58 -11.54,11 -17.55,16.25l-2.6 2.61 -4.16 3.69c-3.49,2.65 -7.3,4.85 -11.43,6.58 -4.4,1.84 -9.11,3.02 -14.13,3.51 -6.03,0.59 -11.87,0.14 -17.45,-1.38l0.01 -0.04c-4.55,-1.24 -8.97,-3.13 -13.23,-5.65l-0.15 -0.16c-8.09,-4.82 -14.64,-10.95 -19.63,-18.4 -5.06,-7.55 -8.17,-15.89 -9.31,-25.02 -1.86,1.06 -3.73,2.06 -5.62,3l0.73 7.41 -45.89 4.53c-5.94,9.73 -11.83,18.5 -17.66,26.33 -10.32,13.82 -20.85,25.18 -31.56,34.06l-2.92 2.16c-3.44,2.35 -6.96,4.21 -10.55,5.57 -3.88,1.48 -8.09,2.45 -12.62,2.9 -7,0.69 -13.78,-0.09 -20.34,-2.32 -4.84,-1.65 -9.63,-4.22 -14.31,-7.69l-0.09 0.12c-3.27,-2.38 -6.24,-4.91 -8.89,-7.58 -6.81,3.91 -14.49,6.29 -23.02,7.14l-2.04 0.2 -7.23 0.16c-13.44,-1.19 -24.69,-6.03 -33.73,-14.47 -6.7,-6.26 -11.41,-13.72 -14.13,-22.37 -4.93,7.83 -9.82,15.01 -14.69,21.52 -10.31,13.82 -20.84,25.19 -31.55,34.07l-2.92 2.15c-3.44,2.35 -6.97,4.22 -10.55,5.58 -3.9,1.49 -8.11,2.45 -12.62,2.89 -7.05,0.7 -13.91,-0.07 -20.5,-2.32l0.04 -0.1c-4.92,-1.69 -9.66,-4.24 -14.19,-7.59l-0.09 0.12c-4.82,-3.51 -8.97,-7.33 -12.44,-11.46 -4.68,-5.63 -8.07,-11.78 -10.14,-18.43l-0.04 0.02 -1.45 -4.81c-1.45,2.12 -2.97,4.22 -4.56,6.31l-1.07 1.23c-6.67,8 -14.08,15.02 -22.2,21.02 -8.38,6.19 -17.3,11.33 -26.74,15.4 -8.31,3.58 -17.21,6.62 -26.7,9.07z"/>
   <path class="fil1" d="M309.31 467.21c18.81,0 34.74,-4.7 47.79,-14.1 8.49,-6.68 13.8,-14.04 15.93,-22.07 0.6,-1.98 0.9,-4.03 0.9,-6.15 0,-6.22 -2.65,-12.67 -7.96,-19.34l14.56 0 0 -22.53 -50.97 0c-7.13,0.3 -12.14,2.27 -15.02,5.92 -1.82,2.42 -2.73,4.78 -2.73,7.05 0,1.37 0.53,3.3 1.6,5.8 1.06,2.51 4.7,3.76 10.92,3.76 5,0 10.28,1.59 15.81,4.78 5.54,3.18 8.76,7.13 9.67,11.83l0.23 1.37c0,4.39 -3.71,8.87 -11.15,13.42 -10.62,6.07 -22.98,9.1 -37.09,9.1 -11.53,0 -21.47,-2.8 -29.81,-8.42 -6.68,-5.91 -10.01,-13.5 -10.01,-22.75 0,-1.52 0.42,-5.54 1.25,-12.06 0.83,-6.53 3.45,-16.08 7.85,-28.67 3.34,-10.32 5,-16.01 5,-17.07 0,-3.95 -2.46,-7.36 -7.39,-10.24 -4.93,-2.89 -10.43,-4.32 -16.5,-4.32 -6.22,0.15 -10.16,2.57 -11.83,7.28 -3.94,13.04 -6.52,26.24 -7.74,39.59 -0.3,3.34 -0.45,6.6 -0.45,9.79 0,9.7 1.63,19.57 4.89,29.58 3.26,10.01 10.43,18.66 21.5,25.94 13.96,8.34 30.88,12.51 50.75,12.51zm218.23 -61.66l0 -22.53c-3.34,0 -5.84,-1.25 -7.51,-3.76 -1.67,-2.5 -2.66,-5.11 -2.96,-7.84 2.58,-6.53 4.1,-13.81 4.55,-21.85 0,-4.86 -1.82,-8.27 -5.46,-10.24 -1.97,-1.06 -3.87,-1.6 -5.69,-1.6 -1.67,0 -3.87,0.54 -6.6,1.6 -2.73,1.06 -4.32,4.09 -4.78,9.1 -0.6,6.52 -2.54,13.12 -5.8,19.8 -3.26,6.67 -7.17,10.77 -11.72,12.28 -0.6,0.16 -1.29,0.24 -2.05,0.24 -3.79,0 -7.51,-3.87 -11.15,-11.61l-0.91 -1.6c0.76,-3.64 1.14,-7.58 1.14,-11.83 0,-6.37 -2.05,-10.39 -6.14,-12.06 -1.67,-0.76 -3.42,-1.13 -5.24,-1.13 -7.43,0 -11.15,3.86 -11.15,11.6 -0.15,11.98 -2.73,17.98 -7.74,17.98 -0.15,0 -1.7,-0.19 -4.66,-0.57 -2.96,-0.38 -7.09,-5.27 -12.4,-14.68 -2.28,-3.94 -5.62,-5.92 -10.01,-5.92 -1.82,0 -3.57,0.38 -5.24,1.14 -4.09,2.28 -6.14,5.62 -6.14,10.02 0,1.66 0.38,3.26 1.14,4.77 -0.76,5.46 -3.11,9.52 -7.06,12.18 -3.94,2.65 -8.8,3.98 -14.56,3.98 -1.97,2.73 -2.96,6.52 -2.96,11.38 0,3.64 0.99,7.35 2.96,11.15 16.69,0 29.28,-6.22 37.77,-18.66 6.83,5.15 13.96,7.73 21.39,7.73 5.46,0 10.7,-1.66 15.7,-5 7.44,9.1 16.08,13.65 25.95,13.65 7.28,0 14.48,-3.03 21.61,-9.1 5.92,7.58 14.49,11.38 25.72,11.38zm57.8 0l-0.23 -22.53 -1.13 0c-4.1,0 -7.21,-1.52 -9.34,-4.55 -1.67,-2.43 -2.5,-5.77 -2.5,-10.01 1.06,-6.98 1.59,-13.81 1.59,-20.48 0,-13.05 -2.12,-21.09 -6.37,-24.13 -1.97,-1.36 -3.94,-2.04 -5.92,-2.04 -1.82,0 -4.13,0.91 -6.94,2.73 -2.8,1.82 -4.21,5.08 -4.21,9.78 0.16,2.13 0.23,4.4 0.23,6.83 0,2.43 -0.15,5.69 -0.45,9.78 -0.46,11.99 -3.34,20.94 -8.65,26.86 -3.03,3.48 -7.81,5.23 -14.33,5.23 -0.61,2.73 -0.92,6.98 -0.92,12.74 0,3.49 0.31,6.75 0.92,9.79 12.43,0 22.75,-4.25 30.94,-12.75 6.37,8.5 14.79,12.75 25.26,12.75l2.05 0zm-45.51 44.37l30.26 -3.64c6.37,-1.06 9.56,-4.63 9.56,-10.7 0,-1.97 -0.53,-3.94 -1.59,-5.91 -1.67,-3.19 -4.71,-4.78 -9.11,-4.78l-28.67 -0.46c-4.7,0.61 -7.81,3.04 -9.33,7.29 -0.76,2.12 -1.14,4.24 -1.14,6.37 0,1.97 0.38,4.02 1.14,6.14 1.52,3.8 4.48,5.69 8.88,5.69zm101.71 -44.37l-0.22 -22.53c-3.79,0 -7.02,-0.8 -9.67,-2.39 -2.66,-1.59 -4.52,-3.75 -5.58,-6.48 3.79,-10.62 6.18,-22.57 7.17,-35.85 0.98,-13.27 1.55,-27.19 1.71,-41.75l0.45 -20.48c-0.15,-5.01 -2.43,-8.42 -6.83,-10.24 -2.57,-1.07 -5.15,-1.59 -7.73,-1.59 -1.98,0 -4.59,0.49 -7.86,1.47 -3.26,0.99 -5.19,3.99 -5.8,8.99l0 23.44c0,10.47 -0.3,22.04 -0.91,34.7 -0.6,12.67 -2.46,24.01 -5.57,34.02 -3.11,10.02 -8.23,15.4 -15.36,16.16l-0.23 0c-1.21,2.43 -1.82,5.61 -1.82,9.56l0 4.32c0,2.43 0.61,5.31 1.82,8.65l2.5 0c9.56,0 17.91,-3.26 25.04,-9.79 3.03,3.19 7.09,5.61 12.17,7.29 5.08,1.66 10.65,2.5 16.72,2.5zm41.87 -145.41c2.28,0 4.63,-0.84 7.06,-2.5 35.5,-30.04 69.78,-61.29 102.85,-93.76 2.28,-2.43 3.42,-4.7 3.42,-6.82 0,-4.71 -3.11,-7.67 -9.33,-8.88l-2.28 -0.23c-3.18,0 -6.29,1.29 -9.33,3.87 -21.24,18.51 -42.02,35.73 -62.35,51.66 -13.5,10.77 -27.38,21.99 -41.64,33.68 -2.43,2.27 -3.64,4.78 -3.64,7.5 0,5.92 3.26,10.62 9.78,14.12 1.82,0.9 3.64,1.36 5.46,1.36zm-11.14 -30.95c2.72,0 5.3,-1.29 7.73,-3.87l48.24 -59.16c2.13,-2.89 3.19,-5.54 3.19,-7.97 0,-1.06 -0.5,-2.73 -1.48,-5 -0.98,-2.28 -3.15,-3.87 -6.48,-4.78l-1.82 -0.23c-2.89,0 -5.7,1.52 -8.43,4.55l-53.24 54.84c-1.67,2.43 -2.51,4.78 -2.51,7.06 0,1.82 0.76,4.17 2.28,7.05 1.52,2.88 4.47,5.16 8.87,6.83 1.22,0.46 2.43,0.68 3.65,0.68zm45.5 176.36l0 -22.53 -0.9 0c-4.25,-0.3 -8.12,-2.96 -11.61,-7.96 -3.49,-5.01 -5.99,-10.02 -7.51,-15.03l-10.01 -32.99 -11.83 -38.23c-1.82,-3.64 -4.18,-5.46 -7.06,-5.46 -0.76,0 -2.31,0.3 -4.66,0.91 -2.36,0.61 -4.97,2.88 -7.86,6.83 -1.82,2.58 -2.73,5.31 -2.73,8.19 0,1.67 0.31,3.34 0.91,5 2.89,9.11 5.92,17.6 9.11,25.49 6.52,16.23 9.78,27.76 9.78,34.59 0,5 -1.82,9.37 -5.46,13.08 -3.64,3.72 -12.74,5.58 -27.3,5.58 -1.52,3.03 -2.28,6.52 -2.28,10.47l0 4.32c0,2.43 0.76,5.01 2.28,7.74 9.85,0 19.03,-0.95 27.53,-2.85 8.49,-1.89 14.87,-4.51 19.11,-7.85 3.49,3.64 8.04,6.33 13.66,8.08 5.61,1.75 11.22,2.62 16.83,2.62zm0.46 0c10.62,0 21.24,-2.58 31.86,-7.74 10.62,-5.16 18.43,-12.06 23.43,-20.7 2.28,-4.1 3.42,-8.5 3.42,-13.21 0,-5.15 -1.52,-10.61 -4.55,-16.38 -3.03,-5.76 -7.66,-11.72 -13.88,-17.86 -6.22,-6.15 -11.99,-11.19 -17.3,-15.13 -2.42,-1.52 -4.7,-2.28 -6.82,-2.28 -5.62,0 -9.26,2.96 -10.93,8.87 -0.3,0.91 -0.45,1.82 -0.45,2.73 0,2.73 1.21,5.39 3.64,7.97l7.74 6.6c7.73,5.92 13.87,12.44 18.43,19.57 1.21,2.42 1.82,4.63 1.82,6.6 0,2.88 -1.52,5.8 -4.55,8.76 -3.04,2.96 -7.85,5.31 -14.45,7.05 -6.6,1.75 -12.71,2.62 -18.32,2.62 -0.91,3.19 -1.37,7.58 -1.37,13.2 0,3.79 0.38,6.9 1.14,9.33l1.14 0zm26.85 -114.69c6.07,0 10.09,-1.82 12.06,-5.46 1.21,-2.12 1.82,-4.25 1.82,-6.37 0,-8.65 -5.31,-13.73 -15.93,-15.25l-0.68 0c-5.46,0 -9.18,1.97 -11.15,5.92 -0.91,1.97 -1.36,4.09 -1.36,6.37 0,8.49 4.39,13.42 13.19,14.79l2.05 0zm61.44 114.46c5.62,0 9.33,-2.27 11.15,-6.83 6.22,-18.96 10.05,-36.37 11.49,-52.22 1.44,-15.86 2.16,-32.43 2.16,-49.72 0,-9.26 0.16,-19.19 0.46,-29.81 0,-3.19 -1.02,-5.88 -3.07,-8.08 -2.05,-2.2 -4.66,-3.38 -7.85,-3.53 -3.19,0 -5.88,1.03 -8.08,3.07 -2.2,2.05 -3.38,4.67 -3.53,7.86 -0.76,23.66 -2.84,44.48 -6.25,62.46 -3.42,17.98 -9,38.19 -16.73,60.64l-0.23 2.74c0,3.64 1.97,6.78 5.92,9.44 3.94,2.65 8.49,3.98 13.65,3.98l0.91 0zm148.14 60.3c14.87,0 29.43,-2.27 43.69,-6.82 14.26,-4.56 26.47,-11.84 36.64,-21.85 15.32,-16.38 22.98,-34.59 22.98,-54.62 0,-18.8 -4.09,-37.62 -12.29,-56.43 -1.97,-3.79 -4.77,-5.69 -8.42,-5.69 -0.6,0 -2.23,0.19 -4.89,0.57 -2.65,0.38 -5.65,2.47 -8.99,6.26 -2.27,2.58 -3.41,5.31 -3.41,8.19 0,1.52 0.3,3.04 0.91,4.55 9.56,13.96 14.34,28.52 14.34,43.69 0,13.35 -5.46,25.87 -16.39,37.55 -13.95,13.66 -34.89,20.48 -62.8,20.48l-5.01 0c-20.63,-0.91 -35.95,-5.61 -45.97,-14.11 -10.01,-8.49 -15.02,-19.11 -15.02,-31.85 0,-0.46 0.08,-4.21 0.23,-11.27 0.15,-7.05 5.69,-18.17 16.61,-33.34 4.4,-6.22 6.6,-11.3 6.6,-15.24 0,-0.46 -0.15,-1.79 -0.45,-3.98 -0.31,-2.2 -2.2,-4.1 -5.69,-5.69 -3.49,-1.59 -7.05,-2.39 -10.7,-2.39l-3.64 0c-2.12,0 -3.94,0.61 -5.46,1.82 -13.35,10.77 -22.15,23.81 -26.4,39.14 -1.97,6.97 -2.95,13.88 -2.95,20.7 0,8.5 2.01,18.63 6.03,30.38 4.02,11.76 13.42,22.84 28.21,33.23 14.8,10.39 34.55,15.97 59.28,16.72l2.96 0zm8.42 -83.74l-1.14 0c-5.76,0 -9.63,-2.12 -11.6,-6.37 -1.07,-2.27 -1.6,-4.63 -1.6,-7.05 0,-9.11 4.78,-14.49 14.34,-16.16l2.05 0c6.82,0 11.38,2.05 13.65,6.14 1.37,2.13 2.05,4.4 2.05,6.83 0,9.41 -5.92,14.94 -17.75,16.61zm157.69 69.41l-1.13 0c-5.77,0 -9.64,-2.13 -11.61,-6.38 -1.06,-2.27 -1.59,-4.62 -1.59,-7.05 0,-9.1 4.78,-14.49 14.33,-16.15l2.05 0c6.83,0 11.38,2.04 13.66,6.14 1.36,2.12 2.05,4.4 2.05,6.83 0,9.4 -5.92,14.94 -17.76,16.61zm5.24 -45.74c3.34,0 9.14,-0.65 17.41,-1.94 8.27,-1.29 17.25,-5.88 26.96,-13.76 9.71,-7.89 15.1,-17.68 16.16,-29.36l0.23 -2.73c0,-11.07 -5.92,-22.83 -17.75,-35.27 -2.58,-2.58 -5.16,-3.87 -7.74,-3.87 -5.16,0 -8.88,2.81 -11.15,8.42 -0.45,1.06 -0.68,2.12 -0.68,3.19 0,2.58 1.13,5.23 3.41,7.96 7.13,7.89 10.7,14.87 10.7,20.94 0,2.73 -1.56,6.52 -4.67,11.37 -3.11,4.86 -10.13,8.5 -21.05,10.93 -4.09,0.9 -7.96,1.36 -11.6,1.36 -6.22,0 -11.91,-1.21 -17.07,-3.64 -7.58,-4.4 -11.98,-10.62 -13.2,-18.66 -0.45,-2.73 -0.68,-5.54 -0.68,-8.42 0,-10.62 3.94,-27.23 11.83,-49.83 4.25,-12.14 7.36,-23.29 9.33,-33.45l0 -1.83c0,-4.24 -2.12,-7.96 -6.37,-11.14 -4.24,-3.19 -8.87,-4.86 -13.88,-5.01 -5.01,0 -8.12,2.35 -9.33,7.05 -1.37,7.44 -2.96,15.33 -4.78,23.67 -3.34,15.02 -5.99,30.19 -7.96,45.51 -0.76,5.92 -1.14,11.61 -1.14,17.07 0,8.8 1.29,18.35 3.87,28.67 2.58,10.31 9.86,19.12 21.84,26.4 8.65,4.25 17.75,6.37 27.31,6.37zm62.35 54.38c5.61,0 11.91,-4.01 18.89,-12.06 12.13,-14.86 21.27,-28.97 27.42,-42.32 6.14,-13.35 12.25,-30.72 18.32,-52.11 0.3,-1.37 0.45,-2.58 0.45,-3.64 0,-3.19 -1.14,-5.81 -3.41,-7.86 -2.28,-2.04 -4.93,-3.07 -7.97,-3.07 -0.75,0 -2.31,0.19 -4.66,0.57 -2.35,0.38 -4.36,2.92 -6.03,7.62 -5.01,16.84 -10.39,29.63 -16.16,38.35 -5.76,8.72 -12.97,17.48 -21.62,26.28l-14.33 15.7c-4.1,5.16 -6.15,10.32 -6.15,15.48 0,1.66 0.53,4.59 1.6,8.76 1.06,4.17 4.78,6.86 11.15,8.08 0.76,0.15 1.59,0.22 2.5,0.22zm47.1 -133.8l-1.14 0c-5.3,0 -8.87,-1.97 -10.69,-5.92 -0.91,-2.12 -1.36,-4.24 -1.36,-6.37 0,-8.49 4.4,-13.42 13.19,-14.79l2.05 0c6.22,0 10.32,1.82 12.29,5.46 1.21,1.97 1.82,4.1 1.82,6.37 0,8.5 -5.39,13.58 -16.16,15.25zm117.88 129.25c15.47,0 31.14,-4.62 46.99,-13.88 15.85,-9.25 28.03,-23.51 36.52,-42.78 3.64,0.61 7.28,0.91 10.93,0.91 4.4,0 9.55,-0.64 15.47,-1.93 5.92,-1.29 11.68,-5.12 17.29,-11.49 10.17,9.86 20.49,14.79 30.95,14.79 0.15,0 2.96,-0.08 8.42,-0.23 5.46,-0.15 11.84,-4.25 19.11,-12.29 6.68,-7.73 10.02,-17.82 10.02,-30.27 0,-0.9 -0.12,-5 -0.34,-12.28 -0.23,-7.28 -6.41,-19.42 -18.55,-36.41 -2.58,-3.19 -5.46,-4.78 -8.65,-4.78 -0.76,0 -2.27,0.27 -4.55,0.79 -2.27,0.54 -4.32,2.55 -6.14,6.04 -0.76,1.51 -1.14,3.03 -1.14,4.55 0,2.12 0.76,4.4 2.28,6.82 10.01,14.27 15.02,26.1 15.02,35.5 0,1.22 -0.42,4.59 -1.26,10.13 -0.83,5.54 -5.04,8.61 -12.63,9.22l-1.36 0c-7.28,0 -14.34,-5.31 -21.16,-15.93 0.91,-5.01 1.36,-10.47 1.36,-16.38 0,-4.86 -1.89,-8.13 -5.69,-9.79 -1.82,-0.91 -3.71,-1.37 -5.69,-1.37 -7.58,0 -11.37,3.72 -11.37,11.16 0,14.1 -2.51,23.36 -7.51,27.76 -2.89,2.42 -7.21,3.64 -12.97,3.64l-5.24 -0.23c1.82,-10.32 3.26,-20.71 4.33,-31.17l0 -1.14c0,-4.41 -1.6,-7.51 -4.78,-9.33 -2.28,-1.37 -4.55,-2.05 -6.83,-2.05 -1.37,0 -3.34,0.45 -5.91,1.36 -2.58,0.91 -4.25,3.79 -5.01,8.65l-0.23 0.91c-1.06,13.05 -3.19,25.86 -6.37,38.45 -5.31,17.15 -15.25,30.12 -29.81,38.92 -10.17,6.22 -21.16,9.33 -33,9.33 -4.85,0 -9.94,-0.53 -15.24,-1.59 -13.81,-4.25 -21.7,-10.93 -23.67,-20.03 -0.61,-2.58 -0.91,-5.16 -0.91,-7.73 0,-6.83 2.28,-14.84 6.83,-24.01 4.55,-9.18 10.69,-18.17 18.43,-26.97 1.52,-2.12 2.28,-4.17 2.28,-6.14 0,-2.13 -1.11,-4.78 -3.3,-7.97 -2.2,-3.18 -5.88,-5.69 -11.04,-7.51 -1.67,-0.6 -3.19,-0.91 -4.55,-0.91 -3.04,0 -5.77,1.22 -8.19,3.64 -13.36,14.42 -22,30.42 -25.95,48.02 -1.36,5.91 -2.04,11.68 -2.04,17.29 0,10.77 3.18,22.04 9.55,33.79 6.38,11.76 20.33,19.76 41.87,24.01 4.55,0.61 9.03,0.91 13.43,0.91zm74.64 -157.47l70.09 -7.73c4.55,-0.61 7.43,-2.73 8.64,-6.38 0.61,-1.36 0.91,-2.8 0.91,-4.32 0,-1.97 -0.61,-3.95 -1.81,-5.91 -1.68,-3.04 -4.71,-4.56 -9.11,-4.56l-68.27 0.46c-4.7,0.76 -7.81,3.49 -9.32,8.19 -0.76,2.28 -1.14,4.63 -1.14,7.06 0,2.27 0.38,4.55 1.14,6.82 1.51,4.25 4.47,6.37 8.87,6.37zm28.22 -45.05c7.28,0 12.06,-2.13 14.33,-6.37 1.37,-2.43 2.05,-4.86 2.05,-7.29 0,-9.86 -6.14,-15.7 -18.43,-17.52l-1.14 0c-6.07,0 -10.16,2.28 -12.29,6.83 -1.06,2.28 -1.59,4.7 -1.59,7.28 0,9.71 5,15.4 15.02,17.07l2.05 0zm93.98 207.07c5.61,0 11.9,-4.01 18.89,-12.06 12.13,-14.86 21.27,-28.97 27.41,-42.32 6.15,-13.35 12.26,-30.72 18.33,-52.11 0.3,-1.37 0.45,-2.58 0.45,-3.64 0,-3.19 -1.14,-5.81 -3.41,-7.86 -2.28,-2.04 -4.93,-3.07 -7.97,-3.07 -0.76,0 -2.31,0.19 -4.66,0.57 -2.36,0.38 -4.37,2.92 -6.03,7.62 -5.01,16.84 -10.39,29.63 -16.16,38.35 -5.76,8.72 -12.97,17.48 -21.62,26.28l-14.33 15.7c-4.1,5.16 -6.15,10.32 -6.15,15.48 0,1.66 0.53,4.59 1.59,8.76 1.07,4.17 4.78,6.86 11.15,8.08 0.76,0.15 1.6,0.22 2.51,0.22zm47.1 -133.8l-1.14 0c-5.31,0 -8.87,-1.97 -10.69,-5.92 -0.91,-2.12 -1.37,-4.24 -1.37,-6.37 0,-8.49 4.4,-13.42 13.2,-14.79l2.05 0c6.22,0 10.32,1.82 12.29,5.46 1.21,1.97 1.82,4.1 1.82,6.37 0,8.5 -5.39,13.58 -16.16,15.25zm29.58 142.68c1.67,0 3.34,-0.46 5.01,-1.37 17.75,-11.98 36.87,-32.92 57.35,-62.8 5.76,0.61 14.56,0.91 26.39,0.91l0 -22.53 -14.1 0c5.61,-11.68 8.41,-22.91 8.41,-33.68 0,-3.94 -0.38,-7.89 -1.13,-11.83 -4.86,-16.84 -13.05,-27.01 -24.58,-30.49 -4.1,-1.22 -8.12,-1.82 -12.06,-1.82 -7.28,0 -15.44,2.73 -24.46,8.19 -9.03,5.46 -14.83,14.94 -17.41,28.44 -0.3,2.28 -0.46,4.55 -0.46,6.83 0,10.01 3.11,19.57 9.33,28.67 6.22,9.1 15.1,16.16 26.63,21.16 -7.13,9.56 -14.68,17.26 -22.64,23.1 -7.97,5.84 -15.21,10.66 -21.74,14.45 -1.97,1.06 -3.87,2.2 -5.69,3.41 -3.03,2.28 -4.55,5.16 -4.55,8.65 0,1.22 0.34,3.49 1.03,6.83 0.68,3.33 3.07,6.82 7.17,10.46 2.42,2.28 4.93,3.42 7.5,3.42zm51.43 -89.88c-6.67,-2.13 -12.59,-5.66 -17.75,-10.59 -5.16,-4.93 -7.73,-11.11 -7.73,-18.54 0,-6.98 2.35,-12.67 7.05,-17.07 3.95,-3.49 8.04,-5.23 12.29,-5.23 0.91,0 2.96,0.3 6.14,0.9 3.19,0.61 6,5.39 8.42,14.34 0.46,2.13 0.69,4.4 0.69,6.83 0,8.8 -3.04,18.58 -9.11,29.36zm96.71 12.28c-1.21,0 -2.92,-0.68 -5.12,-2.05 -2.2,-1.36 -4.35,-4.47 -6.48,-9.33 -2.12,-4.85 -3.49,-9.33 -4.1,-13.42l6.15 -11.61c9.4,-17.14 16.61,-25.71 21.62,-25.71 0.15,0 1.17,0.04 3.07,0.11 1.89,0.08 3.45,3.38 4.66,9.9 0.61,3.19 0.91,6.68 0.91,10.47 0,16.69 -4.02,29.05 -12.06,37.09 -3.19,3.04 -6.07,4.55 -8.65,4.55zm0.23 23.21c8.19,0 16.39,-3.94 24.58,-11.83 12.14,-13.05 18.2,-29.05 18.2,-48.02 0,-10.01 -1.82,-19.94 -5.46,-29.81 -5.92,-14.1 -13.8,-21.16 -23.66,-21.16 -9.26,0 -17.9,5.54 -25.95,16.61 -5.76,8.5 -10.77,16.84 -15.01,25.03 -3.19,6.07 -6.76,12.29 -10.7,18.66 -8.19,12.75 -15.32,19.12 -21.39,19.12l-1.14 0c-1.21,3.19 -1.82,6.98 -1.82,11.38 0,4.55 0.61,8.27 1.82,11.15l2.05 0c6.37,0 11.76,-1.33 16.16,-3.99 4.39,-2.65 8.49,-6.48 12.28,-11.48 4.86,13.04 12.6,20.86 23.22,23.43 2.27,0.61 4.55,0.91 6.82,0.91zm68.73 -6.82c2.42,0 5.49,-0.8 9.21,-2.39 3.72,-1.6 5.8,-5.88 6.26,-12.86l1.14 -119.7c0,-3.33 -1.07,-6.06 -3.19,-8.19 -2.13,-2.12 -4.78,-3.26 -7.97,-3.41 -3.18,0 -5.83,1.02 -7.96,3.07 -2.12,2.05 -3.26,4.67 -3.41,7.85l-9.33 120.38c0.3,6.52 2.88,11 7.73,13.43 2.58,1.21 5.09,1.82 7.52,1.82zm79.41 -159.29c3.34,0 8.31,-1.18 14.91,-3.53 6.6,-2.35 11.64,-9.45 15.13,-21.28 1.67,-5.31 2.5,-10.92 2.5,-16.84 0,-7.28 -1.21,-15.09 -3.64,-23.44 -1.36,-3.03 -4.55,-4.55 -9.56,-4.55 -3.48,0 -6.6,0.88 -9.33,2.62 -2.73,1.75 -4.09,4.21 -4.09,7.4 0,1.06 0.15,2.12 0.45,3.18 1.22,4.1 1.82,9.18 1.82,15.25 0,5.91 -1.59,10.46 -4.78,13.65 -1.21,1.37 -2.95,2.05 -5.23,2.05 -2.88,0 -6.67,-1.29 -11.38,-3.87 -8.8,-5.31 -17.22,-10.7 -25.25,-16.16 -22.76,-16.38 -39.68,-24.57 -50.75,-24.57 -5,0 -10.92,1.78 -17.75,5.35 -6.83,3.56 -14.11,15.21 -21.84,34.93 -1.98,5.46 -2.96,9.71 -2.96,12.74 0,1.37 0.22,2.5 0.68,3.41 0.91,1.67 2.12,2.51 3.64,2.51 4.1,0 7.66,-3.27 10.69,-9.79 5.92,-14.11 12.52,-22.3 19.8,-24.58 2.58,-0.91 5.16,-1.36 7.74,-1.36 8.95,0 22.15,7.36 39.6,22.07 6.97,5.61 13.88,10.62 20.7,15.02 10.93,6.52 20.56,9.79 28.9,9.79z"/>
   <path class="fil1" d="M138.87 867.96c14.79,-1.47 29.06,-5.17 42.8,-11.1 13.75,-5.93 25.18,-14.38 34.31,-25.34 13.64,-17.82 19.47,-36.69 17.5,-56.62 -1.86,-18.71 -7.78,-37.04 -17.79,-54.95 -2.34,-3.58 -5.31,-5.19 -8.93,-4.83 -0.61,0.06 -2.21,0.41 -4.82,1.05 -2.6,0.64 -5.38,3.01 -8.33,7.11 -2.01,2.79 -2.87,5.62 -2.59,8.49 0.15,1.51 0.6,2.99 1.36,4.44 10.88,12.95 17.07,26.97 18.56,42.06 1.32,13.29 -2.88,26.28 -12.6,38.98 -12.55,14.97 -32.71,23.82 -60.49,26.57l-4.98 0.49c-20.62,1.13 -36.33,-2.05 -47.13,-9.51 -10.8,-7.47 -16.83,-17.55 -18.08,-30.23 -0.05,-0.45 -0.35,-4.19 -0.89,-11.23 -0.54,-7.04 3.88,-18.64 13.25,-34.81 3.77,-6.62 5.46,-11.9 5.07,-15.83 -0.05,-0.45 -0.33,-1.75 -0.85,-3.91 -0.52,-2.16 -2.59,-3.86 -6.22,-5.1 -3.63,-1.24 -7.25,-1.68 -10.87,-1.33l-3.63 0.36c-2.12,0.21 -3.87,0.99 -5.25,2.35 -12.23,12.04 -19.71,25.88 -22.42,41.55 -1.28,7.14 -1.58,14.1 -0.9,20.9 0.83,8.45 3.83,18.33 8.99,29.64 5.15,11.3 15.6,21.4 31.35,30.28 15.74,8.89 35.95,12.49 60.63,10.81l2.95 -0.29zm0.13 -84.17l-1.13 0.11c-5.74,0.57 -9.8,-1.16 -12.17,-5.19 -1.29,-2.16 -2.05,-4.45 -2.29,-6.87 -0.89,-9.05 3.33,-14.89 12.68,-17.49l2.04 -0.2c6.79,-0.67 11.52,0.92 14.19,4.78 1.57,1.97 2.47,4.17 2.71,6.58 0.93,9.36 -4.42,15.46 -16.03,18.28zm129.35 10.76c5.58,-0.55 9.06,-3.18 10.42,-7.89 4.33,-19.48 6.42,-37.19 6.29,-53.11 -0.12,-15.92 -1.04,-32.48 -2.74,-49.69 -0.91,-9.21 -1.74,-19.11 -2.48,-29.71 -0.32,-3.17 -1.6,-5.75 -3.85,-7.74 -2.26,-1.98 -4.98,-2.9 -8.16,-2.73 -3.18,0.31 -5.75,1.6 -7.74,3.85 -1.99,2.26 -2.9,4.98 -2.74,8.16 1.58,23.62 1.55,44.55 -0.07,62.78 -1.63,18.23 -5.19,38.89 -10.68,61.99l0.04 2.75c0.36,3.62 2.64,6.56 6.82,8.81 4.19,2.25 8.85,3.13 13.98,2.62l0.91 -0.09zm38.4 60c1.66,-0.17 3.28,-0.79 4.85,-1.85 16.49,-13.68 33.44,-36.39 50.88,-68.15 5.8,0.04 14.58,-0.53 26.36,-1.69l-2.22 -22.42 -14.04 1.39c4.44,-12.18 6.12,-23.63 5.07,-34.34 -0.39,-3.93 -1.16,-7.82 -2.3,-11.67 -6.49,-16.28 -15.64,-25.59 -27.46,-27.92 -4.2,-0.81 -8.26,-1.02 -12.18,-0.63 -7.25,0.72 -15.09,4.24 -23.54,10.56 -8.45,6.32 -13.28,16.33 -14.52,30.02 -0.08,2.3 -0.01,4.58 0.22,6.84 0.98,9.97 5.02,19.17 12.1,27.62 7.09,8.44 16.62,14.58 28.58,18.43 -6.15,10.21 -12.9,18.62 -20.25,25.21 -7.36,6.6 -14.09,12.11 -20.21,16.52 -1.85,1.26 -3.63,2.58 -5.32,3.96 -2.8,2.57 -4.02,5.58 -3.68,9.05 0.12,1.21 0.68,3.44 1.69,6.7 1.01,3.25 3.73,6.49 8.16,9.71 2.64,2.03 5.25,2.91 7.81,2.66zm42.33 -94.51c-6.85,-1.46 -13.09,-4.39 -18.7,-8.79 -5.62,-4.4 -8.8,-10.29 -9.53,-17.69 -0.69,-6.95 1.09,-12.84 5.34,-17.68 3.58,-3.86 7.49,-6 11.71,-6.42 0.91,-0.09 2.97,0.01 6.21,0.3 3.23,0.29 6.49,4.77 9.79,13.44 0.66,2.07 1.11,4.31 1.35,6.73 0.87,8.75 -1.19,18.79 -6.17,30.11zm53.35 21.47c13.13,-1.3 26.74,-3.6 40.82,-6.9 14.08,-3.29 25.43,-9.87 34.06,-19.71 7,-7.87 9.79,-18.96 8.37,-33.3 -1.45,-14.65 -6.86,-27.75 -16.24,-39.33 -7.26,-8.73 -15.78,-14.67 -25.54,-17.82 -4.09,-1.27 -8.18,-1.71 -12.25,-1.31 -6.04,0.6 -12.13,2.95 -18.28,7.07 -5.13,3.71 -9.63,8.2 -13.53,13.46 -8.61,11.67 -12.72,19.4 -12.34,23.17 0.19,1.97 1.41,4.36 3.68,7.18 2.26,2.83 5.73,4.77 10.4,5.83 1.24,0.19 2.47,0.22 3.67,0.1 3.17,-0.32 5.76,-1.94 7.75,-4.88 2.23,-3.73 4.04,-7.72 5.45,-11.97 1.8,-6.43 4.45,-11.27 7.94,-14.51 2.45,-1.47 4.8,-2.31 7.07,-2.53 3.02,-0.3 6.47,0.73 10.37,3.09 3.89,2.36 7.6,6.38 11.13,12.04 3.54,5.68 5.82,10.6 6.84,14.77 0.52,2.23 0.88,4.33 1.08,6.29 1.66,16.76 -7.5,27.42 -27.48,31.99 -7.47,1.5 -14.91,2.62 -22.3,3.35l-6.35 0.63c-4.38,0.43 -8.45,0.91 -12.2,1.43l-8.83 0.88c-0.77,2.97 -0.94,6.65 -0.51,11.02 0.44,4.53 1.36,8.33 2.73,11.4l14.49 -1.44zm33.78 43.31c6.04,-0.6 9.93,-2.89 11.67,-6.87 0.86,-2.07 1.19,-4.16 0.98,-6.27 -0.87,-8.76 -6.65,-13.29 -17.35,-13.61l-1.14 0.11c-5.28,0.53 -8.64,2.77 -10.08,6.72 -0.71,2.05 -0.95,4.21 -0.73,6.47 0.82,8.31 5.69,12.86 14.61,13.65l2.04 -0.2zm66.65 10.33c1.66,-0.17 3.28,-0.79 4.85,-1.86 16.48,-13.67 33.44,-36.39 50.88,-68.14 5.8,0.03 14.59,-0.53 26.36,-1.7l-2.22 -22.41 -14.04 1.38c4.44,-12.18 6.12,-23.62 5.06,-34.34 -0.39,-3.93 -1.15,-7.81 -2.29,-11.67 -6.49,-16.27 -15.64,-25.58 -27.46,-27.92 -4.2,-0.8 -8.26,-1.01 -12.18,-0.62 -7.25,0.71 -15.09,4.23 -23.54,10.56 -8.45,6.32 -13.29,16.33 -14.52,30.02 -0.08,2.29 -0.01,4.57 0.22,6.84 0.98,9.96 5.01,19.16 12.1,27.61 7.09,8.45 16.62,14.59 28.58,18.44 -6.15,10.21 -12.91,18.62 -20.26,25.21 -7.35,6.6 -14.08,12.11 -20.2,16.52 -1.86,1.26 -3.63,2.57 -5.33,3.96 -2.79,2.56 -4.01,5.58 -3.67,9.05 0.12,1.21 0.68,3.44 1.69,6.7 1.01,3.25 3.73,6.49 8.16,9.71 2.64,2.02 5.25,2.91 7.81,2.66zm42.33 -94.52c-6.85,-1.45 -13.09,-4.38 -18.71,-8.78 -5.61,-4.4 -8.79,-10.3 -9.52,-17.69 -0.69,-6.95 1.09,-12.84 5.34,-17.68 3.58,-3.86 7.49,-6 11.71,-6.42 0.91,-0.09 2.97,0.01 6.21,0.3 3.23,0.29 6.49,4.77 9.79,13.44 0.66,2.07 1.11,4.31 1.35,6.72 0.87,8.76 -1.19,18.79 -6.17,30.11zm39.76 22.82c10.57,-1.04 20.88,-4.65 30.94,-10.83 10.06,-6.18 17.15,-13.82 21.29,-22.92 1.86,-4.3 2.56,-8.79 2.1,-13.47 -0.51,-5.13 -2.56,-10.42 -6.15,-15.85 -3.58,-5.44 -8.78,-10.91 -15.57,-16.42 -6.79,-5.49 -13.03,-9.95 -18.7,-13.35 -2.57,-1.27 -4.91,-1.8 -7.02,-1.59 -5.59,0.55 -8.92,3.85 -9.99,9.9 -0.22,0.94 -0.28,1.86 -0.19,2.77 0.27,2.71 1.74,5.23 4.41,7.56l8.35 5.81c8.28,5.13 15.04,11.01 20.27,17.66 1.44,2.29 2.27,4.42 2.46,6.39 0.28,2.87 -0.94,5.92 -3.67,9.16 -2.73,3.25 -7.29,6.06 -13.68,8.45 -6.39,2.38 -12.39,3.85 -17.97,4.41 -0.6,3.26 -0.62,7.68 -0.06,13.26 0.37,3.78 1.05,6.83 2.05,9.17l1.13 -0.11zm15.43 -116.77c6.04,-0.6 9.86,-2.81 11.46,-6.62 1,-2.23 1.39,-4.41 1.19,-6.52 -0.85,-8.61 -6.64,-13.15 -17.35,-13.61l-0.69 0.07c-5.43,0.54 -8.93,2.86 -10.51,6.99 -0.71,2.05 -0.95,4.21 -0.73,6.47 0.84,8.45 5.7,12.92 14.59,13.42l2.04 -0.2zm125.01 84.81c-6.73,-8.02 -11.22,-15.58 -13.45,-22.68 -1.12,-3.7 -1.85,-7.21 -2.18,-10.53 -0.3,-3.02 -0.27,-5.84 0.08,-8.47 2.12,-12.4 6.73,-18.96 13.83,-19.66 2.87,-0.28 5.58,0.97 8.14,3.77 2.57,2.8 4.15,7.21 4.75,13.25 1.5,15.25 -2.21,30.02 -11.17,44.32zm-36.68 68.35c1.96,-0.2 3.86,-1 5.71,-2.4l3.53 -3.55c11.51,-9.98 22.56,-20.83 33.14,-32.54 10.58,-11.72 18.4,-24.39 23.45,-38 4.17,-13.37 5.68,-25.79 4.55,-37.26 -0.54,-5.44 -2.61,-13.28 -6.22,-23.51 -3.6,-10.24 -11.34,-15.99 -23.2,-17.26l-3.42 0.11c-11.32,1.12 -19.76,7.06 -25.33,17.82 -5.57,10.77 -7.66,23.1 -6.29,36.99 0.12,1.2 0.74,5.94 1.86,14.22 1.13,8.27 7.35,17.95 18.66,29.02 -7.41,6.83 -16.32,13.81 -26.75,20.94 -3.86,2.52 -8.43,5.64 -13.7,9.36 -2.33,2.67 -3.33,5.67 -3.01,8.99 0.65,6.49 4.05,11.56 10.2,15.22 2.43,1.44 4.7,2.06 6.82,1.85zm193.17 -67.59c21.14,-2.1 41.29,-7.9 60.47,-17.42 20.05,-10.06 33.69,-23.91 40.94,-41.55 3.59,-8.44 4.88,-17.71 3.88,-27.83 -1.09,-11.02 -4.87,-22.99 -11.33,-35.92 -2.72,-4.45 -6.2,-6.48 -10.43,-6.06 -3.62,0.36 -6.59,2.03 -8.88,5 -1.63,1.99 -2.32,4.27 -2.07,6.84 0.15,1.5 0.61,3.06 1.38,4.66 4.92,9.73 7.78,18.59 8.57,26.59 2.75,27.78 -17.79,47.5 -61.61,59.15 -7.87,2 -15.44,3.36 -22.69,4.07 -3.17,0.32 -6.2,0.54 -9.08,0.67 -12.92,0.37 -22.39,-2.51 -28.4,-8.62 -6.02,-6.11 -10.09,-17.52 -12.19,-34.23 -1.58,-5.19 -5.39,-7.48 -11.43,-6.88 -4.53,0.45 -8.9,2.18 -13.1,5.18 -4.19,3.01 -6.06,6.93 -5.58,11.76l0.65 8.85c1.87,18.88 8.1,31.75 18.69,38.63 11.88,7.66 32.62,10.03 62.21,7.11zm73.67 -147.46c1.36,-0.14 2.7,-0.5 4.01,-1.09l148.61 -78.95c4.31,-2.57 6.3,-5.59 5.96,-9.06 -0.5,-3.45 -2.36,-6.16 -5.61,-8.13 -1.94,-1.18 -4.13,-1.65 -6.54,-1.41 -1.66,0.16 -3.44,0.72 -5.33,1.67l-148.65 71.41c-4.17,2.55 -6,6.39 -5.49,11.52 0.43,4.38 2.17,8.1 5.22,11.15 2.35,2.21 4.96,3.17 7.82,2.89zm69.73 166.2c1.21,-0.12 2.47,-0.47 3.78,-1.06 4.65,-2.29 8.85,-4.92 12.6,-7.88 3.75,-2.96 8.84,-7.35 15.27,-13.17l4.65 -3.89c10.97,-9.32 18.07,-19.17 21.32,-29.55 1.03,-3.46 1.37,-6.92 1.03,-10.4 -1.33,-13.43 -12,-27.32 -32.02,-41.65l-12.9 -10.15c-2.25,-1.15 -4.27,-1.64 -6.09,-1.46 -1.96,0.19 -4.15,1.59 -6.56,4.19 -2.41,2.6 -3.59,6.42 -3.55,11.45l0.13 1.36c0.42,4.22 2.65,7.51 6.69,9.85 6.58,3.32 11.91,6.33 15.99,9.05 4.08,2.72 8.02,6.34 11.82,10.84 2.64,3.55 4.11,6.83 4.4,9.85 0.32,3.17 -1.07,6.82 -4.17,10.94 -3.1,4.11 -8.68,8.13 -16.76,12.06 -8.07,3.92 -15.35,7.04 -21.83,9.36l-7.9 3.3c-3.44,2.17 -4.99,5.06 -4.63,8.69 0.08,0.75 0.52,2.58 1.34,5.46 0.82,2.9 3.38,6.04 7.68,9.42 3.3,2.57 6.54,3.7 9.71,3.39zm75.42 25.01c1.66,-0.17 3.28,-0.79 4.85,-1.86 16.48,-13.67 33.44,-36.38 50.88,-68.14 5.79,0.04 14.58,-0.53 26.35,-1.69l-2.21 -22.42 -14.04 1.39c4.43,-12.18 6.12,-23.63 5.06,-34.35 -0.39,-3.92 -1.15,-7.81 -2.29,-11.66 -6.49,-16.28 -15.65,-25.59 -27.46,-27.92 -4.2,-0.81 -8.26,-1.02 -12.19,-0.63 -7.24,0.72 -15.09,4.24 -23.53,10.56 -8.45,6.32 -13.29,16.33 -14.53,30.02 -0.07,2.3 0,4.58 0.22,6.84 0.99,9.97 5.02,19.17 12.11,27.62 7.09,8.44 16.61,14.58 28.58,18.43 -6.16,10.21 -12.91,18.62 -20.26,25.21 -7.35,6.6 -14.09,12.11 -20.2,16.52 -1.86,1.26 -3.64,2.58 -5.33,3.96 -2.79,2.57 -4.02,5.58 -3.67,9.05 0.11,1.21 0.68,3.44 1.69,6.7 1,3.25 3.73,6.49 8.16,9.71 2.64,2.03 5.25,2.91 7.81,2.66zm42.33 -94.52c-6.85,-1.45 -13.09,-4.38 -18.71,-8.78 -5.62,-4.4 -8.79,-10.29 -9.52,-17.69 -0.69,-6.95 1.09,-12.84 5.33,-17.68 3.59,-3.86 7.5,-6 11.72,-6.42 0.9,-0.09 2.97,0.01 6.2,0.3 3.23,0.29 6.5,4.77 9.79,13.44 0.67,2.07 1.12,4.31 1.36,6.73 0.86,8.75 -1.2,18.79 -6.17,30.1zm40.66 22.74c21.86,-2.47 37.55,-8.75 47.08,-18.84 9.91,-10.74 14.14,-23.43 12.69,-38.07 -1.14,-11.47 -5.65,-22.46 -13.55,-32.96 -7.9,-10.5 -18.62,-17.9 -32.15,-22.21 -1.88,-0.42 -3.57,-0.55 -5.07,-0.4 -2.42,0.23 -4.45,1.27 -6.1,3.11 -2.46,2.84 -3.52,5.99 -3.18,9.47 0.05,0.45 0.21,1.73 0.49,3.83 0.29,2.11 2.73,4 7.32,5.68 10.09,3.42 18.14,10.1 24.16,20.02 2.91,4.75 4.6,9.53 5.07,14.36 0.51,5.14 -0.81,11.37 -3.98,18.69 -3.16,7.32 -14.82,12.29 -35,14.9l-1.81 0.18c-0.96,2.53 -1.25,5.76 -0.87,9.69l0.43 4.3c0.24,2.41 1.13,5.22 2.66,8.43l1.81 -0.18zm3.62 -146.02c1.36,-0.14 2.77,-0.51 4.24,-1.11l61.42 -37.86 47.04 -33.01c3.55,-2.64 5.12,-6.07 4.7,-10.3 -0.19,-1.96 -0.91,-3.8 -2.15,-5.5 -2.63,-3.55 -6.07,-5.12 -10.29,-4.7 -1.81,0.18 -3.65,0.89 -5.51,2.14l-45.75 32.2c-13.38,8.03 -25.08,14.6 -35.09,19.71 -9.14,4.71 -18.01,9.78 -26.62,15.21 -4.18,2.39 -6.08,5.63 -5.67,9.71l0.36 3.62c0.21,2.11 2.05,4.6 5.53,7.45 2.33,1.91 4.92,2.72 7.79,2.44z"/>
  </g>
 </g>
</svg>
