<?xml version="1.0" encoding="UTF-8"?>
<!DOCTYPE svg PUBLIC "-//W3C//DTD SVG 1.1//EN" "http://www.w3.org/Graphics/SVG/1.1/DTD/svg11.dtd">
<!-- Creator: CorelDRAW -->
<svg xmlns="http://www.w3.org/2000/svg" xml:space="preserve" width="1920px" height="1080px" version="1.1" style="shape-rendering:geometricPrecision; text-rendering:geometricPrecision; image-rendering:optimizeQuality; fill-rule:evenodd; clip-rule:evenodd"
viewBox="0 0 1920 1080"
 xmlns:xlink="http://www.w3.org/1999/xlink"
 xmlns:xodm="http://www.corel.com/coreldraw/odm/2003">
 <defs>
  <style type="text/css">
   <![CDATA[
    .fil11 {fill:none}
    .fil8 {fill:#0B2842}
    .fil6 {fill:#0D3151}
    .fil10 {fill:#17161A}
    .fil4 {fill:#2B709E}
    .fil2 {fill:#499DD1}
    .fil0 {fill:#63ADDB}
    .fil7 {fill:black}
    .fil9 {fill:#0B2842;fill-rule:nonzero}
    .fil5 {fill:#2B709E;fill-rule:nonzero}
    .fil3 {fill:#499DD1;fill-rule:nonzero}
    .fil1 {fill:#63ADDB;fill-rule:nonzero}
   ]]>
  </style>
 </defs>
 <g id="Layer_x0020_1">
  <metadata id="CorelCorpID_0Corel-Layer"/>
  <path class="fil0" d="M1920 568.19c-58.65,-1.84 -178.52,-5.88 -196.87,-2.68 -73.47,12.84 -42.31,2.01 -67.28,-12.52 -6.3,-3.67 -14.51,-4.3 -22.21,-7.68 -19.34,-8.46 -23.14,-20.18 -38.37,-25.54 -30.67,-10.79 -52.51,-38.19 -84.7,-41.09 -19.06,22.59 -15.6,5.72 -37.68,20.26 -38.12,25.12 -34,30.16 -47.87,37.14 -10.36,5.21 -7.1,0.91 -16.23,9.42 -17.08,15.89 -10.9,12.24 -39.25,16.42 -31.54,4.65 -68.1,7.33 -90.44,-15.4 -15.41,-15.69 -1.73,-14.9 -27.05,-28.46 -14.11,-7.57 -22.69,-13.21 -35.35,-20.52 -39.25,-3.26 -26.5,10.72 -51.1,13.25 -33.63,-34.37 -20.07,-11.89 -33.59,-33.86 -8.66,-14.09 -3.67,-5.17 -17.76,-16.74 -7.96,-6.53 -8.69,-9.73 -17.05,-17 -49.25,-42.85 -52.02,8.75 -98.83,3.94 -13.12,-14.61 -23.62,-42.02 -35.04,-53.33 -9.37,-9.29 -14.36,-5.84 -23.71,-18.89 -9.23,-12.88 -2.57,-18.03 -16.79,-25.29 -6.69,4.12 -18.86,25.07 -25.3,33.79 -4.83,6.55 -6.38,11.36 -11.51,18.42l-78.18 71.19c-20.14,-6.82 -14.75,-16.29 -27.96,-27.93 -32.43,-28.59 -44.73,-8.17 -48.24,-5.94 -9.06,5.76 -7.42,2.38 -15.39,6.15 -15.94,7.52 -7.45,9.13 -19.14,22.73 -44.72,5.58 -42.6,16.47 -87.13,-1.79 -28.1,-11.52 -39.71,-23.91 -74.71,-32.87 -11.13,8.57 -5.96,7.83 -17.2,17.82 -23.69,21.05 -38.75,20.71 -51.68,41.95l-466.39 45.68 0 541.18 1920 0 0 -511.81z"/>
  <path class="fil1" d="M1920 568.69l-11.93 -0.38c-61.58,-1.94 -167.72,-5.3 -184.85,-2.31 -50.66,8.86 -51.96,6.47 -55.89,-0.76 -1.72,-3.16 -3.98,-7.31 -11.73,-11.82 -3.42,-1.99 -7.45,-3.09 -11.66,-4.22 -3.45,-0.94 -7.01,-1.9 -10.5,-3.43 -9.89,-4.33 -15.74,-9.5 -21.11,-14.24 -5.13,-4.54 -9.82,-8.69 -17.23,-11.29 -12.84,-4.52 -24.13,-11.93 -35.27,-19.25 -15.4,-10.11 -30.53,-20.04 -49.04,-21.78 -10.7,12.63 -14.39,12.89 -19.49,13.25 -3.85,0.26 -8.56,0.59 -18.13,6.9 -21.95,14.46 -29.87,22.25 -35.29,27.59 -4.02,3.96 -6.7,6.58 -12.63,9.57 -3.85,1.94 -5.85,2.58 -7.28,3.04 -2.36,0.75 -3.16,1 -8.84,6.3l-4.01 3.76c-5.36,5.05 -7.85,7.4 -11.14,8.78 -2.84,1.19 -6.21,1.62 -12.48,2.41 -3.11,0.39 -6.94,0.88 -11.88,1.6 -15.8,2.33 -32.86,4.17 -48.79,2.57 -15.99,-1.6 -30.82,-6.65 -42.08,-18.11 -6.28,-6.39 -7.79,-10.09 -9.02,-13.12 -1.77,-4.32 -2.96,-7.24 -17.92,-15.25 -9.02,-4.84 -15.78,-8.89 -22.79,-13.09 -3.93,-2.36 -7.94,-4.77 -12.46,-7.38 -22.77,-1.87 -27.81,2.09 -33,6.19 -3.77,2.97 -7.62,6.01 -17.91,7.06l-0.24 0.03 -0.17 -0.17c-17.05,-17.43 -21.91,-20.19 -24.35,-21.57 -2.49,-1.41 -2.6,-1.48 -9.31,-12.38 -5.14,-8.37 -5.4,-8.5 -7.75,-9.74 -1.64,-0.86 -4.26,-2.24 -9.9,-6.87 -4.13,-3.4 -6.33,-5.89 -8.63,-8.51 -2.15,-2.44 -4.4,-5 -8.43,-8.51 -29.05,-25.27 -41.76,-17.38 -57.06,-7.87 -10.58,6.57 -22.39,13.9 -41.49,11.93l-0.32 -0.16c-6.54,-7.28 -12.42,-17.71 -18.09,-27.75 -5.72,-10.14 -11.23,-19.9 -16.93,-25.56 -3.91,-3.87 -7.06,-5.51 -10.09,-7.08 -4.22,-2.18 -8.22,-4.25 -13.68,-11.87 -3.76,-5.25 -4.91,-9.23 -5.89,-12.59 -1.38,-4.76 -2.39,-8.24 -10.46,-12.42 -4.64,3.08 -11.92,14.11 -18.03,23.37 -2.6,3.95 -5,7.58 -6.9,10.15 -2.39,3.23 -3.98,6.06 -5.6,8.95 -1.64,2.91 -3.32,5.9 -5.91,9.46 -18.14,20.69 -56.51,51.32 -78.46,71.47l-0.28 -0.1c-12.43,-4.2 -15.28,-9.41 -18.62,-15.5 -2.1,-3.82 -4.39,-8.02 -9.51,-12.52 -28.09,-24.77 -40.82,-12.38 -45.85,-7.48 -0.74,0.72 -1.32,1.28 -1.79,1.58 -5.26,3.34 -6.99,3.66 -9.02,4.03 -1.45,0.26 -3.07,0.56 -6.43,2.15 -9.19,4.34 -10.09,6.65 -11.59,10.51 -1.1,2.81 -2.51,6.43 -7.38,12.09l-0.32 0.18c-12.78,1.59 -21.72,3.62 -29.02,5.27 -18.36,4.17 -26.42,5.99 -58.36,-7.1 -10.68,-4.38 -18.96,-8.86 -27.03,-13.24 -13.18,-7.15 -25.83,-14 -47.38,-19.55 -5.6,4.34 -6.93,6.23 -8.48,8.43 -1.46,2.08 -3.11,4.43 -8.5,9.22 -9.84,8.75 -18.19,13.81 -25.53,18.26 -10.28,6.23 -18.54,11.24 -26.05,23.58l-0.13 0.21 -466.69 45.71 0 -1 466.09 -45.65c7.61,-12.39 15.93,-17.44 26.27,-23.71 7.29,-4.41 15.6,-9.45 25.38,-18.15 5.3,-4.71 6.92,-7.01 8.34,-9.04 1.61,-2.3 2.99,-4.26 8.88,-8.79l0.2 -0.15 0.23 0.06c21.81,5.58 34.56,12.49 47.84,19.69 8.07,4.37 16.34,8.86 26.94,13.2 31.64,12.97 39.61,11.16 57.76,7.05 7.29,-1.65 16.22,-3.68 28.92,-5.27 4.66,-5.46 6.02,-8.94 7.09,-11.67 1.59,-4.09 2.55,-6.53 12.1,-11.04 3.47,-1.64 5.15,-1.95 6.67,-2.23 1.93,-0.35 3.57,-0.65 8.66,-3.89 0.39,-0.25 0.94,-0.78 1.64,-1.46 5.21,-5.08 18.42,-17.93 47.2,7.45 5.24,4.62 7.59,8.89 9.73,12.8 3.21,5.85 5.96,10.87 17.78,14.93l77.92 -70.96c2.53,-3.49 4.2,-6.44 5.82,-9.32 1.63,-2.91 3.23,-5.75 5.67,-9.05 1.89,-2.56 4.27,-6.18 6.87,-10.11 6.27,-9.5 13.76,-20.85 18.57,-23.82l0.24 -0.14 0.25 0.12c8.69,4.44 9.75,8.11 11.22,13.16 0.95,3.28 2.08,7.17 5.74,12.29 5.33,7.42 9.22,9.44 13.33,11.57 3.09,1.6 6.31,3.27 10.33,7.26 5.8,5.74 11.34,15.56 17.1,25.77 5.6,9.93 11.41,20.23 17.83,27.43 18.65,1.86 30.26,-5.35 40.67,-11.81 15.65,-9.72 28.64,-17.79 58.25,7.97 4.08,3.55 6.35,6.13 8.52,8.6 2.28,2.6 4.46,5.07 8.51,8.4 5.56,4.56 8.12,5.91 9.73,6.75 2.58,1.36 2.86,1.51 8.14,10.11 6.58,10.69 6.69,10.75 8.95,12.03 2.48,1.41 7.4,4.2 24.4,21.57 9.83,-1.05 13.54,-3.98 17.16,-6.84 5.36,-4.22 10.55,-8.32 33.81,-6.39l0.2 0.07c4.59,2.64 8.63,5.07 12.59,7.44 7,4.2 13.75,8.25 22.74,13.07 15.28,8.18 16.53,11.23 18.37,15.76 1.2,2.94 2.67,6.54 8.81,12.79 11.07,11.27 25.7,16.24 41.46,17.82 15.82,1.58 32.81,-0.25 48.55,-2.56 4.84,-0.72 8.74,-1.21 11.9,-1.61 6.19,-0.78 9.51,-1.2 12.22,-2.34 3.12,-1.31 5.58,-3.62 10.85,-8.59l4.01 -3.76c5.84,-5.44 6.7,-5.72 9.21,-6.52 1.41,-0.45 3.36,-1.08 7.14,-2.98 5.8,-2.92 8.42,-5.5 12.38,-9.39 5.45,-5.37 13.41,-13.2 35.44,-27.71 9.8,-6.46 14.64,-6.79 18.62,-7.07 4.88,-0.34 8.39,-0.59 18.95,-13.1l0.17 -0.19 0.26 0.02c18.88,1.7 34.18,11.74 49.76,21.97 11.08,7.28 22.31,14.65 35.05,19.14 7.59,2.66 12.35,6.88 17.56,11.48 5.31,4.7 11.1,9.81 20.85,14.08 3.4,1.49 6.94,2.45 10.36,3.37 4.27,1.16 8.37,2.27 11.91,4.32 7.99,4.66 10.32,8.94 12.1,12.21 3.67,6.76 4.89,8.99 54.84,0.26 17.22,-3.01 123.43,0.35 185.05,2.3l11.9 0.37 0 1z"/>
  <path class="fil2" d="M741.74 574.74l-741.74 85.52 0 419.74 1920 0 0 -435.84 -707.06 -55.48c-16.34,-12.63 -55,-29.54 -76.25,-40.22 -50.44,-25.35 -28.53,-12.22 -73.31,4.54 -22.01,-19.25 -37.58,-49.39 -56.86,-62.6l-33.15 51.4 -63.89 -33.9 -63.47 58.11 -38.58 -9.73c-26.8,25.04 -11.45,19.76 -65.69,18.46z"/>
  <path class="fil3" d="M741.76 575.24l-741.76 85.53 0 -1.01 741.75 -85.52c10.12,0.25 17.81,0.63 23.8,0.92 10.27,0.51 15.55,0.77 19.45,-0.32 4.08,-1.15 6.77,-3.84 12.29,-9.39 2.54,-2.55 5.68,-5.69 9.8,-9.54l0.2 -0.19 38.59 9.74 63.52 -58.16 63.8 33.84 33.18 -51.44 0.42 0.29c10.31,7.06 19.52,18.88 29.21,31.3 8.46,10.85 17.29,22.17 27.47,31.13 14.09,-5.29 21.5,-10.23 26.68,-13.67 11.34,-7.54 12.19,-8.11 46.75,9.26 5.26,2.65 11.56,5.66 18.32,8.89 20.61,9.86 45.51,21.77 57.9,31.29l706.87 55.46 0 1.01 -707.09 -55.48 -0.27 -0.1c-12.27,-9.49 -37.21,-21.42 -57.84,-31.28 -6.78,-3.24 -13.11,-6.27 -18.33,-8.9 -34.05,-17.11 -34.87,-16.56 -45.76,-9.32 -5.25,3.49 -12.77,8.5 -27.16,13.88l-0.28 0.11 -0.22 -0.2c-10.36,-9.05 -19.28,-20.5 -27.83,-31.46 -9.5,-12.2 -18.55,-23.8 -28.56,-30.81l-33.12 51.35 -63.99 -33.94 -63.4 58.05 -38.58 -9.73c-4.02,3.76 -7.08,6.83 -9.57,9.33 -5.65,5.66 -8.4,8.42 -12.73,9.64 -4.05,1.14 -9.39,0.87 -19.77,0.36 -5.99,-0.3 -13.68,-0.68 -23.74,-0.92z"/>
  <path class="fil4" d="M1920 499.72c-8.39,1.03 -16.41,2.49 -24.35,5.26 -13.38,4.67 -14.22,1.44 -25.1,3.7 -19.16,3.99 -66.1,37.81 -87.28,49.65 -8.31,4.65 -0.23,-2.41 -8.86,5.52l-23.98 16.44c-2.74,1.88 1.27,0.49 -7.78,5.04 -18.4,9.25 -47.92,24.22 -61.71,37.63 -55.24,-7.98 -64.16,-13.34 -111.36,-25.19l-105.87 -25.92 -61.57 27.16c-8.48,3.08 -18.92,9.78 -27.73,14.33 -59.02,30.45 -85.79,-0.93 -161.47,-24.66l-44.7 61.37c-28.66,-3.05 -45.48,-18.95 -71.31,-27.37l-44.8 51.67c-26.78,-9.26 -47.41,-30.82 -70.18,-47.53 -23.65,-17.35 -26.02,-8.49 -82.64,2.27 -54.86,10.41 -41.79,10.19 -85.33,-12.83 -17.32,-9.16 -59.42,-28.22 -72.24,-41.52 -40.63,-7.58 -16.14,-27.87 -66.38,-8.14 -31.93,12.53 -49.6,-2.33 -79.05,-14l-142.57 -59.34c-19.13,-2.74 -39.25,-11.13 -67.78,-14.32 -86.89,-9.71 -56.43,2.37 -123.55,-44.26 -79.25,-55.05 -57.1,-36.19 -183.39,-63.33 -24.53,-5.28 -52.08,-12.43 -79.02,-18.52l0 727.17 1920 0 0 -580.28z"/>
  <path class="fil5" d="M1920 500.23c-8.34,1.02 -16.31,2.48 -24.19,5.22 -7.97,2.78 -11.54,2.79 -15.39,2.8 -2.61,0 -5.36,0.01 -9.77,0.92 -13.08,2.72 -39.32,19.52 -61.31,33.6 -10.03,6.42 -19.18,12.28 -25.82,16 -3.09,1.73 -4.22,1.87 -4.68,1.68 -0.26,0.23 -0.76,0.69 -1.67,1.53 -7.43,6.86 -17.99,12.91 -26.46,18.72 -0.83,0.57 -0.96,0.79 -1.08,0.98 -0.33,0.55 -0.61,1.01 -6.76,4.1 -9.19,4.62 -21.17,10.67 -32.55,17.24 -11.38,6.56 -22.17,13.63 -29.04,20.3l-0.17 0.17 -0.24 -0.03c-39.45,-5.7 -55.3,-10.07 -78.32,-16.42 -9.21,-2.54 -19.56,-5.39 -33.1,-8.79l-105.69 -25.88 -61.45 27.11c-5.65,2.05 -12.2,5.74 -18.56,9.31 -3.12,1.76 -6.2,3.49 -9.11,4.99 -43.26,22.33 -69.25,11.59 -109.62,-5.09 -14.82,-6.12 -31.58,-13.04 -51.88,-19.43l-44.67 61.32 -0.28 -0.03c-17.58,-1.87 -30.7,-8.54 -44.14,-15.37 -8.46,-4.3 -17.06,-8.66 -26.97,-11.93l-44.8 51.68 -0.31 -0.11c-19.48,-6.74 -35.68,-19.92 -51.8,-33.04 -6.12,-4.98 -12.23,-9.95 -18.51,-14.56 -17.22,-12.63 -23.06,-11.21 -47.34,-5.33 -8.78,2.13 -19.97,4.85 -34.92,7.69l-10.33 1.98c-19.27,3.72 -28.22,5.44 -35.9,4.29 -6.67,-1.01 -12.31,-4.16 -22.81,-10.05 -4.5,-2.52 -9.89,-5.55 -16.62,-9.1 -3.71,-1.96 -8.65,-4.42 -14.2,-7.19 -19.95,-9.94 -47.85,-23.85 -58.05,-34.31 -16.14,-3.03 -22.04,-8.07 -26.42,-11.81 -6.46,-5.52 -9.51,-8.11 -39.53,3.67 -25.69,10.09 -42.18,2.59 -62.86,-6.81 -5.16,-2.35 -10.6,-4.82 -16.55,-7.18l-142.52 -59.33c-8.06,-1.16 -16.3,-3.32 -25.26,-5.66 -12.3,-3.22 -25.98,-6.8 -42.45,-8.64 -16.28,-1.82 -28.49,-2.88 -37.97,-3.7 -16.1,-1.4 -24.36,-2.11 -31.79,-4.78 -7.85,-2.81 -14.69,-7.75 -28.74,-17.9 -6.53,-4.72 -14.63,-10.57 -25.28,-17.97 -58.03,-40.32 -61.6,-40.93 -109.12,-49.08 -17.3,-2.97 -40.43,-6.94 -74.09,-14.17 -13.61,-2.93 -28.26,-6.47 -43.22,-10.07 -11.81,-2.85 -23.81,-5.74 -35.69,-8.43l0 -1.03c11.96,2.71 24.04,5.62 35.92,8.49 14.89,3.59 29.47,7.11 43.2,10.06 33.65,7.23 56.76,11.2 74.05,14.16 47.72,8.19 51.3,8.81 109.52,49.25 10.47,7.28 18.68,13.2 25.29,17.98 13.97,10.09 20.78,15.01 28.49,17.77 7.32,2.62 15.53,3.33 31.54,4.72 9.45,0.82 21.61,1.87 38,3.7 16.55,1.85 30.26,5.44 42.59,8.67 8.95,2.34 17.17,4.5 25.21,5.65l0.12 0.03 142.57 59.35c5.91,2.34 11.39,4.83 16.59,7.2 20.47,9.31 36.79,16.73 62.09,6.79 30.58,-12 33.77,-9.28 40.54,-3.5 4.3,3.68 10.12,8.64 26.11,11.62l0.26 0.15c9.98,10.34 37.94,24.27 57.9,34.21 5.52,2.75 10.42,5.2 14.22,7.21 6.77,3.57 12.15,6.59 16.63,9.1 10.4,5.83 15.98,8.96 22.48,9.94 7.52,1.13 16.41,-0.59 35.56,-4.28l10.33 -1.98c14.95,-2.84 26.12,-5.55 34.88,-7.67 24.64,-5.98 30.57,-7.41 48.16,5.49 6.28,4.61 12.41,9.59 18.55,14.59 15.96,12.99 32.01,26.05 51.17,32.75l44.8 -51.66 0.31 0.1c10.11,3.3 18.83,7.73 27.42,12.09 13.29,6.75 26.26,13.34 43.51,15.23l44.74 -61.42 0.34 0.1c20.46,6.42 37.37,13.4 52.3,19.57 40.12,16.57 65.93,27.24 108.8,5.12 2.88,-1.49 5.96,-3.22 9.08,-4.97 6.37,-3.59 12.95,-7.29 18.67,-9.37l61.57 -27.16 0.32 -0.03 105.86 25.92c13.49,3.39 23.88,6.25 33.12,8.8 22.93,6.32 38.73,10.68 77.96,16.35 6.93,-6.68 17.71,-13.74 29.05,-20.27 11.42,-6.59 23.4,-12.65 32.6,-17.27 5.89,-2.97 6.1,-3.31 6.36,-3.72 0.17,-0.29 0.36,-0.6 1.36,-1.29l23.96 -16.42 2.4 -2.21c1.3,-1.21 1.8,-1.67 2.04,-1.82 0.6,-0.38 0.71,-0.13 0.89,0.25 0.02,0.06 0.08,0.18 3.6,-1.78 6.6,-3.69 15.75,-9.55 25.77,-15.97 22.06,-14.12 48.39,-30.98 61.65,-33.73 4.5,-0.94 7.31,-0.95 9.97,-0.95 3.76,-0.01 7.25,-0.02 15.07,-2.74 8,-2.79 16.07,-4.26 24.51,-5.29l0 1.01z"/>
  <path class="fil6" d="M0 615.06l8.6 -21.48 6.08 20.78 9.51 -14.87 10.43 25.02 4.84 -19.01 6.84 18.33c11.2,-6.27 2.23,2.1 11.86,-11.02l6.45 15.71 8.25 -27.72 9.25 30.43c1.5,-0.07 2.63,-0.84 2.77,-0.23l11.71 8.81 9.81 -20.59 5.52 21.85c14.87,2.15 7.79,-0.33 18.74,5.04l6.62 -13.63c4.02,8.91 1.23,4.21 9.54,7.66l6.21 -30.2 9.16 25.82c8.08,-6.14 3.58,0.83 9.21,-12.15l7.5 26.88 8.35 -22.96 6.88 23.82 7.99 -15.25 7.46 12.66 8.37 -30.34 9.63 25.81c0.42,-2.5 0.37,-3.14 2.42,-7.25l7.46 -12.33c2.78,12.99 0.65,9.71 8.1,17.34l5.78 -15.06c6.35,13.42 3.58,4.68 7.76,9.35l4.68 -21.76c8.03,7.55 3.5,-0.96 11.68,13.82l4.75 -16.38 7.44 6.03c0.57,0.56 1.8,2.01 2.31,2.53 0.51,0.53 1.44,1.83 2.18,2.71l6.92 -29.16 8.41 22.67 7.08 -26.07c7.16,12.96 3.85,14.52 8.72,26.15 7.46,17.78 2.53,-4.01 14.66,20l8.41 -23.32 8.35 27.86c8.63,-3.95 10,-0.81 14.47,2.91l7.27 -14.63 7.71 17.78c4.17,1.54 -3.34,19.09 8.71,-3.63l5.33 15.61 7.79 -18.43 10.04 16.55 7.03 -21.34 8.48 23.01 8.28 -21.39 12.15 26c12.59,4.18 8.28,10.47 8.29,10.58l9.61 -17.42c0.54,-0.88 1.51,-2.25 2.3,-3.36l10.82 32.35 3.35 -13.09 7.8 27.96 5.06 -30.11c0.59,-0.32 9.88,19.74 10.81,19.19l5.21 -23.03 9.88 25.25 9.74 -24.34 7.98 25.45 7.85 -8.72 0.26 34.57 6.29 -17.18 4.68 11.32 6.51 -19.84 6.77 25.82 8.1 -17.97 5.04 22.7 6 -4.25 7.49 -37.5 10.13 25.71 5.72 -48.19 8.32 38.21 4.62 -22.96 6.77 24.66 10.04 -21.15 6.4 22.93 8.19 -18.81 8.25 20 7.48 -12.41c0.5,-0.76 1.59,-2.11 2.36,-3.19 0.89,0.95 2.6,1.08 2.8,2.74l12.48 -28.09 6.98 22.32c7.53,-4.38 6.96,-4.18 11.64,-11.89l6.33 16.48 8.55 -31.24 8.04 23.95 7.55 -22.61 9.36 22.85c1.74,-8.58 5.68,-11.47 12.28,-16.12l5.34 22.54 5.55 -15.79 11.23 20.45 4.62 -16.19 8.73 17.74 6.63 -22.48c3.92,7.8 6.54,23.06 10.97,23.16 0.23,0 3.28,-1.74 3.52,-1.85l11.28 26.85c0.6,-0.39 5.22,-5.1 5.3,-5.15 0.27,-0.19 1.4,-0.81 1.68,-0.99 8.74,-5.38 9.18,-16.39 12.08,-26.38 2.33,1.56 3.41,1.81 3.67,3.59 0.25,1.73 1.47,2.29 1.8,3.07 1.48,3.51 1.62,3.47 2.62,6.48 3.8,11.58 5.59,21.02 16.19,25.43l6.62 -25.16 24.06 38.19 6.48 -24.71c0.23,0.89 1.21,1.17 1.44,2.84 0.22,1.63 1.36,2.22 1.65,2.94 0.36,0.91 1.99,5.08 2.4,6.38 8.69,27.21 8.69,12.22 18.3,35.27l7.85 -23.88 7.77 29.79 6.79 -11.23 7.24 15.99 8.37 -27.75 8.54 24.23 8.4 -21.11 4.42 17.02 8.63 -14.23 18.82 39.16c0.56,0.47 1.9,1.74 2.38,2.16 0.53,0.46 1.72,1.63 2.57,2.46l6.31 -26.44 8.83 21.36 7.71 -18.67 7.34 26.07c1.44,-0.12 3.85,-0.82 10.93,-2.56l5.03 19.57c4.7,2.1 -1.17,9.44 5.89,-2.58 7.16,16.1 7.3,11.56 14.63,14.98 6.07,2.84 2.95,-0.09 8.65,4.5l9.15 -25.42 7.24 24.53 8.54 -14.84 3.67 13.6 11.67 -22.7 5.23 15.19c2.73,-1.82 3.86,-4.84 4.31,-3.99l7.03 -7.62c7.03,-7.53 10.04,-21.95 14.32,-37.6l7.01 26.22c5.98,-8.31 -1.19,7.99 5.36,-8.58 3.5,-8.86 -0.18,2.9 2.65,-10.99l7.21 18.03 8.36 -19.23 10.07 12.87 6.33 -30.46 8.48 24.06 8.01 -24.89 5.98 17.84 11.03 -25.44c2.06,8.17 2.38,26.3 11.05,24.16 0.41,-0.1 1.58,-0.98 2.01,-1.13l16.43 -31.31 8.51 18.24 6.64 -29.77 11.24 29.24c4.9,-20.4 2.57,-8.66 10.53,-13.53l5.23 30.66c9.66,-13.45 -0.71,-8.77 15.84,-2.8l5.67 -13.71c12.36,16.47 10.67,-2.23 14.17,-22.58l10.95 27.15 17.92 0.71 4.91 -17.69 8.3 16.94 6.44 -16.32 6.35 15.16c4.76,-14.87 5.39,-35.1 16.36,-46.88 1.88,12.62 4.65,24.94 9.59,33.39 -1.46,-17.1 4.58,-13.66 6.34,-15.99l5.45 26.74 6.96 -22.79c0.01,0.93 1.21,1.29 1.58,3.37l7.84 12.92 7.39 -35.39 10.57 37.28c7.05,-16.42 2.19,-5.07 11.41,-10.57l6.62 35.76 8.76 -15.54 7.52 18.77c1.56,-0.9 -0.97,-5.56 14.82,2.24l10.19 -18.79 4.52 21.03c7.97,-2.57 8.39,-7.53 17.52,-2.83l8.17 -34.71 7.9 28.95 9.69 -5.92 7.33 23.33 8.68 -15.98c-1.32,-0.59 2.73,7.08 3.47,7.91 8.49,9.67 -2.87,2.87 3.57,1.73l8.23 -22.96 6.69 12.68 9.15 -30.06 11.67 25.71 5.36 -15.87 9.23 23.01 7.28 -15.95 8.66 20.6 8.81 -21.7 4.54 12.31 8.82 -19.51c1.55,1.22 2.65,1.48 2.94,3.09 0.27,1.55 1.58,2.2 1.93,2.76 0.01,0.04 4.25,7.37 4.53,7.87l7.44 -17.89 7.71 25.93c5.33,-4.92 -1.1,0.24 4.29,-5.33 0.35,-0.35 1.32,-1.51 1.71,-1.88 0.36,-0.34 1.38,-1.24 1.76,-1.57 0.33,-0.29 1.4,-0.94 1.73,-1.21l8.66 -10.85 6.44 17.75 9.4 -42.72c9.71,-3.64 -2.63,-10.47 6.73,-0.23 6.85,7.5 0.86,3.79 0.63,5.55l14.2 -20.4c0.34,0.04 2.14,0.41 2.47,0.45 4.24,0.36 -0.27,12.48 1.57,-0.63 3.95,-13.41 18.38,-23.28 31.05,-30.9l14.9 -12.14c14.67,-16.34 26.11,-14.45 39.95,-36.93 7.05,-11.45 -0.78,-5.24 7.93,-9.71 5.86,-3 5.78,-0.67 11.11,3.81 5.61,-14.08 8.13,-13.33 17.28,-19.62 1.55,-1.06 2.78,-1.97 3.77,-2.75l0 466.82 -1920 0 0 -464.94z"/>
  <path class="fil7" d="M1171.01 956.99c-1.19,1.86 -0.59,5.44 -0.59,7.65l0.59 -7.65z"/>
  <path class="fil7" d="M1169.24 971.69c0.13,0.67 1.29,1.29 0.79,0.12 -0.21,-0.49 -1.07,-1.65 -0.79,-0.12z"/>
  <path class="fil7" d="M1115.74 945.24c-0.73,0.73 0.69,0.78 0.27,0.01l-0.27 -0.01z"/>
  <path class="fil7" d="M1154.54 998.73l0.18 -0.17c-0.01,0.01 -0.23,0.11 -0.18,0.17z"/>
  <path class="fil7" d="M1167.48 993.44l0.17 -0.17c-0.01,0.01 -0.23,0.11 -0.17,0.17z"/>
  <path class="fil8" d="M1920 752.82c-0.52,0.65 -1.23,2.16 -1.8,2.8 -9.17,-4.07 -8.42,-1.53 -9.85,-7.51 -5.85,17.77 -0.37,6.92 -13.58,10.89 -20.88,6.27 9.23,-10.16 -5.01,1.73l-3.42 5c-0.32,-0.93 -1.37,2.27 -2.21,3.29 -5.48,-2.71 -7.22,1.74 -10.25,-8.33 -5.5,19.59 -23.96,25.11 -42.2,20.7l-2.97 15.33c-15.08,-1.35 -5.97,1.6 -16.02,-4.39 -3.69,19.83 -13.71,23.89 -18.67,32.49 -0.3,0.52 -1.55,3.48 -1.78,2.78 -0.25,-0.75 -1.28,1.97 -2.02,2.88 -3.84,-6.96 -6.78,-16.65 -10.47,-23.61l-2.06 15.64c-13.11,0.83 -13.03,-1.4 -18.87,4.38 -3.49,3.45 -9.4,24.11 -19.64,25.44l-14.93 7.45c-0.34,-0.87 -1.76,1.32 -2.61,2 -4.86,-13.12 -7.18,-13 -10.28,-29.71l-10.36 20.71c-0.85,-0.93 -2.01,-2.14 -2.52,-2.81l-7.22 -13.01 -6.1 24.16c-14.44,-5.14 -6.86,11.36 -12.37,-15.65 -3.58,14.4 0.85,2.23 -8.18,12.47 -8.91,-3.09 -7.17,-0.97 -14.94,-5.55 -6.71,-3.96 -1.41,0.15 -6.25,-7.01 -1.33,18.25 -10.67,15.58 -18.85,32.29 -17.07,-13.69 -19.18,-0.74 -27.01,-25.3 -4.42,6.64 -6.7,7.06 -9.12,1.14 -5.1,10.33 -5.61,9.34 -15.22,13.96l-14.07 -17.71 -5.99 24.35c-14.44,-4.88 -6.85,11.51 -12.38,-12.79l-10.14 18.32 -8.52 -17.71c-4.19,9.37 -5.76,16.86 -14.26,20.22 -0.27,0.11 -1.39,-0.04 -1.63,0.02l-34.68 11.98c-29.11,12.53 15.45,-3.13 -9.06,4.44l-5.17 -6.93c-0.3,-0.3 -1.15,-1.17 -1.46,-1.43 -5.48,-4.68 8.1,3.34 -4.72,-2.44 -17.16,-7.76 14.92,6.11 -6.96,-2.56 -14.53,-5.76 -0.94,10.31 -3.93,-1.73 -0.22,-0.88 -1.44,-0.69 -2.08,-1.15l-9.75 17.69 -8.52 -16.52c-5.91,6.73 -3.55,3.84 -7.46,6.37 -6.25,4.04 -1.76,0.81 -1.9,0.18 -2.52,9.46 -1.3,13.32 -7.52,18.61 -17.85,15.18 -5.68,1.19 -10.39,-2.37 -13.5,-10.19 10.39,1.58 -2.18,-1.7l-26.54 5.72c-0.62,0.71 -1.56,1.68 -2.17,2.39 -0.61,0.71 -1.56,1.81 -2.1,2.47l-5.65 7.73c-9.54,-7.41 -15.58,-12.64 -19.25,-24.71 2.08,4.56 4.57,0.11 -3.68,17.11l-4.86 7.67c-0.92,-1.21 -1.93,-2.74 -2.6,-3.74 -0.63,-0.93 -1.71,-2.47 -2.41,-3.52l-6.71 -9.73c3.72,-10.63 -1.21,-0.84 -2.11,-1.17 -5.8,-2.12 -3.38,1.64 -3.79,-3.51 -3.19,15.29 -6.35,24.34 -16.45,34.52 -10.55,-6.57 -7.55,-6.44 -12.78,-17.69 -3.27,7.68 -2.13,6.35 -6.62,11.17 -7.48,8.05 -5.79,4.92 -12.1,9.29 -4.17,-5.87 -7.16,-9.72 -11.07,-18.89 3.27,4.31 4.68,0.85 -2.14,13.43 -10.57,-17.37 -13,-46.26 -18.69,-65.07l-15.4 42.1 -14.91 -49.94 -15.62 61.67 -10.83 -34.93 -7.71 24.99c-11.01,-17.28 -8.45,-47.82 -21.63,-65.2 -3.89,15.07 -7.82,38.47 -14.35,49.75l-10.65 -41.56 -15.38 49.7 -14.78 -44.66 -10.76 33.28 -13.67 -59.62 -9.65 22.47c-2.72,11.68 -2.99,12.92 -8,21.68 -2.92,-12.19 -6.32,-36.75 -13.06,-47.47 -10.5,14.84 -8.94,39.31 -19.23,58.9l-12.08 -34.82 -7.02 16.93c-12.03,-18.1 -4.47,-49.46 -21.29,-68.47 -3.23,4.38 -3.19,1.16 -7.18,12.42l-9.97 40.44c-4.16,-7.23 -3.06,-6.62 -5.54,-14.07l-8.49 -16.63c-3.12,9.08 -2.87,30.2 -13.19,35.6l-14.07 -58.18 -17.19 72.09c-9.06,-10.14 -3.08,-10.51 -13.97,-27.4l-11.7 41.81c-6.62,-14.68 -10.91,-40.59 -15.76,-58.21l-9.68 25.43 -22.09 -79.89 -18.87 81.28 -9.28 -26.54 -8.53 26.88 -23.1 -81.19 -8.6 40.56 -8.51 -21c-1.08,-5.19 -1.34,-9.68 -3.19,-14.68 -2.56,-6.89 -3.04,-4.93 -5.34,-7.98 -9.93,15.18 -12.91,44.33 -16.71,61.63l-6.32 -10.77c-0.4,-0.95 -0.65,-2.27 -1.02,-3.22 -2.98,-7.81 -0.91,-4.91 -4.72,-11.69 -2.96,15.93 -6.46,33.02 -12.16,44.92 -2.81,-11.52 -3.18,-40.72 -21.03,-36.72l-19.85 -76.26c-8.25,12.52 -9.08,29.6 -12.92,45.78 -5.59,-10.07 -4.17,-8.03 -7.43,-20.26l-10.02 -19.22 -7.07 22.62c-7.72,-11.74 -11.12,-35.39 -12.61,-52.91l-11.39 -1.95c-10.03,-7.91 -4.6,0.64 -7.72,-18.34l-5 15.35c-4.86,-5.19 -3.43,3.59 -8.4,-12.36l-11.36 16.7 -9.64 -33.67c-0.01,0.35 0.57,3.14 -0.74,7.31 -2.12,6.71 -3.01,6.25 -5.54,10.13 -12.82,-14.63 -9.63,-16.28 -9.7,-16.8 -2.73,15.96 -1.02,24.12 -12.43,18.77 -0.07,-0.07 -6.16,-1.79 -7.68,-7.72 -8.47,11.46 -7.72,28 -11.67,42.54l-3.7 9.77c-0.2,-0.59 -1.1,1.93 -3.03,3.23l-6.24 -23.25c-4.18,4.55 -2.96,-0.1 -7.9,11.13l-9.3 27.63c-3.17,-7.96 -3.21,-12.83 -5.55,-24.01 -4.71,-22.57 -8.93,-17.18 -13.82,-20.61l-8.12 35.55c-9.78,-20.95 -7.03,-23.91 -11.14,-37.3 -3.79,-12.37 -2.62,-6.22 -4.72,-9.66 -13.13,22.02 -9.65,45.17 -20.54,64.79l-11.11 -24.08 -14.38 53.53 -15.43 -45.25 -6.67 29.62c-12.49,-3.75 -8.53,4.19 -12.93,-17.68 -2.94,-14.56 -0.37,-11.35 -8.39,-21.3l-12.76 39.54c-12.12,-18.98 -4.97,-28.51 -17.2,-47.06l-7.7 34.07 -17.69 -60.64c-12.62,17.72 -17.9,57.61 -23.07,81.57l-9.96 -13.14 -9.04 16.52c-2.89,-11.29 -4.83,-22.2 -7.69,-35.55 -4.36,-20.4 -2.24,-18.19 -11.27,-29.77l-13.82 50.83 -12.22 -36.06 -7.36 29.29c-10.32,-15.81 -9.59,-33.46 -15.28,-52.23 -16.96,19.37 -2.38,19.87 -19.09,41.45l-2.47 -21.49c-12.45,1.29 -7.91,-2.84 -15.31,4.88 -2.74,-12.26 -5.11,-19.79 -7.73,-31.09 -9.07,-39.21 -4.89,-21.44 -13.65,-29.22l-10.42 27.72 -7.68 -29.9c-2.36,-6.51 -3.41,-6.23 -5.59,-9.29 -8.95,12.74 -5.76,12.76 -11.18,29.39 -6.03,-11.02 -8.85,-33.76 -13.32,-46.16 -3.94,4.61 -2.92,1.34 -6.45,9.08l-7.38 24.43c-7.41,-12.23 -4.47,-22.12 -10.8,-33.99 -4.05,-7.59 -2.74,-3.8 -6.65,-8.31l-9.53 35 -15.22 -49.14 -14.83 51.73 0 387.95 1920 0 0 -327.18z"/>
  <path class="fil9" d="M1920 753.71l-0.36 0.62c-0.35,0.6 -0.72,1.23 -1.06,1.62l-0.25 0.27 -0.33 -0.14c-2.65,-1.18 -4.5,-1.81 -5.79,-2.25 -1.21,-0.41 -1.96,-0.67 -2.51,-1.09 -0.73,-0.55 -1.03,-1.28 -1.42,-2.8 -0.61,1.89 -1.07,3.38 -1.43,4.56 -0.88,2.86 -1.24,4.03 -1.81,4.48 -0.51,0.41 -0.96,0.27 -1.71,0.04 -1.19,-0.37 -3.41,-1.05 -8.42,0.45 -1.68,0.51 -3.06,0.86 -4.17,1.09l-0.6 0.51 -3.95 5.75 -0.12 -0.34 -0.45 0.91c-0.35,0.72 -0.73,1.5 -1.1,1.95l-0.25 0.31 -0.36 -0.18c-1.68,-0.83 -3,-0.96 -4.11,-1.07 -2.45,-0.23 -3.99,-0.38 -5.91,-6.03 -2.79,8.52 -8.13,14.24 -14.82,17.52 -7.78,3.82 -17.41,4.33 -27,2.11l-2.95 15.25 -0.45 -0.03c-5,-0.45 -7.33,-0.42 -8.58,-0.41 -0.74,0.01 -1.13,0.01 -1.5,-0.09 -0.42,-0.11 -0.72,-0.33 -1.32,-0.77 -0.69,-0.52 -1.86,-1.39 -4.23,-2.83 -2.63,13.37 -8.16,19.48 -12.96,24.79 -2.13,2.36 -4.13,4.56 -5.63,7.16l-0.31 0.63c-0.44,0.92 -1.11,2.31 -1.61,2.48 -0.16,0.05 -0.31,0.06 -0.43,0.01l-0.51 0.96c-0.32,0.61 -0.66,1.25 -0.98,1.64l-0.47 0.58 -0.36 -0.65c-2,-3.64 -3.77,-8.01 -5.51,-12.35 -1.38,-3.42 -2.76,-6.83 -4.24,-9.84l-1.9 14.46 -0.41 0.02c-3.65,0.23 -6.29,0.23 -8.32,0.22 -5.06,-0.01 -6.16,-0.01 -10.23,4.02 -0.99,0.98 -2.26,3.56 -3.79,6.71 -3.6,7.4 -8.68,17.81 -16.04,18.85l-15.36 7.66 -0.11 -0.29c-0.24,0.2 -0.57,0.57 -0.91,0.95 -0.35,0.4 -0.71,0.8 -1.02,1.04l-0.54 0.42 -0.23 -0.64c-1.64,-4.42 -2.99,-7.34 -4.18,-9.9 -2.23,-4.83 -3.9,-8.44 -5.84,-18.44l-10.03 20.04 -1.28 -1.39c-0.68,-0.74 -1.38,-1.49 -1.76,-1.99l-6.65 -11.97 -5.92 23.47 -0.52 -0.18c-5.74,-2.04 -7.8,-0.56 -8.65,0.06 -0.55,0.4 -0.85,0.61 -1.26,0.09 -0.22,-0.28 -0.29,-0.86 -0.44,-2.13 -0.23,-1.9 -0.66,-5.47 -1.9,-11.83 -0.41,1.74 -0.67,2.95 -0.85,3.78 -0.24,1.13 -0.34,1.6 -0.51,1.85 -0.24,0.36 -0.44,0.36 -0.77,0.35 -0.49,0 -1.64,-0.01 -5.62,4.51l-0.22 0.25 -0.32 -0.11c-3.36,-1.16 -5.19,-1.58 -6.6,-1.9 -2.36,-0.54 -3.55,-0.81 -8.44,-3.69 -1.45,-0.86 -2.33,-1.33 -2.87,-1.63 -0.57,-0.3 -0.82,-0.44 -0.98,-0.62 -0.17,-0.19 -0.2,-0.33 -0.25,-0.57 -0.07,-0.35 -0.22,-1.07 -1.52,-3.14 -0.99,9.74 -4.45,13.2 -8.74,17.49 -3.11,3.11 -6.68,6.68 -10.03,13.54l-0.28 0.56 -0.48 -0.39c-6.43,-5.15 -10.71,-6.49 -13.98,-7.5 -5.41,-1.69 -8.15,-2.55 -12.88,-17.07 -2.02,2.9 -3.63,4.46 -5.08,4.66 -1.51,0.2 -2.73,-0.94 -3.91,-3.46 -4.1,8.18 -5.25,8.72 -11.59,11.64 -1.03,0.48 -2.21,1.02 -3.38,1.59l-0.36 0.17 -13.69 -17.23 -5.88 23.89 -0.51 -0.17c-6.14,-2.07 -8.04,-0.18 -8.78,0.55 -0.45,0.45 -0.7,0.7 -1.15,0.24 -0.23,-0.24 -0.3,-0.75 -0.47,-1.9 -0.25,-1.7 -0.73,-4.95 -2.02,-10.76l-9.98 18.01 -8.46 -17.6c-0.56,1.29 -1.08,2.54 -1.57,3.74 -2.99,7.24 -5.32,12.91 -12.53,15.76 -0.25,0.09 -0.73,0.07 -1.17,0.05l-0.52 -0.02 -34.61 11.96 -5.45 2.35c3.08,-0.83 4.29,-0.93 4.37,-0.67 0.11,0.36 -2.24,1.46 -4.68,2.24 -2.42,0.79 -4.92,1.37 -5.16,0.82 -0.08,-0.18 0.17,-0.49 0.89,-0.97l-4.78 -6.4 -0.88 -0.89 -0.51 -0.48c-0.37,-0.32 -0.66,-0.6 -0.89,-0.84 -0.92,-0.33 -2.14,-0.82 -3.71,-1.53l-0.27 -0.12c-1.34,-0.4 -3.47,-1.16 -6.67,-2.43 -1.2,-0.47 -2.18,-0.8 -2.99,-1.01 0.45,2.6 -0.09,3.68 -0.92,3.88 -0.76,0.19 -1.72,-0.41 -2.39,-1.26 -0.38,-0.48 -0.68,-1.05 -0.8,-1.61l-8.49 15.41 -8.62 -16.7c-3.68,4.19 -3.87,4.27 -4.9,4.71 -0.42,0.19 -1.01,0.44 -2.18,1.2 -0.83,0.54 -1.5,0.95 -2.04,1.25 -0.48,1.98 -0.8,3.7 -1.09,5.23 -0.98,5.15 -1.58,8.31 -6.23,12.27 -7.35,6.26 -9.91,7.64 -10.7,6.72 -0.48,-0.57 -0.22,-1.71 0.11,-3.12 0.48,-2.06 1.11,-4.78 -0.44,-5.95 -0.77,-0.58 -1.42,-1.1 -1.97,-1.57l-26.17 5.64 -0.91 0.99c-0.4,0.43 -0.8,0.87 -1.15,1.27l-2.09 2.45 -5.94 8.14 -0.41 -0.31c-4.79,-3.73 -8.71,-6.91 -11.9,-10.68 -2.01,-2.38 -3.72,-4.99 -5.18,-8.12 -0.81,2.11 -2.38,5.43 -5.09,11.02 -1.53,2.72 -3.57,5.65 -5.27,8.33l-0.43 -0.57c-0.77,-1.02 -1.6,-2.25 -2.25,-3.22 -3.18,-4.69 -6.42,-9.35 -9.64,-14.01l0.08 -0.24c1.15,-3.27 1.65,-4.3 1.6,-4.32 -0.12,-0.04 -0.39,0.78 -0.95,1.55 -0.86,1.2 -1.79,2.48 -2.45,2.24 -2.5,-0.92 -3.32,-0.69 -3.55,-0.63 -0.12,0.04 -0.2,0.07 -0.29,0.06 -1.38,6.16 -2.85,11.3 -4.96,15.97 -2.47,5.5 -5.82,10.36 -10.92,15.5l-0.28 0.28 -0.33 -0.21c-7.88,-4.91 -8.35,-6.16 -10.14,-11.03 -0.56,-1.51 -1.25,-3.38 -2.36,-5.85l-1.02 2.49c-0.67,1.63 -1.05,2.56 -1.55,3.4 -0.65,1.11 -1.48,1.99 -3.38,4.03l-0.32 0.35c-4.95,5.32 -5.96,5.83 -7.85,6.77 -0.97,0.49 -2.18,1.09 -4.34,2.59l-0.4 0.28 -1.31 -1.84c-2.68,-3.75 -4.91,-6.87 -7.32,-11.57 -0.56,1.14 -1.4,2.68 -2.58,4.84l-1.86 3.42 -0.45 -0.74c-7.05,-11.59 -10.49,-28.21 -13.67,-43.6 -1.49,-7.2 -2.92,-14.13 -4.64,-20.13l-14.88 40.67 -0.95 -0.02 -14.39 -48.21 -15.18 59.91 -0.96 0.03 -10.35 -33.39 -7.55 24.48 -0.58 -0.91c-5.21,-8.18 -7.4,-19.24 -9.62,-30.49 -2.43,-12.26 -4.9,-24.76 -11.37,-33.84 -0.91,3.61 -1.83,7.66 -2.78,11.89 -3.04,13.41 -6.47,28.52 -11.35,36.97l-0.92 -0.13 -10.21 -39.84 -14.86 48 -0.96 0.01 -14.29 -43.2 -10.3 31.82 -0.96 -0.04 -13.32 -58.13 -9.03 21.03 -0.05 0.22c-2.68,11.5 -2.99,12.79 -8,21.55l-0.91 -0.13c-0.74,-3.07 -1.49,-6.81 -2.3,-10.9 -2.44,-12.21 -5.51,-27.59 -10.3,-35.78 -5.11,7.6 -7.24,17.67 -9.48,28.27 -2.12,10.03 -4.34,20.53 -9.29,29.95l-0.54 1.02 -12.02 -34.67 -6.88 16.58 -0.51 -0.78c-5.49,-8.25 -6.94,-19.16 -8.44,-30.42 -1.78,-13.37 -3.62,-27.25 -12.41,-37.53 -0.8,1.02 -1.39,1.57 -1.9,2.05 -1.3,1.22 -2.08,1.96 -4.84,9.73l-9.96 40.41 -0.92 0.13c-2.93,-5.1 -3.28,-6.35 -4.07,-9.2 -0.34,-1.22 -0.76,-2.73 -1.49,-4.92l-7.92 -15.52c-0.71,2.47 -1.25,5.64 -1.83,9.04 -1.67,9.86 -3.7,21.74 -11.24,25.69l-0.57 0.29 -13.72 -56.77 -16.93 70.99 -0.64 -0.71c-4.63,-5.18 -5.4,-7.85 -6.43,-11.41 -0.95,-3.3 -2.13,-7.38 -6.99,-15.11l-11.4 40.73 -0.94 0.08c-4.43,-9.84 -7.81,-24.65 -11.02,-38.65 -1.46,-6.42 -2.89,-12.66 -4.36,-18.16l-9.13 24 -0.95 -0.05 -21.56 -78 -18.43 79.37 -0.96 0.06 -8.79 -25.13 -8.07 25.45 -0.96 -0.02 -22.55 -79.24 -8.18 38.58 -0.95 0.09 -8.54 -21.09c-0.34,-1.65 -0.6,-3.24 -0.86,-4.8 -0.54,-3.29 -1.06,-6.43 -2.31,-9.81 -1.67,-4.49 -2.4,-5.09 -3.36,-5.88 -0.42,-0.35 -0.89,-0.73 -1.46,-1.41 -7.27,11.56 -10.72,30.83 -13.6,46.88 -0.92,5.13 -1.78,9.94 -2.67,13.99l-0.92 0.15 -6.35 -10.83c-0.23,-0.54 -0.4,-1.17 -0.57,-1.78 -0.15,-0.51 -0.29,-1.02 -0.45,-1.45 -1.18,-3.09 -1.58,-4.53 -1.86,-5.54 -0.36,-1.33 -0.52,-1.9 -2.16,-4.88 -1.42,7.56 -2.96,15.33 -4.8,22.64 -1.97,7.78 -4.28,15.06 -7.15,21.04l-0.93 -0.09c-0.53,-2.19 -0.98,-4.97 -1.46,-8.04 -0.52,-3.3 -1.1,-6.94 -1.89,-10.47 -2.35,-10.48 -6.6,-20.19 -17.09,-17.85l-0.47 0.11 -19.69 -75.62c-5.43,8.79 -7.44,19.76 -9.5,31.03 -0.83,4.55 -1.67,9.15 -2.74,13.63l-0.92 0.13c-4.35,-7.83 -4.49,-8.39 -5.84,-13.93 -0.38,-1.58 -0.87,-3.57 -1.62,-6.39l-9.43 -18.09 -7.02 22.46 -0.58 -0.87c-3.9,-5.93 -6.71,-14.84 -8.72,-24.46 -1.98,-9.46 -3.2,-19.61 -3.94,-28.3l-11.02 -1.89 -0.22 -0.1c-2.28,-1.8 -3.77,-2.75 -4.72,-3.35 -1.06,-0.68 -1.54,-0.98 -1.8,-1.6 -0.2,-0.49 -0.21,-1.06 -0.22,-2.1 -0.03,-1.58 -0.07,-4.32 -0.84,-9.55l-4.61 14.18 -0.58 -0.62c-1.6,-1.71 -2.43,-1.78 -3.06,-1.82 -1.46,-0.11 -2.13,-0.16 -5.15,-9.75l-11.37 16.73 -8.93 -31.16c-0.11,1.08 -0.34,2.35 -0.79,3.79 -1.54,4.87 -2.45,6.04 -3.79,7.76 -0.52,0.66 -1.1,1.41 -1.81,2.49l-0.36 0.56 -0.44 -0.5c-5.82,-6.65 -8.38,-10.71 -9.43,-13.22 -0.22,1.5 -0.41,2.92 -0.58,4.24 -0.57,4.39 -1.01,7.75 -2.03,9.92 -1.52,3.25 -4.16,3.85 -9.9,1.16l-0.12 -0.05c-0.92,-0.33 -5.76,-2.1 -7.55,-7.02 -5.1,7.43 -6.59,16.92 -8.1,26.56 -0.79,5.05 -1.59,10.15 -2.91,15l-3.71 9.82 -0.49 -0.01 0.02 0.06c0.09,0.07 0.14,0.13 0.05,0.16 -0.05,0.02 -0.1,0.21 -0.31,0.51 -0.51,0.76 -1.31,1.95 -2.49,2.74l-0.58 0.4 -6.19 -23.07c-1.03,1.03 -1.7,1.46 -2.24,1.81 -1.19,0.76 -1.68,1.07 -4.94,8.51l-9.3 27.6 -0.94 0.03c-2.19,-5.52 -2.9,-9.54 -3.88,-15.15 -0.45,-2.56 -0.96,-5.46 -1.69,-8.94 -3.53,-16.93 -6.7,-17.83 -10.09,-18.79 -0.94,-0.27 -1.91,-0.54 -2.91,-1.12l-7.96 34.86 -0.94 0.1c-6.4,-13.7 -7.46,-19.75 -8.56,-26.01 -0.59,-3.33 -1.18,-6.72 -2.6,-11.35 -2.43,-7.91 -2.65,-7.96 -3.02,-8.03 -0.3,-0.06 -0.65,-0.14 -1.2,-0.85 -6.57,11.34 -8.82,23 -11,34.29 -2.01,10.39 -3.96,20.48 -9.14,29.81l-0.47 0.86 -10.94 -23.72 -14.02 52.19 -0.96 0.04 -14.86 -43.57 -6.4 28.41 -0.52 -0.16c-3.2,-0.96 -5.32,-1.14 -6.76,-1.26 -1.6,-0.13 -2.46,-0.21 -3.13,-1.13 -0.69,-0.95 -1.01,-2.73 -1.69,-6.58 -0.39,-2.26 -0.92,-5.24 -1.69,-9.08 -0.72,-3.53 -1.11,-6.03 -1.4,-7.92 -0.36,-2.32 -0.58,-3.71 -1.09,-4.99 -0.71,-1.81 -2.04,-3.51 -5.22,-7.46l-12.8 39.67 -0.57 -0.9c-6.08,-9.52 -7.35,-16.67 -8.61,-23.75 -1.21,-6.81 -2.41,-13.56 -7.94,-22.3l-7.44 32.91 -0.97 0.03 -17.4 -59.63c-9.62,14.29 -14.87,41.79 -19.17,64.29 -1.12,5.88 -2.18,11.42 -3.22,16.24l-0.23 1.06 -10.15 -13.39 -8.67 15.84 -0.93 -0.11c-1.94,-7.62 -3.46,-15.07 -5.12,-23.22 -0.79,-3.88 -1.62,-7.91 -2.57,-12.35 -0.86,-4.04 -1.48,-7.25 -1.98,-9.84 -1.9,-9.83 -2.04,-10.53 -8.58,-18.94l-13.56 49.86 -0.96 0.03 -11.67 -34.46 -7.22 28.76 -0.62 -0.96c-6.74,-10.31 -8.8,-21.36 -10.97,-32.98 -1.12,-6.02 -2.27,-12.2 -4.12,-18.5 -7.87,9.19 -8.39,13.97 -8.93,19.06 -0.57,5.27 -1.17,10.86 -9.54,21.68l-0.9 -0.25 -2.41 -21.01c-4.1,0.4 -6.3,0.19 -7.69,0.06 -0.86,-0.08 -1.4,-0.13 -1.86,0.01 -0.8,0.26 -1.66,1.16 -3.93,3.54l-1.67 1.75 -0.2 -0.91c-1.47,-6.57 -2.85,-11.81 -4.2,-16.99 -1.17,-4.45 -2.33,-8.88 -3.54,-14.1l-0.28 -1.23c-3.7,-15.99 -5.1,-22.03 -6.13,-24.24 -0.5,-1.07 -0.89,-1.06 -1.51,-1.03 -1.02,0.04 -2.48,0.09 -5.02,-1.99l-10.17 27.06 -0.95 -0.05 -7.68 -29.88c-1.66,-4.59 -2.65,-5.72 -3.87,-7.11 -0.38,-0.43 -0.78,-0.89 -1.23,-1.47 -5.45,7.84 -6.09,10.69 -7.32,16.18 -0.68,2.99 -1.52,6.77 -3.39,12.51l-0.36 1.1 -0.56 -1.02c-3.61,-6.61 -6.07,-17.35 -8.42,-27.58 -1.5,-6.58 -2.97,-12.95 -4.65,-17.85 -1.01,1.13 -1.65,1.69 -2.14,2.11 -1.05,0.9 -1.37,1.18 -3.65,6.17l-7.7 25.48 -0.58 -0.96c-3.95,-6.53 -4.99,-12.37 -6.02,-18.19 -0.92,-5.15 -1.84,-10.29 -4.79,-15.82 -2.46,-4.63 -2.88,-4.92 -3.74,-5.53 -0.49,-0.35 -1.12,-0.8 -2.23,-2l-9.28 34.11 -0.96 0.01 -14.73 -47.54 -14.85 51.8 0 -3.62 14.35 -50.06 0.96 -0.01 14.71 47.5 9.32 -34.24 0.61 0.7c1.45,1.66 2.15,2.16 2.68,2.54 0.99,0.7 1.46,1.03 4.04,5.87 3.03,5.68 3.96,10.9 4.89,16.12 0.97,5.43 1.94,10.88 5.32,16.86l7.08 -23.39c2.38,-5.23 2.74,-5.55 3.92,-6.56 0.54,-0.47 1.29,-1.11 2.6,-2.64l0.56 -0.66 0.29 0.81c1.83,5.06 3.37,11.8 4.96,18.77 2.21,9.63 4.52,19.72 7.78,26.27 1.61,-5.07 2.38,-8.51 3,-11.28 1.3,-5.75 1.96,-8.67 7.88,-17.1l0.4 -0.58 0.41 0.57c0.6,0.83 1.11,1.42 1.59,1.96 1.29,1.47 2.33,2.66 4.06,7.45l7.31 28.42 10.12 -26.93 0.55 0.49c2.58,2.29 3.93,2.24 4.86,2.2 1.03,-0.04 1.67,-0.07 2.45,1.61 1.08,2.31 2.49,8.38 6.2,24.44l0.29 1.23c1.2,5.21 2.36,9.62 3.52,14.07 1.29,4.94 2.6,9.91 4.01,16.11l0.37 -0.39c2.4,-2.52 3.31,-3.47 4.35,-3.81 0.66,-0.2 1.28,-0.15 2.26,-0.05 1.41,0.13 3.66,0.34 7.98,-0.11l0.5 -0.05 2.39 20.76c7.48,-9.95 8.05,-15.22 8.58,-20.2 0.58,-5.37 1.12,-10.42 9.77,-20.29l0.59 -0.68 0.26 0.86c2.02,6.65 3.23,13.15 4.42,19.48 2.07,11.15 4.06,21.77 10.19,31.64l7.07 -28.16 0.96 -0.04 11.69 34.51 13.66 -50.21 0.61 0.79c7.3,9.35 7.39,9.8 9.39,20.15 0.49,2.54 1.1,5.7 1.98,9.82 0.91,4.25 1.75,8.39 2.56,12.36 1.57,7.68 3.01,14.75 4.81,21.94l8.8 -16.08 9.77 12.88c0.98,-4.63 1.96,-9.74 2.99,-15.15 4.4,-23.05 9.81,-51.33 19.93,-65.54l0.6 -0.84 17.44 59.78 7.53 -33.33 0.65 0.98c6.2,9.41 7.46,16.51 8.73,23.66 1.2,6.76 2.42,13.59 7.9,22.49l12.72 -39.39 0.62 0.77c3.65,4.52 5.11,6.34 5.92,8.39 0.54,1.37 0.76,2.81 1.13,5.2 0.3,1.87 0.68,4.35 1.4,7.88 0.79,3.95 1.31,6.88 1.7,9.1 0.65,3.69 0.95,5.4 1.5,6.16 0.41,0.56 1.11,0.62 2.42,0.73 1.4,0.11 3.42,0.29 6.45,1.15l6.56 -29.1 0.96 -0.05 14.9 43.69 13.95 -51.94 0.93 -0.08 10.69 23.18c4.75,-8.96 6.63,-18.66 8.55,-28.64 2.24,-11.61 4.56,-23.6 11.54,-35.3l0.42 -0.71 0.43 0.71c0.6,0.98 0.82,1.02 1,1.06 0.73,0.15 1.17,0.24 3.77,8.71 1.44,4.71 2.04,8.13 2.63,11.48 1.06,5.99 2.08,11.79 7.87,24.43l7.96 -34.84 0.61 0.42c1.08,0.76 2.16,1.07 3.22,1.37 3.69,1.04 7.14,2.02 10.8,19.55 0.74,3.53 1.25,6.42 1.69,8.97 0.9,5.11 1.57,8.89 3.34,13.67l8.88 -26.36c3.39,-7.73 3.95,-8.09 5.32,-8.97 0.59,-0.38 1.35,-0.87 2.67,-2.3l0.61 -0.67 6.28 23.4c0.73,-0.65 1.28,-1.47 1.65,-2.03 0.3,-0.43 0.51,-0.74 0.76,-0.87l3.55 -9.37c1.31,-4.84 2.1,-9.89 2.88,-14.89 1.59,-10.12 3.15,-20.08 8.87,-27.81l0.62 -0.85 0.26 1.02c1.33,5.18 6.37,7.01 7.23,7.32l0.18 0.07c5.08,2.38 7.36,1.96 8.6,-0.67 0.95,-2.03 1.38,-5.33 1.94,-9.63 0.26,-1.96 0.54,-4.12 0.91,-6.45 -0.07,-0.84 0.12,-1.28 0.24,-1.54l0.01 0.01 0.02 -0.13 0.99 0.01c0.02,0.12 0,0.22 -0.03,0.32l-0.25 1.54c0.22,1.75 1.91,5.55 9.44,14.2 0.57,-0.84 1.06,-1.46 1.49,-2.02 1.27,-1.63 2.13,-2.73 3.62,-7.44 1.1,-3.48 0.84,-5.97 0.75,-6.82l-0.03 -0.35 0.98 -0.13 9.35 32.65 11.34 -16.68 0.3 0.99c3.09,9.92 3.55,9.95 4.58,10.03 0.71,0.05 1.62,0.12 3.13,1.55l4.74 -14.58 0.97 0.08c1.09,6.64 1.15,9.94 1.17,11.75 0.02,0.91 0.03,1.41 0.16,1.72 0.14,0.34 0.53,0.59 1.4,1.14 0.96,0.61 2.43,1.55 4.7,3.34l11.66 1.99 0.03 0.39c0.74,8.75 1.96,19.02 3.96,28.56 1.89,9.04 4.47,17.42 8,23.21l6.75 -21.58 0.92 -0.09 10.01 19.22 0.04 0.1c0.73,2.73 1.24,4.81 1.64,6.46 1.25,5.15 1.44,5.9 5.12,12.55 0.93,-4.11 1.69,-8.24 2.43,-12.32 2.16,-11.78 4.25,-23.24 10.26,-32.36l0.62 -0.93 20.01 76.88c10.97,-2.14 15.39,7.88 17.81,18.7 0.8,3.57 1.38,7.22 1.9,10.53 0.39,2.42 0.74,4.65 1.13,6.54 2.55,-5.65 4.65,-12.37 6.46,-19.53 1.95,-7.75 3.56,-15.99 5.04,-23.94l0.93 -0.16c2.33,4.15 2.49,4.73 2.92,6.31 0.27,0.99 0.66,2.38 1.83,5.45 0.17,0.46 0.33,1 0.48,1.54 0.16,0.58 0.33,1.17 0.52,1.64l5.65 9.63c0.81,-3.84 1.59,-8.14 2.4,-12.7 2.94,-16.42 6.48,-36.19 14.11,-47.84l0.39 -0.59 0.43 0.56c0.73,0.96 1.26,1.41 1.74,1.8 1.08,0.89 1.91,1.57 3.66,6.31 1.28,3.45 1.81,6.65 2.37,9.99 0.25,1.52 0.5,3.08 0.84,4.71l7.88 19.45 8.26 -38.96 0.97 -0.04 22.65 79.59 8.02 -25.29 0.95 -0.02 8.71 24.92 18.49 -79.6 0.96 -0.02 21.68 78.42 9.15 -24.01 0.95 0.05c1.62,5.9 3.17,12.69 4.77,19.67 3.05,13.37 6.28,27.46 10.4,37.19l11.61 -41.53 0.61 0.93c5.45,8.46 6.71,12.82 7.71,16.31 0.94,3.27 1.66,5.76 5.58,10.31l16.97 -71.16 0.97 0 13.91 57.54c6.64,-4.02 8.56,-15.27 10.16,-24.65 0.68,-4.01 1.31,-7.68 2.22,-10.36l0.39 -1.11c2.71,5.33 6.95,12.5 9.06,17.75 0.75,2.28 1.17,3.8 1.51,5.01 0.71,2.56 1.05,3.79 3.36,7.88l9.69 -39.27c2.84,-8.02 3.69,-8.81 5.1,-10.14 0.56,-0.52 1.21,-1.14 2.15,-2.41l0.36 -0.5 0.41 0.47c9.34,10.56 11.24,24.8 13.06,38.52 1.43,10.78 2.83,21.24 7.77,29.21l6.65 -16.05 0.93 0.03 11.7 33.71c4.51,-9.03 6.63,-19.06 8.66,-28.65 2.32,-11 4.53,-21.43 10.08,-29.27l0.43 -0.61 0.4 0.63c5.12,8.16 8.31,24.14 10.83,36.76 0.71,3.58 1.37,6.89 2,9.63 4.33,-7.66 4.72,-9.31 7.26,-20.17 1.07,-4.57 7.5,-17.63 9.73,-22.83l0.95 0.09 13.26 57.86 10.21 -31.56 0.95 0 14.28 43.17 14.92 -48.2 0.96 0.02 10.34 40.34c4.5,-8.5 7.75,-22.83 10.64,-35.6 1.05,-4.62 2.05,-9.05 3.06,-12.94l0.25 -1 0.63 0.83c7.07,9.32 9.64,22.33 12.17,35.09 2.12,10.73 4.21,21.29 8.91,29.21l7.38 -23.94 0.96 0 10.3 33.24 15.19 -59.95 0.96 -0.02 14.48 48.5 14.88 -40.69 0.95 0.03c1.92,6.35 3.47,13.86 5.09,21.68 3.09,14.97 6.44,31.12 13.1,42.52l1.03 -1.88c1.46,-2.68 2.38,-4.38 2.88,-5.5 -0.71,-1.45 -1.44,-3.05 -2.21,-4.85l0.86 -0.49c0.63,0.83 1.2,1.37 1.64,1.79 0.85,0.81 1.32,1.26 1.14,2.39 -0.05,0.31 -0.15,0.68 -0.33,1.12 2.52,5.05 4.82,8.26 7.6,12.16l0.74 1.04c1.97,-1.33 3.12,-1.91 4.05,-2.38 1.79,-0.89 2.74,-1.37 7.57,-6.56l0.32 -0.35c1.85,-1.98 2.65,-2.84 3.25,-3.86 0.46,-0.77 0.83,-1.68 1.48,-3.27 0.37,-0.9 0.83,-2.03 1.47,-3.54l0.44 -1.03 0.48 1.01c1.4,3.02 2.22,5.23 2.86,6.96 1.67,4.54 2.12,5.76 9.39,10.31 4.84,-4.94 8.05,-9.63 10.43,-14.92 2.44,-5.4 4.02,-11.46 5.61,-19.08l0.98 0.07c0.09,1.13 0.05,1.86 -0.02,2.33 0.62,-0.02 1.7,0.1 3.48,0.75 0.05,0.01 0.66,-0.98 1.31,-1.88 0.77,-1.09 1.52,-2.11 2.08,-1.91 0.52,0.18 0.41,1.56 -0.9,5.35 3.12,4.53 6.28,9.05 9.36,13.61 0.52,0.77 1.16,1.72 1.78,2.58l4.45 -7.03c3.3,-6.8 4.84,-10.08 5.4,-11.86 -0.64,-1.5 -1.22,-3.11 -1.75,-4.87l0.93 -0.35c0.42,0.92 0.87,1.47 1.22,1.9 0.75,0.9 1.17,1.41 0.65,3.24 1.51,3.47 3.32,6.3 5.47,8.85 3.04,3.6 6.79,6.67 11.35,10.22 2.53,-3.46 4.72,-6.61 7.47,-9.82 0.3,-0.35 0.74,-0.82 1.18,-1.29l0.99 -1.1 0.28 -0.16 25.62 -5.53c-1.39,-1.32 -1.72,-2.08 -1.44,-2.45 0.42,-0.55 2.19,-0.05 3.8,0.74 1.61,0.79 3.1,1.9 2.93,2.54 -0.11,0.42 -0.78,0.62 -2.29,0.4l0.5 0.38c2.06,1.56 1.35,4.64 0.8,6.97 -0.26,1.13 -0.47,2.06 -0.32,2.24 0.35,0.42 2.53,-1.08 9.29,-6.83 4.39,-3.73 4.96,-6.76 5.9,-11.69 0.25,-1.34 0.53,-2.82 0.91,-4.47 -0.47,0.18 -0.72,0.17 -0.82,0.01 -0.24,-0.38 0.11,-0.74 0.54,-1.18 0.26,-0.26 0.59,-0.55 0.74,-0.69l0.09 -0.33 0.97 0.02c0.02,0.11 0,0.22 -0.04,0.35 0.32,-0.26 0.7,-0.54 1.18,-0.85 1.24,-0.8 1.88,-1.08 2.33,-1.27 0.89,-0.39 1.01,-0.44 5.02,-5.01l0.49 -0.55 8.43 16.33 9.56 -17.35 0.46 0.33c0.17,0.11 0.44,0.18 0.72,0.25 0.68,0.17 1.35,0.34 1.56,1.18l0.06 0.27c0.97,0.2 2.14,0.55 3.57,1.12l1.03 0.41 0.01 -0.07c0.12,-0.26 2.03,0.31 3.83,1.11 0.96,0.43 1.9,0.9 2.55,1.31l2.25 1.05c0.01,-0.07 0.04,-0.13 0.09,-0.19 0.29,-0.34 1.15,-0.08 1.9,0.32 0.78,0.43 1.44,1.06 1.27,1.44 -0.06,0.12 -0.25,0.19 -0.63,0.15 2.23,2.2 4.01,5.03 5.89,7.55 1.59,-0.91 4.36,-2.25 8.79,-4.16 11.57,-3.85 23.17,-8.34 34.76,-12.01 0.17,-0.04 0.48,-0.03 0.81,-0.01 0.33,0.02 0.69,0.03 0.75,0.02 6.82,-2.7 9.08,-8.19 11.98,-15.21 0.62,-1.52 1.28,-3.11 2.01,-4.75l0.44 -0.99 8.57 17.82 9.67 -17.48 0.92 0.13c1.53,6.69 2.06,10.29 2.33,12.12l0.13 0.89c0.96,-0.91 3.22,-2.6 9.08,-0.75l6.11 -24.82 14.46 18.2 3.04 -1.43c6.29,-2.9 7.24,-3.34 11.58,-12.13l0.49 -0.99 0.42 1.03c1.11,2.71 2.13,3.98 3.29,3.83 1.26,-0.18 2.83,-1.87 4.95,-5.06l0.57 -0.87 0.32 0.99c4.77,14.96 7.34,15.76 12.55,17.38 3.26,1.01 7.51,2.34 13.82,7.3 3.35,-6.65 6.87,-10.17 9.95,-13.25 4.35,-4.35 7.81,-7.82 8.57,-18.31l0.92 -0.24c2.13,3.16 2.35,4.23 2.45,4.71l0.01 0.1c0.05,0.05 0.25,0.16 0.71,0.41 0.56,0.3 1.46,0.78 2.91,1.64 4.75,2.8 5.89,3.06 8.15,3.58 1.38,0.31 3.17,0.72 6.39,1.82 4.04,-4.53 5.5,-4.6 6.12,-4.59 0.07,-0.19 0.16,-0.62 0.33,-1.41 0.24,-1.13 0.64,-2.96 1.4,-6.01l0.97 0.02c1.6,7.82 2.1,12 2.35,14.12l0.17 1.32c0.97,-0.7 3.24,-2.26 9.01,-0.34l5.96 -23.63 0.92 -0.12 7.2 12.97c0.36,0.46 1.03,1.18 1.68,1.89l0.3 0.33 10.05 -20.06 0.93 0.13c2.04,10.98 3.74,14.65 6.05,19.65 1.13,2.44 2.41,5.2 3.94,9.26l0.38 -0.43c0.5,-0.57 1.02,-1.15 1.47,-1.32 0.27,-0.11 0.5,-0.11 0.69,0.01l14.58 -7.27 0.16 -0.04c6.87,-0.89 11.84,-11.09 15.37,-18.32 1.57,-3.23 2.86,-5.88 3.98,-6.98 4.37,-4.32 5.53,-4.32 10.93,-4.31 1.93,0.01 4.42,0.01 7.85,-0.19l2 -15.23 0.94 -0.17c1.78,3.35 3.39,7.35 5,11.36 1.62,4.02 3.25,8.06 5.07,11.5l0.45 -0.82c0.42,-0.79 0.81,-1.54 1.21,-1.67 0.18,-0.06 0.33,-0.07 0.46,-0.01 0.22,-0.38 0.59,-1.17 0.87,-1.73l0.34 -0.69c1.55,-2.7 3.58,-4.94 5.75,-7.34 4.8,-5.3 10.33,-11.42 12.86,-25l0.13 -0.71 0.61 0.37c2.83,1.69 4.16,2.67 4.93,3.25 0.5,0.37 0.74,0.55 0.98,0.61 0.24,0.07 0.58,0.06 1.23,0.05 1.23,-0.01 3.48,-0.04 8.23,0.37l2.98 -15.39 0.51 0.12c9.54,2.3 19.13,1.87 26.84,-1.92 6.84,-3.35 12.21,-9.36 14.75,-18.43l0.96 -0.01c1.97,6.51 3.31,6.65 5.54,6.86 1.11,0.11 2.42,0.24 4.08,0.98 0.24,-0.39 0.5,-0.93 0.75,-1.44 0.44,-0.89 0.83,-1.7 1.26,-1.85l0.21 -0.05 2.91 -4.23c-1.59,0.17 -2.3,-0.06 -2.44,-0.52 -0.24,-0.8 1.38,-2.15 3.16,-3.15 1.78,-1 3.78,-1.66 4.26,-1.08 0.36,0.42 -0.07,1.38 -1.88,3.15l2.42 -0.7c5.3,-1.59 7.71,-0.85 9.01,-0.45 0.43,0.13 0.69,0.21 0.79,0.13 0.33,-0.26 0.66,-1.34 1.48,-3.99 0.47,-1.54 1.1,-3.6 1.98,-6.26l0.96 0.04 0.07 0.3c0.54,2.29 0.76,3.17 1.39,3.66 0.43,0.32 1.12,0.56 2.24,0.94 1.23,0.42 2.97,1.01 5.51,2.12 0.22,-0.32 0.48,-0.76 0.72,-1.18 0.43,-0.73 0.84,-1.44 1.23,-1.7l0 1.58zm-32.38 6.31c0.05,0.18 0.76,0.16 2.53,-0.26 2.47,-2.1 3.27,-2.93 3.17,-3.05 -0.14,-0.17 -1.59,0.52 -3.01,1.31 -1.43,0.81 -2.77,1.72 -2.69,2zm-211.75 101.11c0.1,0.13 0.03,0.02 -0.03,-0.1l0.03 0.1zm-213.83 37.69l-0.31 0.14c0.01,0.01 0.13,-0.02 0.34,-0.1l-0.03 -0.04zm7.07 -2.06c0.38,-0.08 0.6,-0.13 0.59,-0.18 -0.01,-0.05 -0.19,0.02 -0.59,0.18zm-12.72 -7.02c0.02,-0.06 -0.04,-0.06 -0.15,-0.06l0.15 0.06zm-10.08 -4.2l0.01 0.02 0.32 0.13c-0.18,-0.13 -0.29,-0.19 -0.33,-0.15zm-6.35 -1.08c-1.3,-0.2 -1.91,0.04 -2.08,0.46 -0.18,0.46 0.13,1.18 0.6,1.76 0.45,0.57 1.02,1 1.37,0.92 0.4,-0.1 0.58,-0.95 0.11,-3.14zm-1.92 -0.84c0.42,-0.13 0.97,-0.18 1.66,-0.13 -0.14,-0.16 -0.45,-0.24 -0.76,-0.32 -0.19,-0.05 -0.38,-0.09 -0.56,-0.16l-0.34 0.61zm-28.51 7.99c0.03,0.04 0.06,0.04 0.1,0.01l0.01 -0.03c-0.12,-0.07 -0.21,-0.14 -0.11,0.02zm-20.75 10.86c-0.06,0.08 0.43,0.55 1.83,1.66 2.3,0.6 3.13,0.79 3.14,0.76 0.03,-0.13 -1.16,-0.78 -2.39,-1.39 -1.24,-0.61 -2.49,-1.14 -2.58,-1.03zm-137.57 19.75l0.56 1.18c0.06,-0.48 -0.15,-0.78 -0.56,-1.18zm-749.6 -174.8l0.01 0.06 -0.01 -0.06zm0 0l-0.09 0 0.1 0.06 -0.01 -0.06z"/>
  <path class="fil10" d="M1374.37 917.06c-1.85,-2.8 -3.48,-5.82 -4.74,-9.16 7.72,-0.19 8.07,0.74 12.74,-3.3 -8.28,-6.81 -17.14,-17.95 -21.68,-32.14l23.92 -0.73c-3.42,-5.44 -3.54,-4.21 -8.32,-7.61 -9.69,-6.89 -15.63,-17.54 -23.45,-26.92 1.2,-7.7 -0.55,-0.6 4.47,-6.76 -8.87,-5.33 -17.18,-15.67 -21.55,-26.61 10.7,1.45 13.89,4.14 25.78,1.13 -1.7,-5.81 -27.77,-29.11 -34.3,-44.9l22.74 0.04c-1.67,-7.1 -17.52,-15.39 -24.78,-17.89l12.2 -4.3c-6.13,-9.7 -17.71,-15.97 -22.36,-26.41l14.99 1.8c-12.88,-20.85 -17.27,-23.24 -24.32,-50.4 -9.43,9.68 -14.09,28.31 -22.58,39.6 -3.09,4.12 -6.33,7 -9.16,12.55l14.82 -2c-3.28,11.13 -14.9,20.6 -23.41,27.72 9.78,1.41 10.69,-1.21 18.87,-2.1 -1.98,6.99 -5.64,11.18 -9.89,15.03 -5.34,4.83 -11.39,7.72 -16.1,13.16l15.69 -0.4c-3.96,8 -10.01,8.91 -17.21,16.33 6.55,1.36 14.03,2.58 18.68,5.88 -5.96,16.53 -14.01,14.35 -27.28,23.98 6.24,3.06 13.6,3.35 19.42,6 -4.6,11.91 -16.87,13.5 -26.05,20.62 6.13,5.49 17.48,6.46 26.91,7.45 -8.18,11.45 -25.18,14.16 -32.42,22.95 2.46,0.84 5.18,1.53 8.58,2.34l8.36 2.87c-6.06,6.59 -12.57,11.85 -18.31,18.1l17.93 -0.7c-6.31,11.84 -18.26,12.98 -24.94,22.82l16.45 -3.09c-3.19,14.42 -12.51,21.23 -17.54,32.79l17.2 -4.21 -14.99 24.87c-10.35,-0.34 -7.8,-0.04 -12.76,-6.64 -3.01,-4 -5.2,-6.9 -7.74,-10.97 -3.97,-6.39 -10.84,-15.35 -12.36,-23.37 8.92,-0.2 18.17,1.24 25.44,-2.75 -0.29,-0.34 -0.81,-1.28 -0.96,-0.96 -0.15,0.32 -0.76,-0.76 -0.97,-0.93 -0.21,-0.18 -0.75,-0.68 -1.02,-0.89 -0.26,-0.22 -0.76,-0.6 -1.06,-0.83 -2.47,-1.9 -2.73,-1.8 -5.43,-3.9l-17.77 -15.95c-4.73,-5.06 -5.21,-3.14 -6.84,-9.9 12.95,-0.05 3.92,2.84 12.19,-2.25 -6.72,-12 -28.19,-22.72 -28.01,-38.47l17.91 -0.49c-2.38,-5.72 -6.9,-9.05 -10.43,-14.32 -6.7,-10.01 -11.69,-22.41 -14.43,-34.24 -1.29,-5.56 -1.38,-14.94 -5.1,-19.29 -7.13,12.8 -8.52,20.78 -17.45,33.13 -3.73,5.16 -6.77,9.56 -10.77,13.63 -4.28,4.37 -9.81,8.46 -10.71,14.49l17.56 0.54c-4.67,11.35 -20.89,14.35 -25.74,26.42l18.49 -0.5c-2.96,8.98 -16.61,18.76 -20.23,26.6 0.42,0.27 1.18,-0.05 1.41,0.53 0.23,0.59 1.09,0.42 1.41,0.52l8.38 2.7c-5.95,9.62 -21.75,22.02 -26.11,31.86 6.68,2.38 10.85,-0.65 17.79,-2.6 -5.92,14.3 -19.21,17.55 -22.72,26.37 11.92,1.2 18.59,-6.01 27.71,-8.65 -6.14,27.17 -35.46,26.4 -45.86,13.59 -3.44,-4.24 -6.62,-8.64 -9.78,-13.18l22.16 -0.51 -19.45 -20.47c-7.23,-8.21 -14.97,-16.65 -18.81,-27.32l17.63 -0.7c-8.61,-15.61 -22.06,-23.48 -29.13,-45.57 13.37,1.56 19.25,0.55 31.26,-1.5 -0.61,-1.13 -39.77,-33.62 -40.79,-45.94 -0.62,-7.55 -1.15,0.56 5.11,-6.59l-8.51 -7.22c-7.09,-7.29 -15.26,-17.94 -19.24,-28.5 12.77,2 25.38,7.16 35.49,-0.57 -11.46,-9.6 -17.04,-13.61 -25.87,-24.94 -6.93,-8.9 -16.05,-21.65 -21.51,-31.99 9.79,0.35 23.61,2.6 31.11,-2.36 -8.79,-9.03 -22.95,-14.73 -34.67,-23.97l17.62 -2.23c-6.84,-14.28 -22.52,-22 -30.61,-35.83l20.14 3.09c-4.38,-9.65 -13.6,-17.95 -19.42,-30.58 -5.43,-11.8 -8.05,-23.37 -12.47,-35.98 -8.27,9.69 -12.55,25.37 -18.78,35.75 -7.58,12.63 -17.2,23.78 -22.45,33.05l19.84 -2.69c-3.72,12.52 -22.72,28.12 -31.25,36.98 10.86,0.97 15.43,-1.16 24.97,-3.83 -3.4,19.21 -24.11,26.04 -35.71,36.89 9.13,2.16 13.01,0.63 22.03,0 -4.94,10.42 -14.87,12.78 -22.68,21.44l25.11 6.53c-4.45,15.91 -21.78,25.96 -36.34,32.22 6.52,5.24 18.28,5.15 26.04,7.87 -2.61,7.64 -7.8,11.38 -15.06,16.53l-16.05 8.26c-0.34,0.2 -0.83,0.5 -1.13,0.71 -2.83,1.91 -1.34,0.63 -2.85,2.62 4.93,3.56 9.79,4.81 16.07,6.19 6.38,1.39 15.23,1.41 20.14,5.86 -7.12,3.89 -11.49,8.29 -20.02,13.75 -7.09,4.52 -16.21,8.08 -23.31,11.89 7.04,5.23 13.48,5.82 23.95,5.91 -2.16,4.33 -7.17,10.45 -10.48,13.56l-11.29 9.55c-0.32,0.32 -0.74,0.78 -1.03,1.07 -0.29,0.31 -0.78,0.88 -1.01,1.14 -0.24,0.26 -0.7,0.76 -1.02,1.17l25.35 -1.19 -8 8.23c-8.23,6.39 -23.14,14.91 -28.47,21.8 9.54,0.43 15.91,-2.26 23.03,-4.88 -1.64,11.47 -18.58,38.23 -23.66,43.54 12.36,1.3 16.92,-3.48 24.57,-7.76 -3.25,9.24 -12.28,23.72 -20.04,28.36l-14.44 0.02c-4.47,-10.41 -24.28,-23.25 -27.1,-38.06 12.19,2.9 25.71,6.99 36.65,-2.08 -9.75,-11.82 -36.37,-26.46 -46.44,-60.55 8.92,0.87 19.12,0.72 26.31,-1.71 -11.18,-11.67 -27.01,-18.74 -35.17,-33.75l12.87 -0.8c-3.57,-13.26 -25.36,-22.42 -28.07,-39.69l17.61 -0.17c-1.14,-5.65 -14.05,-20.14 -18.42,-30.72 -4.02,-9.75 -7.68,-33.24 -10.52,-37.86 -7.93,10.1 -11.08,29.5 -29.29,47.98 -4.1,4.16 -10.31,8.05 -10.2,13.59l17.38 0.62c-5.22,10.18 -21.61,16.26 -25.18,25.94l17.97 0.08c-4.6,11 -16.81,17.91 -20.17,27.08l11.63 2.28c-6.77,9.15 -24.74,26.27 -27.06,33.51 9.83,0.94 10.65,-1.19 17.75,-3.06 -1.61,11.64 -17.01,16.11 -21.72,25.37 9.66,3.6 18.54,-6.66 27.41,-7.05 -3.18,7.61 -9.71,16.54 -14.38,21.9 -5.99,6.88 -15.22,12.38 -19.43,21.52 13.83,-1.29 13.41,-4.87 23.16,-7.81 -0.93,8.46 -14.13,25.87 -18.69,31.32 -9.52,11.36 -20.44,19.24 -35.45,5.61 -17.74,-16.13 -30.89,-43.82 -28.58,-76.47 10.3,3.44 19.15,12.46 33.95,15.27l-9.56 -20.97 29.05 4.59c-5.58,-8.31 -42.71,-30.75 -54.81,-49.31 10.14,0.75 17.39,1.42 27.37,-1.36 -20.4,-9.44 -41.42,-30.51 -48.26,-51.67 8.76,4.14 17.64,8.58 30.19,8.18 -1.95,-4.69 -4.47,-9.12 -5.87,-16.27l16.33 0.19c-3.45,-3.35 -7.8,-5.76 -11.02,-8.33 -21.59,-17.25 -33.79,-40.84 -44.53,-66.02 -4.38,-10.27 -7.21,-23.38 -11.97,-33.12 -3.4,22.1 -15.96,41.9 -26.29,56.5 -6.42,9.08 -12.59,15.56 -19.38,23.7 -6.84,8.22 -15.51,14.38 -21.21,22.03l20.7 -5.26c-6.11,6.34 -13.16,9.86 -18.62,16.29l19.38 -1.1c-3.43,14.05 -17.98,28.24 -25.66,34.51 -10.75,8.77 -24.63,16.03 -34.98,24.81l29.67 0.93c-9.48,6.75 -22.28,8.77 -30.63,14.28 7.36,4.75 16.86,3.39 25.4,3.58 -9.78,11.71 -23.39,10.01 -32.63,17.03 14.16,7.37 37.12,-2.63 50.13,-5.9 -2.57,6.92 -5.21,9.29 -10.11,13.34 -2.82,2.34 -1.68,0.95 -4.33,3.78l24.52 -3.65c-5.81,16.94 -28,26.56 -42.17,35.91l-6.54 5.47 16.15 5.44 -14.43 9.92c20.4,0.51 23.46,-5.55 38.42,-9.55 -2.51,6.5 -10.57,15.34 -14.74,20.74 -18.15,23.48 -15.46,18.91 -44.17,18.78 -5.68,-8.81 -28.94,-33.14 -29.51,-46.87 7.66,2.76 12.61,7.93 23.78,8.1 -1.64,-6.05 -14.25,-15.27 -18.85,-21 -4.94,-6.17 -15.39,-17.05 -15.95,-26.4 5.67,2.66 21.61,12.22 28.68,8.77 -6.08,-9.62 -19.74,-17.17 -24.17,-27.21 7.71,0.56 8.36,3.53 19.58,2.84 -6.13,-12.77 -25.41,-25.59 -28.46,-37.13l10.7 -1.52c0.36,-0.12 0.93,-0.42 1.36,-0.71 -5.29,-10.04 -18.49,-18.07 -22.31,-28l19.8 -0.47c-3.46,-8.82 -14.44,-14.77 -21.49,-21.08 -5.1,-4.57 -5.2,-1.11 -5.2,-7.38l18.97 -0.76c-4.99,-11 -16.91,-20.17 -23.96,-30.3l-14.77 -26.45c-2.65,-7.14 -0.28,-6.79 -5.75,-8.73 -6.16,22.49 -8.27,46.91 -25.09,64.28 -4.97,5.14 -3.49,1.02 -5.56,8.73l19.88 0.55c-0.69,6.15 -8.94,16.71 -12.98,22.15 -4.7,6.33 -15.02,12.57 -17.81,19.97 5.3,2.48 7.15,1.57 13.95,1.67 -7.59,16.81 -25.54,23.38 -37.7,35.81 6.21,4.4 18.98,3.16 28.1,2.78 -5.73,18.88 -20.72,39.1 -34.2,51.37 -4.32,3.93 -11.54,8.59 -16.02,13.32 8.2,11.03 26.59,5.34 39.84,2.99 -5.89,16.38 -19.32,26.83 -28.49,40.66 -34.8,0.86 -45.3,-31.93 -45.38,-61.04 9.94,2.51 17.14,9.31 28.2,12.19l-7.47 -16.76 21.46 2.81 -5.68 -6.54c-2.79,-2.47 -2.75,-2.14 -5.36,-3.99 -9.43,-6.67 -25.61,-19.05 -31.13,-29.45l20.73 -0.12c-4.38,-4.68 -7.3,-5.25 -11.57,-8.42 -11.45,-8.49 -22.51,-20.84 -26.24,-34.54 11.12,4.21 10.28,5.88 24.33,6.28l-5.82 -13.16 13.81 -0.76c-30.86,-21.5 -38.57,-46.51 -51.71,-78.95l-1.27 -2.85c-1.41,-2.67 -1.35,-2.43 -2.72,-4.02 -13.31,49.72 -41.99,63.11 -53.71,81.83l15.1 -3.61c-2.72,3.32 -2.44,2.68 -6.36,6.01 -4,3.39 -4.02,2.9 -7.05,6.86l15.34 -1.09c-7.22,20.8 -30.3,37.98 -49.9,48.49l23.4 1.01c-7.76,8.54 -17.4,6.45 -25.96,12.6l22.5 2.82c-4.78,4.4 -12.37,7.47 -19.51,10.11 -6.13,2.26 -3.23,0.11 -7.16,4.19 20.99,3.36 25.19,-3.88 40.82,-5.03 -3.68,8.09 -5.75,6.9 -10.66,13.2l18.62 -2.89c-6.71,17.42 -28.8,21.01 -39.28,34.26l13.28 3.1 -12.53 8.66c9.39,3.78 24.43,-4.15 32.45,-7.21 -4.33,8.98 -14.64,16.35 -20.9,26.03l-31.74 0.46c-3.38,-6.1 -8.54,-13.32 -11.81,-21.54l19.08 2.63c-0.84,-4.37 -25.54,-27.1 -30.54,-38.73l12.49 -0.91c-2.69,-7.28 -15.24,-19.12 -21.26,-33.86l24.3 -1.48c-1.77,-4.43 -13.98,-12.02 -17.7,-15.74 -5.27,-5.3 -9.2,-12.49 -14.53,-18.97 1.12,-4.22 2.39,-2.63 4.47,-6.6 -9.96,-5.38 -16.23,-15.5 -21.22,-26.39 10.14,1.51 15.86,3.01 26.23,1.28 -2.97,-6.91 -13.29,-13.58 -18.86,-20.97 -5.59,-7.4 -11.3,-16.02 -16.25,-23.44l22.94 -0.73c-2.62,-6.52 -18.95,-15.98 -25.69,-19.09l13.02 -2.96c-5.42,-7.78 -19.11,-19.16 -22.73,-26.75l15.7 2.11c-15.23,-22.33 -15.45,-23.64 -25.26,-50.38 -7.82,12.58 -12.97,27.12 -21.76,39.44 -3.24,4.55 -6.56,7.8 -8.99,11.77l0 0.76 14.66 -1.92c-3.27,9.35 -9.17,13.81 -14.66,18.56l0 8.56 9.91 -1.63c-1.08,6.71 -5.01,11.4 -9.91,15.49l0 33.36 1.26 0.36c-0.39,1.21 -0.81,2.32 -1.26,3.35l0 288.56 1920 0 0 -317.24 -17.77 -0.46 17.77 0.46 0 -4.35c-4,2.23 -0.46,1.6 -3.59,3.89 -5.3,-3.55 1.4,-4.82 -4.96,-4.96l0 -2.13c0.79,-0.26 1.77,-0.28 0.19,-2.14 -1.71,-2.01 -0.42,-1.33 -3.74,-1.4 -0.83,2.24 1.54,1.01 -2.12,1.42 0.56,2.09 0.28,1.15 1.41,2.83 -1.31,0.31 -1.4,0.16 -2.5,1 -0.82,0.62 -0.5,0.52 -0.72,0.9l-0.24 0.62c-0.01,0.05 -0.03,0.22 -0.08,0.32 -3.82,-0.32 -2.58,-2.22 -5.55,-1.8 -3.66,0.51 -1.09,1.6 -0.83,4.63 -0.16,-0.08 -0.38,-0.39 -0.44,-0.26l-1.23 -0.9c-0.11,-0.08 -0.27,-0.24 -0.39,-0.32 -1.29,-0.97 -0.16,-0.81 -2.2,-1.35 -0.05,2.64 -0.64,2.59 -0.3,4.64 0.66,4.08 3.42,5.44 2.02,8.44 -1.1,2.38 -0.64,-1.9 -1.01,2.52 1.92,-0.16 1.93,-0.34 3.55,-0.71 -2.19,4.56 1.03,0.81 0,5.67 -1.95,-0.46 -3.72,-0.97 -5.67,-1.42 0.03,-0.37 0.28,-1.5 0.25,-1.73 -0.12,-1.34 -0.58,-1.35 -1.34,-2.11 -1.45,-1.47 -1.3,-2.39 -2.06,-5.07 -0.18,-0.63 -0.48,-1.47 -0.87,-1.96l-2.18 -1.43c-0.14,0.25 -3.24,-1.99 -4.77,0.6 -1.5,2.55 0.97,3.88 -2,5.83 -2.8,1.83 -4.48,-0.28 -5.85,1.98 -0.82,1.34 0.72,4.43 1.09,6.01 -4.28,-0.35 -2.08,-1.71 -4.71,-2.52 -3.1,-0.95 -2.41,2.39 -1.77,3.92 2.24,5.37 3.74,3.96 4.35,11.37 -5.35,-1.25 -1.6,-0.4 -6.38,0 0,-2.88 0.24,-2.29 -0.7,-4.26 -3.92,-0.32 -1.9,-1.34 -4.97,0.71 -1.58,-3.3 0.38,-1.82 -2.12,-2.83 -0.18,0.16 -0.59,0.63 -0.68,0.73l-2.16 2.1c-1.69,-3.53 0.24,-2.77 -0.44,-4.73 -0.77,-2.2 -2.37,-1.32 -4.52,-2.36 0,-3.57 0.2,-4.83 0.58,-7.34 0.63,-4.26 0.45,-4.62 -3.42,-4.71 0,3.26 -0.37,5.63 -1.42,7.8 -1.47,0.65 0.64,0.07 -0.99,-0.17 -1.7,-0.24 -2.4,-0.98 -2.62,2.23 -0.22,3.24 1.51,4.23 2.2,7.16 -1.35,-0.65 -3.79,-1.27 -5.68,-1.42 -0.08,0.16 -0.81,1.95 -0.83,2 -1.96,3.19 -2.4,2.13 -3.42,6.51 -3.41,-0.29 -2.94,-0.62 -2.57,-3.92 0.62,-5.55 -0.05,-1.02 -0.87,-5.39 -0.86,-4.63 0.6,-9.6 0.6,-14.09 -2.77,-0.65 -1.47,-0.65 -4.25,0 0,4.04 0.14,5.93 -1.48,9.15l-1.31 2.96c-1.04,2.68 -0.12,4.99 -0.04,8.45l-3.14 2.54c-2.7,1.78 -3.96,-1.92 -3.96,4.55l-0.7 0c0,-4.24 -0.09,-8.56 -0.03,-12.79 0.04,-3.32 0.48,-3.58 0.71,-5.83 0.37,-3.58 0.26,-3.81 -2.81,-4.07l-3.52 11.37c-0.36,0.84 -0.38,1 -0.6,1.53l-0.84 1.99c-0.37,-1.38 -0.13,-1.09 -0.71,-2.13 -4.88,0 -3.45,-0.46 -4.4,3.49 -0.5,2.09 -1.73,4.38 -2.69,0.77l-2.84 0c-1,4.29 -3.54,9.27 -3.54,14.18l-1.42 0c-0.25,-2.98 -2.1,-4.36 -3.55,-7.09 -1.61,0.37 -1.63,0.55 -3.54,0.71 0,3.29 0.65,7.59 -0.61,10.73 -1.23,3.05 -4.36,1.5 -6.42,5.64 -1.57,3.15 0.12,3.38 -4.31,3.48 0.55,6.71 -3.45,3.7 -7.7,5.78 -2.67,1.3 1.58,1.19 -3.65,1.31l0 -7.8c-1.99,-0.47 -5.61,-2.4 -6.8,-1.76 -2.11,1.12 0.18,3.81 0.42,6.72 -2.51,0.67 -2.18,0.76 -2.83,3.55 -2.91,-2.13 -0.51,-7.37 -5.68,-7.8 1.32,-1.96 1.25,-1.03 0.71,-3.55 6.63,-0.55 5.96,-3 10.64,-4.25 -0.18,-0.68 -1.55,-3.85 -1.94,-4.45 -0.16,-0.25 -1.25,-1.55 -1.57,-1.96 -0.62,-0.8 -0.9,-1.28 -1.46,-2.1 -4.48,3.28 -0.88,0.03 -4.25,1.42 0.38,4.52 2.73,4.19 2.84,9.22 -3.87,-2.84 0.29,-3.33 -5.67,-2.84l0 -1.42c2.84,-0.76 2.05,-0.19 2.12,-3.54 -6.89,-0.58 -5.76,-10.58 -9.97,-5 -0.33,0.44 -1.16,3.24 -1.17,3.75 -0.14,5.77 2.99,-0.32 -0.91,5.5 2.59,1.9 0.76,2.73 5.67,2.84 0,3.66 -0.23,4.14 2.84,4.96l0 2.13 -2.13 0c0.25,3.04 -0.1,1.27 1.42,3.54 -6.16,-1.64 1.08,-3.54 -6.38,-3.54 0.06,2.6 0.58,3.92 1.42,5.67 -5.11,3.42 -2.31,7.23 -7.09,8.51 -1.95,-1.43 -1.7,-2.1 -2.84,-4.26 -3.12,0.07 -2.21,0.48 -4.96,0.71l1.97 4.46c0.25,0.45 2.61,3.76 0.08,4.89 -1.11,0.49 -2.98,-0.91 -4.78,-1.04 -5.74,-0.39 1.4,0.98 -4.36,1.62 0.12,-5.44 1.02,-1.11 2.41,-5.39 0.53,-1.62 0.27,-0.52 0.42,-2.41 -1.93,-0.21 -3.21,-0.18 -2.8,-4.87l0.92 -3.44c0.44,-1.28 0.83,-0.9 0.47,-1.62 -2.16,-3.22 -4.03,-2.12 -9.22,-2.12 2.04,3.86 0.76,3.81 5.67,4.96 -0.21,2.57 -1.84,5.14 -1.9,7.63 -0.05,2.09 0.99,6.27 1.19,8.68 -2.19,0.18 -1.34,-0.02 -2.83,0.7 0.73,-3.47 -1.03,-4.23 -4.26,-3.54 0,2.73 0.45,3.83 0.55,5.19 0.32,4.25 -0.29,1.09 -1.26,4.73l2.25 2.73 -2.93 1.57 -0.73 -14.22 -2.84 0c0,4.12 0.05,5.24 -0.71,8.51l-1.9 -1.65c-0.09,-0.11 -0.2,-0.3 -0.29,-0.42 -0.09,-0.12 -0.2,-0.3 -0.29,-0.42l-2.48 -5.31c-1.87,0.43 -2.09,0.64 -3.55,1.42 0.14,-6.13 6.59,-10.37 0.71,-13.48 -1.93,4.04 -2.16,9.23 -6.38,12.06 0.34,-4.05 1.08,-0.92 1.42,-4.96 -2.7,-1.43 -3.25,0.47 -4.25,-2.13l-2.84 0c-0.09,4.29 0.46,2.07 -1.42,2.83 0,-4.57 1.17,-8.87 2.62,-12.27 1.78,-4.16 5.07,-6.35 2.35,-10.41 -1.87,1.37 -1.39,1.76 -2.9,3.48l-2.07 2.19c0,-3.2 -0.13,-5.23 -0.41,-8.1 -0.24,-2.45 0.41,-4.04 0.41,-7.5l-2.83 0c0,5.17 -0.21,9.84 -2.08,13.52 -0.07,0.15 -0.18,0.32 -0.24,0.47 -0.07,0.15 -0.14,0.34 -0.21,0.5 -1.11,2.75 0.35,2.94 -3.15,3.24l0 4.96c-0.9,-1.3 -0.04,1.36 -1,-1.89 -0.93,-3.12 1.02,-4.14 -1.83,-6.62l-2.73 2.25c-0.15,5.34 3.01,13.22 0.36,18.13 -1.28,2.39 -0.76,1.67 -0.47,5.14 -6.03,0 -3.32,3.34 -5.33,7.44l-0.58 1.16c-0.01,0.04 -0.39,3.28 -0.47,4.16 -2.89,-2.11 -1.3,-6.16 -1.52,-9.2 -0.39,-5.5 -0.96,1.24 -1.2,-4.22 -0.05,-1.09 0.88,-4.12 1.31,-5.01 -1.88,-2.56 -3,-0.76 -2.67,-4.04 0.29,-2.99 2.44,-1.92 0.54,-5.88 -2.48,0.2 -1.17,0.01 -2.09,0.74l-3.17 3.22c-2.95,2.32 -3.62,7.26 -8.92,7.38 0,-6.74 0.74,-9.34 -1.01,-14.59 -0.92,-2.77 0.02,-2.86 -3.24,-3.13 -0.34,3.06 -0.21,1.6 -1.68,3.99l-1.2 1.64c-2.59,3.04 -0.52,3.48 -0.81,6.35 -0.34,3.46 -1.17,0.31 -1.28,5.03 -1.88,-0.9 -0.76,-0.65 -3.54,-0.71 1,4.29 4.16,7.1 2.12,11.34 -4.5,-2.38 -2.83,-7.47 -2.83,-12.76l-4.96 0c-0.7,8.38 -0.59,4.88 2.83,11.35 -6.01,3.18 -3.49,-0.71 -10.63,-0.71 -1.98,3.73 -1.77,5.87 1.42,8.5 4.44,3.67 2.83,2.49 2.83,8.51 -2.51,-1.68 -3.52,-2.95 -4.96,-5.67 -2.33,1.12 -2.54,0.57 -4.97,0 -0.96,-4.14 -0.17,-9.53 -4.96,-9.92 -0.24,2.92 -0.95,3.11 -1.22,6.18 -0.19,2.08 0.17,-0.15 -0.12,1.37l-0.78 5.21c-2.63,-0.61 -1.99,-1.17 -4.97,-1.42 -0.94,3.52 -1.41,0.79 -1.41,6.38 -3.54,-0.94 -6.1,-5.78 -5.44,2.46 0.29,3.67 -1.65,5.28 -1.65,11.01l-2.84 0 -1.42 -3.54c0,5.2 0.47,6.1 -2.83,6.38 -1.04,-4.43 1.16,-5.57 -3.55,-5.68 -2.44,5.09 -0.46,7.74 0.71,12.77l-2.13 0c-0.94,-4.06 -0.19,-5.57 -4.96,-5.68 1.32,-5.65 1.5,-12.68 2.84,-18.43l-2.13 -1.42c0,-5.13 1.42,-5.97 1.42,-10.63 -3.78,1.01 -2.01,4.2 -2.49,6.93 -0.43,2.47 -0.58,0.19 -1.01,3.73l-0.79 15.53c-0.28,3.39 -0.68,5.54 -0.68,9.97 -2.62,-0.62 -1.98,-1.17 -4.96,-1.42l-1.42 3.54c0,-3.86 1.14,-5.85 1.42,-9.21 -1.63,-1.09 -1.42,-1.36 -4.25,-1.42 0,-2.78 -0.07,-4.87 -0.28,-7.53 -0.17,-2.14 0.12,-2.44 0.04,-3.3 -0.29,-3.11 -0.43,-1.26 -2.98,-1.73l-2.37 -0.4c-1.9,0.11 -4.57,0.37 -7.17,1.61 0.38,4.62 3.11,6.45 -2.13,9.22l3.04 -38.95c0.23,-2.52 1.35,-2.79 -1.62,-3.59 0,4.9 -1.32,10.11 -1.43,14.88 -0.17,6.95 -0.41,29.91 -4.8,36.36 -2.42,3.57 -1.98,0.59 -1.57,5.48 -2.27,-1.52 -0.5,-1.16 -3.55,-1.42 -2.01,3.01 -2.12,0.79 -2.12,5.67 -3.78,-0.88 -2.2,-2.15 -2.19,-2.58 0.02,-1.38 0.41,0.24 -0.27,-1.42l-1.23 -3.2c-0.57,-1.52 -0.93,-0.06 -0.57,-1.3 1,-4.3 2.28,-3.06 0,-7.8 -2.27,1.66 -0.59,1.93 -2.83,2.83 1.53,-3.18 -0.66,-5.12 0.74,-8.44 0.54,-1.31 0.6,-1.28 1.38,-2.19 0,4.87 -1.84,4.69 -0.63,5.81 1.01,0.95 0,0.4 2.05,0.57 0,-13.44 1.32,-14.8 1.42,-19.14 -4.53,1.06 -2.07,0.73 -3.13,3.96 -0.05,0.17 -0.11,0.37 -0.17,0.53 -1.02,2.65 -1.19,0.93 -1.64,4.04 -0.52,3.56 -1.16,7.13 -3.57,9.9 0,-9.9 1.96,-9.03 1.91,-15.11 0,-0.62 0.05,-1.67 -0.02,-2.03 -0.35,-1.84 0.32,-0.9 -1.18,-2 -1.45,3.02 -1.92,12.5 -3.24,18.02 -0.76,3.13 -1.49,3.28 -1.72,6.08 -4.9,-2.59 -0.87,-0.04 -0.71,-7.09 -4.74,3.18 -0.56,3.45 -5.96,8.22 -0.34,0.3 -1.03,0.9 -1.13,1 0,-5.32 0.57,-3.58 1.69,-7.53 1.8,-6.39 -0.69,-5.34 3.04,-10.43 1.64,-2.24 3.7,-8.32 2.36,-11.11 -3.5,1.42 -0.19,2.51 -3.54,4.96 0.74,-8.99 2.58,-11.17 2.83,-14.17 -3.19,0.85 -1.54,0.45 -4.93,6.41 -1.69,2.96 -3.52,6.9 -3.27,10.71 0.16,2.52 0.96,1.57 0.65,3.79 -0.85,6.09 0.39,1.71 -0.11,5.47 -0.36,2.74 -0.77,1.45 -0.85,4.81 -2.77,-2.03 -1.82,-7.56 -2.76,-12.83 -0.49,-2.69 -0.04,-2.53 -2.91,-2.76 0.64,2.72 0.67,2.84 0.73,6.39 0.13,7.6 1.59,4.89 -0.73,5.66l0 4.25c1.4,-0.3 2.69,-2.6 2.84,4.25l-2.13 0c0.58,2.5 0.71,2.33 0.71,5.68l-1.89 -4.5c-1.47,-2.53 -5.2,-1.83 -5.2,-16.06 -3.51,0.74 -1.28,1.28 -2.28,-0.6 -0.75,-1.41 0.04,-2.64 -1.51,-5.54 -1.88,-3.5 -1.88,-1.73 -1.88,-5.92l-1.42 0c0,4.15 0.71,6.44 0.71,11.35l2.13 0c0,5.22 -0.69,3.3 -1.19,5.9 -0.45,2.3 0.48,2.91 0.48,6.15l-2.24 -5.64c-2.23,1.66 -1.04,-0.6 -0.49,3.8l0.29 2.93c0.52,2.33 0.61,1.32 1.08,4.52 0.34,2.31 0.6,2.6 0.65,5.02 -3.06,-2.04 -5.34,-6.69 -5.67,-10.63l-2.13 0c0.33,3.98 2.13,3.89 2.13,9.22 -1.58,0.57 -0.68,-0.09 -1.72,1.12 -1.81,2.13 -0.61,1.53 -0.68,2.04 -0.33,2.67 -0.56,2.81 -1.15,5.34 -3.29,-0.88 -0.62,-1.11 -4.25,-1.41 1.45,3.03 1.86,3.53 0.44,6.78 -2.61,6 -1.17,2.22 -4.69,3.85 0,-10.96 3.85,-17.81 6.26,-26.39 1.03,-3.69 -0.31,-2 0.45,-5.18 0.87,-3.7 2.5,-1.93 2.5,-10.97l-1.42 0c-0.23,2.76 -0.64,1.85 -0.71,4.96 -1.73,0.72 -0.57,0.48 -2.83,0 -1.19,5.1 -0.77,2.88 -2.32,6.19 -1.18,2.49 -1.53,6.13 -1.98,8.66 -0.64,3.57 -0.8,2.29 -3.5,3.59 1.13,2.35 0.65,3.23 0.02,5.65 -0.76,2.92 -0.73,3.37 -0.73,7.11l-1.42 0c-0.31,-3.7 -2.53,-8.08 -2.75,-12.15 -0.22,-3.96 1.75,-9.13 2.04,-12.66l-1.41 0c-0.38,1.61 -0.55,1.63 -0.71,3.54l-1.42 0c0,-5.19 -1.74,-8.1 -2.13,-12.76l-1.42 0c0,3.15 0.82,4.78 0.41,6.78 -0.42,2.07 -2.01,4.03 -2.53,5.98 1.84,1.94 1.13,0.97 3.54,2.13 0,4.76 0.42,5.35 0.91,9.2 0.22,1.76 0.88,2.38 -1.12,2.83 -3.48,0.79 -2.44,-0.43 -2.62,-2.11l-2.13 0c-0.32,3.71 0.68,1.29 -1.42,2.13 -4.68,-8.85 -3.35,-2.25 -5.94,-6.82l-2.57 -10.19c-0.88,-3.61 0.24,-4.86 -2.83,-5.68 0.16,1.95 0.24,2.72 0.39,4.46 0.12,1.3 0.01,0.63 0.4,1.83l2.15 7.79c1.96,8.3 7.69,11.33 7.69,24.21 -3.05,-2.24 0.39,-2.13 -4.96,-4.97 -0.07,3.12 -0.48,2.21 -0.71,4.97 2.61,0.21 2.62,0.22 2.84,2.83 -3.11,-3.58 -0.89,-1.06 -3.01,-1.63 -4.61,-1.24 0.33,-3.13 -3.89,-7.07l-3.03 -3.35c0.95,-2.62 0.56,-0.58 1.01,-1.89 1.02,-2.97 -0.66,-9.28 -3.24,-11.48l-1.91 -0.92c-0.45,-0.13 -2.21,-0.42 -2.95,-0.6 -0.11,-5.04 -1.74,-2.45 0.71,-7.09 -1.33,-0.7 -2.97,-1.78 -4.34,-1.84 -3.41,-0.13 0.87,0.01 -2.23,0.51 -1.16,0.18 -0.29,0.11 -2.65,-0.09 -0.25,3.07 -1.08,3.17 -2,5.85 -1.46,4.22 -0.22,1.68 -0.12,6.21 -3.71,-0.99 -3.04,-2.5 -2.56,-6.77 0.28,-2.49 -0.28,-5.34 -0.28,-8.83l-1.8 14.38c-0.8,1.93 -2.8,2.33 -3.11,4.82 -0.2,1.61 0.87,5.99 1.37,7.03 -3.3,-0.88 -0.92,-1.08 -3.79,-1.88 -2.56,-0.71 -2.66,0.21 -5.16,-1.28l-1.14 -0.86c-0.07,-0.07 -0.21,-0.23 -0.27,-0.3 -1.62,-2.05 -0.12,-3.17 -3.82,-3.48 -1.15,4.3 -2.3,0.7 -2.63,5.78 -0.09,1.48 -1.07,4.6 -2.62,5.99 -2.58,2.3 -4.35,0.81 -6.92,1.48 -1.25,0.32 -2.45,3.72 -3.43,5.19 -2.9,-1.05 0.29,0.15 -1.87,-0.97 -3.1,-1.6 -3.44,-3.2 -7.35,-3.29 -1.06,2.95 -4.73,4 -7.8,4.26 0.21,2.4 1.31,4.44 1.07,6.26l-0.04 0.32zm75.54 -0.91l5.67 4.25 -5.67 -4.25zm0 0l0 2.12 -1.41 0c0.46,-1.94 -0.29,-1.1 1.41,-2.12zm4.26 -3.55c0.37,0.54 0.37,0.31 0.78,1.34 0.47,1.17 0.26,0.35 0.5,1.64 0.29,1.56 0.13,3.23 0.13,4.82 -1.43,-0.96 -1.95,-0.97 -2.49,-3.25 -0.87,-3.69 0.14,-1.04 1.08,-4.55zm26.23 0.71c-0.49,2.02 0.11,1.07 -1.42,2.13 1.03,1.4 0.33,0.14 0.98,1.09 1.07,1.53 0.92,-0.32 0.44,1.04l-1.6 -0.54c-2.81,-2.43 1.66,2.24 -0.69,-0.73 -3.54,-4.49 1.88,-3.02 2.29,-2.99zm0 0l1.28 -1.56c-0.35,1.99 0.4,0.93 -1.28,1.56zm4.25 -1.42c0,-1.81 1.12,-0.11 0.42,0 -0.01,0 -0.42,1.98 -0.42,0zm-1.42 -6.38c1.98,0.72 1.75,1.57 3.55,4.26 -2.16,-0.05 -2.59,-0.32 -4.25,-0.71 0.05,-2.47 -0.11,-1.9 0.7,-3.55zm50.34 1.42l2.84 0 0 1.42c-3.3,-0.27 -1.24,0.76 -2.84,-1.42zm-40.41 -1.42c-0.32,-1.74 1.3,-0.29 0.78,0.12 0,0 -0.05,0.02 -0.06,0.02 -1.44,-0.09 -0.45,1.35 -0.72,-0.14zm43.25 -4.25l1.13 0.99c0.84,1.09 0.58,0.3 0.99,1.84l-6.38 0c1.05,-1.43 2.27,-2.3 4.26,-2.83zm-70.19 1.42c0.75,-0.76 2.69,1.12 0.79,0.37 -0.02,-0.01 -1.98,0.82 -0.79,-0.37zm-27.65 -0.71c0,-2.62 1.17,-3.4 1.42,-6.38l1.41 0c0.62,2.31 2.66,2.26 0.72,10.63 -2.06,-0.54 -3.55,-1.82 -3.55,-4.25zm129.74 -0.71c0,-1.81 1.12,-0.12 0.42,0 -0.01,0 -0.42,1.98 -0.42,0zm-77.99 2.13c-3.26,0.27 -1.93,0.57 -4.25,2.12 -0.25,-3.06 -0.24,-5.48 1.45,-8.47 0.1,-0.19 0.49,-0.64 0.59,-0.83l0.51 -0.91c0.51,-1.4 0.29,-3.13 0.29,-4.68l1.41 0c0.36,1.55 0.41,1.64 1.12,3.14 0.58,1.22 2.73,4.18 2.86,7.03 0.08,2.05 -0.7,2.09 -1.14,3.3 -2.26,-1.65 -0.58,-1.18 -2.84,-2.83l0 2.13zm-24.81 -4.26l70.9 0 -70.9 0zm0 0c0,-1.81 1.12,-0.11 0.42,0 -0.01,0 -0.42,1.98 -0.42,0zm101.38 -0.71l0.21 0.21c-0.01,-0.01 -0.28,-0.13 -0.21,-0.21zm4.25 -4.96l-34.73 5.67 34.73 -5.67zm0 0c0,2.98 0.3,2.86 -0.7,4.96 -4.63,-1.23 -1.11,-3.74 0.7,-4.96zm-7.79 0.71l0.21 0.21c-0.02,-0.01 -0.28,-0.14 -0.21,-0.21zm-34.74 -2.84c0.2,-2.47 0.15,-2.08 1.42,-3.54 -0.14,1.67 -0.23,3 -1.42,3.54zm-10.64 -2.12l-0.81 -1.39 0.81 1.39zm-20.56 -4.26l0.22 0.22c-0.02,-0.02 -0.29,-0.15 -0.22,-0.22zm26.94 -0.71l0.21 0.22c-0.01,-0.02 -0.28,-0.15 -0.21,-0.22zm-46.08 -2.12c0.84,1.32 0.8,-1.59 0.59,1.42 -0.11,1.51 -0.09,0.63 -0.59,1.41l0 -2.83zm0.71 -2.13l0.21 0.21c-0.01,-0.01 -0.28,-0.14 -0.21,-0.21zm177.24 -9.22l-131.16 8.51 131.16 -8.51zm0 0c0.75,-0.75 2.69,1.13 0.79,0.37 -0.01,0 -1.98,0.82 -0.79,-0.37zm-142.5 -9.21l0.21 0.21c-0.01,-0.02 -0.28,-0.14 -0.21,-0.21zm175.82 -4.97c0.07,-0.07 0.21,0.12 0.21,0.22l-0.21 -0.22zm-44.66 -7.09l2.12 0 0 1.42c-2.07,-0.49 -1.02,0.09 -2.12,-1.42zm66.64 -0.7l0.21 0.21c-0.01,-0.02 -0.28,-0.14 -0.21,-0.21zm32.61 -0.71l2.13 0 0 2.12c-2.32,-0.84 -0.51,0.92 -2.13,-2.12zm-46.79 2.12l-1.42 0 0 -3.54 2.13 0c-0.09,1.07 -0.39,2.83 -0.71,3.54zm-46.79 -6.38c-2.76,-2.01 -1.49,-2.78 0.71,-4.25 -0.04,1.61 -0.22,3.16 -0.71,4.25zm116.27 -5.67c0,-1.92 2.54,0 0.63,0.04 -0.71,0.02 -0.63,1.57 -0.63,-0.04zm-24.81 -5.67c7.49,5.02 2.39,1.69 9.21,4.96 -1.77,3.69 -1.9,2.9 -2.13,5.68 2.08,0.49 1.03,-0.1 2.13,1.41 -0.91,0.62 -1.29,0.83 -2.2,1.35l-2.76 1.49c-0.43,-1.87 -0.65,-2.09 -1.42,-3.55 1.79,-2.43 2.49,-0.72 2.84,-4.96 -6,-1.4 -5.67,-3.33 -5.67,-6.38zm5.67 -4.25c1.71,0.39 2.34,0.26 3.16,1.93 1.01,2.09 -0.04,2.79 -1.04,3.74 -2.1,-1.54 -2.12,-2.12 -2.12,-5.67zm-2.13 -1.42l-1.52 -0.39 1.52 0.39zm91.37 -2.81l2.21 -0.03c-0.27,3.29 0.76,1.24 -1.42,2.84l-0.79 -2.81zm-4.88 -9.24c0,-7.29 -0.74,-7.34 2.95,-11.23 2.09,-2.19 0.45,-1.42 2.72,-2.24 1.01,2.09 0.8,2.27 2.13,4.25 -3.58,2.63 -2.34,8.76 -7.8,9.22zm-31.19 -10.64c0,-1.81 1.12,-0.11 0.42,0 -0.01,0 -0.42,1.98 -0.42,0zm30.48 -7.8c-0.32,-1.74 1.3,-0.29 0.79,0.12 0,0 -0.06,0.02 -0.06,0.02 -1.45,-0.09 -0.45,1.35 -0.73,-0.14zm8.51 -3.54c2.66,0.71 8.38,7.28 2.13,7.8 -0.29,-3.5 -1.99,-2.88 -2.13,-7.8zm-30.48 -2.13l0 3.55 -0.71 0c0,-0.53 -0.05,-1.59 0.06,-2.07 0.32,-1.37 0.18,-0.74 0.65,-1.48zm34.74 -2.13c0,-1.81 1.12,-0.11 0.42,0 -0.01,0 -0.42,1.98 -0.42,0zm53.17 -8.51c0.75,-0.75 2.69,1.13 0.79,0.38 -0.02,-0.01 -1.98,0.82 -0.79,-0.38zm4.96 -17.72c2.07,0.5 1.02,-0.09 2.13,1.42l-2.13 0 0 -1.42z"/>
  <path class="fil11" d="M630.58 674.95l6.77 24.66 10.04 -21.15 6.4 22.93 8.19 -18.81 8.25 20 7.48 -12.41c0.5,-0.76 1.59,-2.11 2.36,-3.19 0.89,0.95 2.6,1.08 2.8,2.74l12.48 -28.09 6.98 22.32c7.53,-4.38 6.96,-4.18 11.64,-11.89l6.33 16.48 8.55 -31.24 8.04 23.95 7.55 -22.61 9.36 22.85c1.74,-8.58 5.68,-11.47 12.28,-16.12l5.34 22.54 5.55 -15.79 11.23 20.45 4.62 -16.19"/>
 </g>
</svg>
