<?xml version="1.0" encoding="UTF-8"?>
<!DOCTYPE svg PUBLIC "-//W3C//DTD SVG 1.1//EN" "http://www.w3.org/Graphics/SVG/1.1/DTD/svg11.dtd">
<!-- Creator: CorelDRAW -->
<svg xmlns="http://www.w3.org/2000/svg" xml:space="preserve" width="1920px" height="1080px" version="1.1" style="shape-rendering:geometricPrecision; text-rendering:geometricPrecision; image-rendering:optimizeQuality; fill-rule:evenodd; clip-rule:evenodd"
viewBox="0 0 1920 1080"
 xmlns:xlink="http://www.w3.org/1999/xlink"
 xmlns:xodm="http://www.corel.com/coreldraw/odm/2003">
 <defs>
  <style type="text/css">
   <![CDATA[
    .fil0 {fill:#262626}
   ]]>
  </style>
 </defs>
 <g id="Layer_x0020_1">
  <metadata id="CorelCorpID_0Corel-Layer"/>
  <path class="fil0" d="M333.6 948.52c6.9,-0.06 11.14,-0.45 15.78,-3.89 -4.68,-2.51 -10.69,-4.85 -15.36,-7.84 -5.62,-3.59 -8.49,-6.49 -13.19,-9.05 3.24,-2.93 9.07,-2.95 13.27,-3.87 4.14,-0.9 7.34,-1.73 10.59,-4.07 -1,-1.31 -0.01,-0.47 -1.88,-1.72 -0.2,-0.14 -0.52,-0.34 -0.74,-0.47l-10.58 -5.44c-4.78,-3.4 -8.2,-5.86 -9.92,-10.89 5.11,-1.79 12.86,-1.73 17.15,-5.19 -9.58,-4.12 -21,-10.75 -23.93,-21.23l16.54 -4.3c-5.14,-5.7 -11.69,-7.26 -14.95,-14.12 5.95,0.42 8.5,1.43 14.52,0 -7.64,-7.15 -21.29,-11.65 -23.53,-24.3 6.29,1.75 9.3,3.16 16.45,2.52 -5.61,-5.83 -18.13,-16.11 -20.58,-24.36l13.07 1.77c-3.46,-6.1 -9.8,-13.45 -14.79,-21.77 -4.11,-6.84 -6.93,-17.17 -12.37,-23.55 -2.91,8.31 -4.64,15.93 -8.22,23.7 -3.83,8.32 -9.9,13.79 -12.79,20.15l13.26 -2.04c-5.32,9.11 -15.65,14.2 -20.16,23.6l11.61 1.48c-7.73,6.08 -17.05,9.83 -22.84,15.79 4.94,3.26 14.04,1.78 20.5,1.55 -3.6,6.81 -9.61,15.21 -14.17,21.07 -5.82,7.47 -9.5,10.11 -17.05,16.43 6.67,5.09 14.97,1.7 23.38,0.38 -2.62,6.95 -8,13.97 -12.67,18.77l-5.61 4.76c4.12,4.71 3.78,-0.64 3.37,4.34 -0.68,8.11 -26.47,29.52 -26.87,30.26 7.91,1.35 11.78,2.02 20.59,0.99 -4.66,14.56 -13.52,19.74 -19.19,30.02l11.62 0.47c-2.54,7.03 -7.64,12.58 -12.4,17.99l-12.81 13.49 14.6 0.33c-2.08,2.99 -4.18,5.89 -6.45,8.69 -6.85,8.43 -26.16,8.94 -30.21,-8.96 6.01,1.74 10.4,6.49 18.26,5.7 -2.31,-5.81 -11.07,-7.95 -14.97,-17.37 4.57,1.28 7.32,3.28 11.72,1.71 -2.87,-6.48 -13.28,-14.64 -17.2,-20.99l5.52 -1.77c0.21,-0.07 0.78,0.04 0.93,-0.35 0.16,-0.38 0.65,-0.17 0.93,-0.35 -2.39,-5.17 -11.38,-11.61 -13.33,-17.52l12.18 0.33c-3.19,-7.96 -13.88,-9.93 -16.95,-17.41l11.56 -0.35c-0.59,-3.98 -4.23,-6.67 -7.05,-9.55 -2.63,-2.68 -4.64,-5.58 -7.1,-8.98 -5.88,-8.13 -6.79,-13.39 -11.49,-21.82 -2.45,2.87 -2.51,9.04 -3.36,12.7 -1.81,7.8 -5.09,15.97 -9.51,22.57 -2.32,3.46 -5.3,5.66 -6.87,9.43l11.8 0.32c0.12,10.38 -14.02,17.44 -18.45,25.34 5.45,3.36 -0.5,1.45 8.03,1.48 -1.08,4.46 -1.39,3.2 -4.51,6.52l-11.7 10.51c-1.78,1.38 -1.95,1.32 -3.58,2.57 -0.2,0.15 -0.53,0.41 -0.7,0.55 -0.18,0.14 -0.53,0.47 -0.67,0.58 -0.14,0.12 -0.54,0.83 -0.64,0.62 -0.1,-0.21 -0.44,0.4 -0.63,0.63 4.79,2.63 10.88,1.68 16.76,1.81 -1,5.28 -5.53,11.19 -8.15,15.39 -1.67,2.69 -3.11,4.6 -5.09,7.23 -3.28,4.35 -1.59,4.16 -8.41,4.38l-9.88 -16.38 11.34 2.77c-3.32,-7.62 -9.46,-12.1 -11.56,-21.6l10.83 2.03c-4.39,-6.48 -12.26,-7.23 -16.43,-15.03l11.82 0.46c-3.78,-4.12 -8.07,-7.58 -12.06,-11.93l5.51 -1.88c2.24,-0.53 4.03,-0.99 5.65,-1.54 -4.77,-5.8 -15.97,-7.58 -21.36,-15.12 6.21,-0.66 13.69,-1.3 17.73,-4.91 -6.05,-4.69 -14.13,-5.73 -17.16,-13.58 3.83,-1.75 8.68,-1.94 12.79,-3.96 -8.74,-6.34 -14.04,-4.91 -17.97,-15.8 3.06,-2.17 7.99,-2.97 12.31,-3.87 -4.75,-4.89 -8.73,-5.49 -11.34,-10.76l10.33 0.26c-3.1,-3.58 -7.09,-5.48 -10.6,-8.66 -2.8,-2.54 -5.21,-5.3 -6.52,-9.9 5.39,0.59 5.99,2.31 12.44,1.38 -5.61,-4.69 -13.27,-10.93 -15.43,-18.26l9.77 1.32c-1.87,-3.66 -4,-5.56 -6.04,-8.27 -5.59,-7.44 -8.66,-19.71 -14.87,-26.08 -4.65,17.88 -7.54,19.46 -16.03,33.2l9.88 -1.2c-3.06,6.89 -10.69,11.01 -14.73,17.4l8.04 2.84c-4.78,1.65 -15.23,7.1 -16.33,11.78l14.98 -0.02c-4.3,10.4 -21.47,25.75 -22.59,29.58 7.83,1.98 9.93,0.21 16.98,-0.75 -2.88,7.21 -8.36,14.02 -14.2,17.53 3.31,4.06 2.15,-0.62 2.95,4.46 -5.16,6.18 -9.07,13.19 -15.45,17.73 -3.15,2.24 -3.23,1.43 -5.48,5.01l15.76 0.48c-2.99,9.35 -8.83,16.69 -14.28,21.17 3.07,2.67 3.3,2.05 8.38,2.18 -4.33,11.49 -15.24,17.43 -19.69,25.08l11.52 -1.02c-4.03,6.85 -6.38,9.63 -12.69,13.49l0.17 55.38 960.62 0.04c0.06,-85.59 4.36,-37.65 -18.01,-72.18 3.45,2.4 5.79,3.33 11.62,3.59 -3.37,-7.68 -8.74,-11.52 -11.4,-21.83 4.33,1.6 7.48,3.41 11.03,1.62 -6.51,-5.11 -13.41,-7.92 -16.81,-14.21l12.15 0.38c-5.35,-5.06 -7.7,-6.04 -12.25,-12.1l11.17 -3.44 -21.36 -13.41c1.54,-1.21 0.45,-0.6 2.96,-1.52 4.55,-1.68 11.58,-1.45 14.92,-5.08 -7.26,-4.68 -13.78,-5.37 -17.56,-13.53l12.91 -3.76c-7.68,-6.08 -14.41,-5.79 -17.86,-16.43l12.21 -3.51c-4.65,-5.17 -6.14,-3 -10.36,-10.36l9.94 0.01c-6.56,-5.98 -16.02,-9.43 -17.49,-18.55l12.32 2.01c-4.12,-7.36 -12.01,-8.94 -15.45,-18.81l9.97 1.31c-1.62,-2.87 -3.95,-5.1 -6.24,-8.3 -5.78,-8.11 -9.18,-17.69 -14.33,-25.98 -6.47,17.62 -6.61,18.48 -16.64,33.19l10.34 -1.39c-2.39,5 -11.41,12.5 -14.98,17.62l8.58 1.95c-4.43,2.05 -15.19,8.28 -16.92,12.58l15.12 0.48c-3.27,4.89 -7.03,10.57 -10.71,15.44 -3.67,4.87 -10.47,9.26 -12.43,13.82 6.84,1.13 10.61,0.15 17.28,-0.85 -3.29,7.18 -7.42,13.84 -13.97,17.38 1.36,2.62 2.2,1.58 2.94,4.35 -3.51,4.28 -6.1,9.01 -9.57,12.5 -2.45,2.45 -10.5,7.45 -11.66,10.37l16.01 0.98c-3.97,9.7 -12.24,17.5 -14.01,22.3l8.22 0.6c-3.28,7.66 -19.56,22.64 -20.11,25.52l12.57 -1.74c-2.16,5.42 -5.56,10.17 -7.78,14.19l-20.91 -0.3c-4.12,-6.38 -10.92,-11.23 -13.77,-17.15 5.28,2.02 15.19,7.24 21.38,4.75l-8.25 -5.7 8.74 -2.05c-6.9,-8.72 -21.45,-11.09 -25.87,-22.56l12.26 1.9c-3.24,-4.16 -4.59,-3.37 -7.02,-8.7 10.3,0.76 13.06,5.52 26.89,3.31 -2.59,-2.68 -0.68,-1.27 -4.72,-2.76 -4.7,-1.73 -9.7,-3.76 -12.85,-6.65l14.82 -1.86c-5.64,-4.05 -11.98,-2.68 -17.1,-8.3l15.41 -0.67c-12.9,-6.92 -28.11,-18.24 -32.87,-31.94l10.11 0.71c-1.99,-2.6 -2.01,-2.28 -4.64,-4.51 -2.59,-2.2 -2.4,-1.77 -4.19,-3.96l9.94 2.37c-7.71,-12.33 -26.61,-21.15 -35.38,-53.9 -0.9,1.05 -0.86,0.89 -1.79,2.65l-0.84 1.88c-8.65,21.37 -13.73,37.84 -34.06,52l9.09 0.51 -3.83 8.66c9.26,-0.26 8.7,-1.35 16.03,-4.13 -2.46,9.02 -9.75,17.16 -17.29,22.75 -2.81,2.09 -4.73,2.46 -7.62,5.55l13.66 0.08c-3.64,6.85 -14.3,15 -20.51,19.4 -1.72,1.22 -1.69,1 -3.53,2.63l-3.74 4.31 14.13 -1.86 -4.92 11.05c7.29,-1.9 12.03,-6.38 18.58,-8.04 -0.05,19.18 -6.97,40.78 -29.9,40.21 -6.03,-9.11 -14.88,-15.99 -18.76,-26.78 8.73,1.55 20.84,5.3 26.24,-1.97 -2.95,-3.11 -7.7,-6.19 -10.55,-8.78 -8.88,-8.08 -18.75,-21.4 -22.53,-33.84 6,0.26 14.42,1.08 18.51,-1.83 -8.01,-8.19 -19.83,-12.52 -24.83,-23.59 4.48,-0.06 5.69,0.54 9.18,-1.1 -1.83,-4.87 -8.63,-8.99 -11.73,-13.15 -2.66,-3.58 -8.09,-10.54 -8.55,-14.6l13.1 -0.35c-1.37,-5.09 -0.39,-2.37 -3.66,-5.76 -11.08,-11.44 -12.47,-27.53 -16.53,-42.34 -3.61,1.28 -2.04,1.04 -3.79,5.75l-9.73 17.42c-4.65,6.68 -12.5,12.72 -15.79,19.97l12.5 0.49c0,4.13 -0.06,1.86 -3.42,4.87 -4.65,4.15 -11.88,8.07 -14.16,13.88l13.04 0.31c-2.51,6.55 -11.21,11.83 -14.69,18.45 0.28,0.19 0.66,0.38 0.89,0.47l7.05 1c-2.01,7.6 -14.71,16.05 -18.74,24.45 7.39,0.46 7.82,-1.5 12.89,-1.86 -2.91,6.61 -11.92,11.59 -15.92,17.92 4.66,2.27 15.16,-4.02 18.89,-5.78 -0.37,6.16 -7.25,13.33 -10.5,17.39 -3.03,3.78 -11.34,9.85 -12.43,13.84 7.37,-0.12 10.63,-3.52 15.67,-5.34 -0.37,9.05 -15.7,25.07 -19.44,30.88 -18.91,0.08 -17.14,3.09 -29.09,-12.37 -2.75,-3.56 -8.06,-9.38 -9.71,-13.67 9.85,2.64 11.86,6.63 25.3,6.29l-9.5 -6.53 10.64 -3.58 -4.31 -3.6c-9.34,-6.16 -23.95,-12.51 -27.78,-23.66l16.16 2.4c-1.75,-1.86 -1,-0.95 -2.86,-2.49 -3.23,-2.67 -4.97,-4.23 -6.65,-8.79 8.56,2.16 23.69,8.74 33.01,3.9 -6.08,-4.64 -15.05,-3.51 -21.49,-11.23 5.62,-0.13 11.88,0.77 16.73,-2.36 -5.5,-3.62 -13.93,-4.96 -20.18,-9.41l19.55 -0.61c-6.82,-5.78 -15.96,-10.56 -23.04,-16.34 -5.06,-4.13 -14.65,-13.48 -16.91,-22.73l12.77 0.72c-3.6,-4.24 -8.24,-6.56 -12.26,-10.73l13.63 3.46c-3.76,-5.03 -9.47,-9.09 -13.98,-14.5 -4.47,-5.37 -8.53,-9.64 -12.76,-15.62 -6.81,-9.62 -15.08,-22.66 -17.32,-37.22 -3.13,6.42 -5,15.05 -7.88,21.82 -7.08,16.59 -15.12,32.13 -29.34,43.49 -2.12,1.69 -4.98,3.28 -7.26,5.49l10.76 -0.13c-0.92,4.71 -2.58,7.63 -3.87,10.72 8.27,0.26 14.11,-2.66 19.89,-5.39 -4.51,13.94 -18.35,27.82 -31.79,34.04 6.57,1.83 11.35,1.39 18.03,0.9 -7.97,12.22 -32.43,27 -36.11,32.47l19.14 -3.02 -6.3 13.82c9.75,-1.85 15.58,-7.79 22.36,-10.06 1.53,21.51 -7.13,39.75 -18.82,50.37 -9.89,8.98 -17.08,3.79 -23.36,-3.69 -3,-3.59 -11.69,-15.06 -12.31,-20.64 6.42,1.94 6.14,4.3 15.26,5.15 -2.78,-6.02 -8.86,-9.64 -12.8,-14.17 -3.08,-3.54 -7.38,-9.42 -9.48,-14.43 5.85,0.26 11.7,7.02 18.06,4.64 -3.1,-6.1 -13.24,-9.04 -14.31,-16.71 4.68,1.24 5.22,2.64 11.7,2.02 -1.53,-4.77 -13.37,-16.05 -17.83,-22.08l7.66 -1.5c-2.21,-6.04 -10.25,-10.59 -13.28,-17.84l11.83 -0.05c-2.34,-6.38 -13.14,-10.39 -16.58,-17.09l11.45 -0.41c0.07,-3.65 -4.02,-6.21 -6.72,-8.95 -12,-12.18 -14.07,-24.96 -19.3,-31.61 -1.87,3.04 -4.28,18.52 -6.93,24.94 -2.87,6.97 -11.38,16.52 -12.14,20.24l11.61 0.11c-1.78,11.37 -16.14,17.41 -18.49,26.15l8.48 0.52c-5.38,9.89 -15.81,14.55 -23.18,22.24 4.74,1.59 11.46,1.69 17.34,1.12 -6.63,22.46 -24.17,32.11 -30.59,39.89 7.2,5.97 16.11,3.28 24.14,1.37 -1.85,9.76 -14.91,18.21 -17.86,25.07l-9.5 -0.01c-5.12,-3.05 -11.07,-12.59 -13.21,-18.68 5.04,2.82 8.05,5.97 16.19,5.11 -3.35,-3.5 -14.51,-21.13 -15.59,-28.68 4.69,1.73 8.89,3.49 15.18,3.21 -3.52,-4.54 -13.34,-10.15 -18.76,-14.36l-5.27 -5.42 16.69 0.78c-0.21,-0.27 -0.51,-0.6 -0.66,-0.77 -0.16,-0.17 -0.48,-0.55 -0.67,-0.75 -0.19,-0.19 -0.46,-0.49 -0.67,-0.7l-7.44 -6.29c-2.18,-2.06 -5.49,-6.08 -6.91,-8.94z"/>
  <path class="fil0" d="M1586.69 948.52c-6.9,-0.06 -11.14,-0.45 -15.78,-3.89 4.68,-2.51 10.69,-4.85 15.35,-7.84 5.63,-3.59 8.5,-6.49 13.19,-9.05 -3.23,-2.93 -9.06,-2.95 -13.26,-3.87 -4.14,-0.9 -7.35,-1.73 -10.59,-4.07 1,-1.31 0.01,-0.47 1.88,-1.72 0.2,-0.14 0.52,-0.34 0.74,-0.47l10.58 -5.44c4.78,-3.4 8.2,-5.86 9.92,-10.89 -5.12,-1.79 -12.86,-1.73 -17.16,-5.19 9.59,-4.12 21.01,-10.75 23.94,-21.23l-16.54 -4.3c5.14,-5.7 11.69,-7.26 14.95,-14.12 -5.95,0.42 -8.51,1.43 -14.52,0 7.64,-7.15 21.29,-11.65 23.52,-24.3 -6.28,1.75 -9.29,3.16 -16.45,2.52 5.62,-5.83 18.14,-16.11 20.59,-24.36l-13.07 1.77c3.46,-6.1 9.8,-13.45 14.79,-21.77 4.1,-6.84 6.92,-17.17 12.37,-23.55 2.91,8.31 4.64,15.93 8.22,23.7 3.83,8.32 9.9,13.79 12.78,20.15l-13.26 -2.04c5.33,9.11 15.66,14.2 20.16,23.6l-11.6 1.48c7.72,6.08 17.05,9.83 22.83,15.79 -4.93,3.26 -14.03,1.78 -20.49,1.55 3.6,6.81 9.61,15.21 14.17,21.07 5.82,7.47 9.5,10.11 17.05,16.43 -6.67,5.09 -14.97,1.7 -23.39,0.38 2.63,6.95 8.01,13.97 12.68,18.77l5.61 4.76c-4.12,4.71 -3.78,-0.64 -3.37,4.34 0.67,8.11 26.47,29.52 26.87,30.26 -7.91,1.35 -11.79,2.02 -20.59,0.99 4.65,14.56 13.51,19.74 19.19,30.02l-11.62 0.47c2.53,7.03 7.64,12.58 12.4,17.99l12.81 13.49 -14.6 0.33c2.08,2.99 4.17,5.89 6.45,8.69 6.84,8.43 26.16,8.94 30.21,-8.96 -6.01,1.74 -10.41,6.49 -18.26,5.7 2.31,-5.81 11.07,-7.95 14.97,-17.37 -4.57,1.28 -7.33,3.28 -11.72,1.71 2.87,-6.48 13.28,-14.64 17.2,-20.99l-5.52 -1.77c-0.22,-0.07 -0.78,0.04 -0.93,-0.35 -0.16,-0.38 -0.65,-0.17 -0.93,-0.35 2.39,-5.17 11.37,-11.61 13.32,-17.52l-12.18 0.33c3.2,-7.96 13.89,-9.93 16.96,-17.41l-11.57 -0.35c0.6,-3.98 4.24,-6.67 7.06,-9.55 2.63,-2.68 4.64,-5.58 7.09,-8.98 5.88,-8.13 6.8,-13.39 11.5,-21.82 2.45,2.87 2.51,9.04 3.36,12.7 1.8,7.8 5.09,15.97 9.51,22.57 2.32,3.46 5.3,5.66 6.86,9.43l-11.79 0.32c-0.12,10.38 14.02,17.44 18.45,25.34 -5.45,3.36 0.5,1.45 -8.03,1.48 1.08,4.46 1.39,3.2 4.5,6.52l11.71 10.51c1.78,1.38 1.95,1.32 3.58,2.57 0.2,0.15 0.52,0.41 0.7,0.55 0.17,0.14 0.53,0.47 0.67,0.58 0.14,0.12 0.54,0.83 0.64,0.62 0.1,-0.21 0.44,0.4 0.63,0.63 -4.79,2.63 -10.88,1.68 -16.76,1.81 1,5.28 5.53,11.19 8.15,15.39 1.66,2.69 3.11,4.6 5.09,7.23 3.27,4.35 1.58,4.16 8.41,4.38l9.87 -16.38 -11.33 2.77c3.31,-7.62 9.46,-12.1 11.56,-21.6l-10.83 2.03c4.39,-6.48 12.26,-7.23 16.42,-15.03l-11.81 0.46c3.78,-4.12 8.07,-7.58 12.06,-11.93l-5.51 -1.88c-2.24,-0.53 -4.03,-0.99 -5.65,-1.54 4.77,-5.8 15.97,-7.58 21.35,-15.12 -6.2,-0.66 -13.68,-1.3 -17.72,-4.91 6.05,-4.69 14.13,-5.73 17.16,-13.58 -3.83,-1.75 -8.68,-1.94 -12.79,-3.96 8.74,-6.34 14.04,-4.91 17.97,-15.8 -3.06,-2.17 -7.99,-2.97 -12.31,-3.87 4.75,-4.89 8.73,-5.49 11.34,-10.76l-10.33 0.26c3.1,-3.58 7.08,-5.48 10.6,-8.66 2.8,-2.54 5.21,-5.3 6.52,-9.9 -5.39,0.59 -5.99,2.31 -12.44,1.38 5.61,-4.69 13.27,-10.93 15.43,-18.26l-9.77 1.32c1.87,-3.66 4,-5.56 6.04,-8.27 5.59,-7.44 8.66,-19.71 14.87,-26.08 4.65,17.88 7.54,19.46 16.03,33.2l-9.88 -1.2c3.06,6.89 10.69,11.01 14.73,17.4l-8.04 2.84c4.78,1.65 15.23,7.1 16.33,11.78l-14.98 -0.02c4.3,10.4 21.47,25.75 22.59,29.58 -7.83,1.98 -9.93,0.21 -16.98,-0.75 2.87,7.21 8.36,14.02 14.2,17.53 -3.31,4.06 -2.16,-0.62 -2.95,4.46 5.15,6.18 9.06,13.19 15.45,17.73 3.15,2.24 3.23,1.43 5.48,5.01l-15.76 0.48c2.99,9.35 8.83,16.69 14.28,21.17 -3.07,2.67 -3.3,2.05 -8.38,2.18 4.33,11.49 15.24,17.43 19.69,25.08l-11.52 -1.02c4.03,6.85 6.37,9.63 12.69,13.49l-0.18 55.38 -960.61 0.04c-0.06,-85.59 -4.36,-37.65 18.01,-72.18 -3.45,2.4 -5.79,3.33 -11.63,3.59 3.37,-7.68 8.75,-11.52 11.4,-21.83 -4.32,1.6 -7.48,3.41 -11.02,1.62 6.51,-5.11 13.41,-7.92 16.8,-14.21l-12.14 0.38c5.35,-5.06 7.69,-6.04 12.25,-12.1l-11.17 -3.44 21.36 -13.41c-1.55,-1.21 -0.46,-0.6 -2.96,-1.52 -4.55,-1.68 -11.58,-1.45 -14.92,-5.08 7.26,-4.68 13.78,-5.37 17.55,-13.53l-12.9 -3.76c7.67,-6.08 14.41,-5.79 17.86,-16.43l-12.21 -3.51c4.64,-5.17 6.14,-3 10.36,-10.36l-9.94 0.01c6.56,-5.98 16.02,-9.43 17.49,-18.55l-12.32 2.01c4.12,-7.36 12.01,-8.94 15.45,-18.81l-9.98 1.31c1.63,-2.87 3.96,-5.1 6.25,-8.3 5.78,-8.11 9.18,-17.69 14.33,-25.98 6.46,17.62 6.61,18.48 16.64,33.19l-10.34 -1.39c2.38,5 11.4,12.5 14.97,17.62l-8.58 1.95c4.44,2.05 15.2,8.28 16.93,12.58l-15.12 0.48c3.27,4.89 7.03,10.57 10.71,15.44 3.67,4.87 10.47,9.26 12.43,13.82 -6.84,1.13 -10.61,0.15 -17.28,-0.85 3.29,7.18 7.41,13.84 13.97,17.38 -1.37,2.62 -2.2,1.58 -2.94,4.35 3.51,4.28 6.1,9.01 9.57,12.5 2.45,2.45 10.49,7.45 11.66,10.37l-16.01 0.98c3.97,9.7 12.24,17.5 14.01,22.3l-8.23 0.6c3.29,7.66 19.56,22.64 20.12,25.52l-12.57 -1.74c2.15,5.42 5.56,10.17 7.78,14.19l20.91 -0.3c4.12,-6.38 10.92,-11.23 13.77,-17.15 -5.29,2.02 -15.19,7.24 -21.38,4.75l8.25 -5.7 -8.74 -2.05c6.9,-8.72 21.45,-11.09 25.87,-22.56l-12.26 1.9c3.23,-4.16 4.59,-3.37 7.02,-8.7 -10.3,0.76 -13.06,5.52 -26.89,3.31 2.59,-2.68 0.68,-1.27 4.71,-2.76 4.71,-1.73 9.71,-3.76 12.86,-6.65l-14.83 -1.86c5.65,-4.05 11.99,-2.68 17.11,-8.3l-15.42 -0.67c12.91,-6.92 28.12,-18.24 32.87,-31.94l-10.1 0.71c1.99,-2.6 2.01,-2.28 4.64,-4.51 2.59,-2.2 2.4,-1.77 4.19,-3.96l-9.95 2.37c7.72,-12.33 26.62,-21.15 35.39,-53.9 0.9,1.05 0.86,0.89 1.79,2.65l0.84 1.88c8.65,21.37 13.73,37.84 34.06,52l-9.1 0.51 3.83 8.66c-9.25,-0.26 -8.7,-1.35 -16.02,-4.13 2.46,9.02 9.74,17.16 17.28,22.75 2.82,2.09 4.74,2.46 7.63,5.55l-13.66 0.08c3.64,6.85 14.3,15 20.51,19.4 1.72,1.22 1.69,1 3.53,2.63l3.74 4.31 -14.14 -1.86 4.93 11.05c-7.29,-1.9 -12.04,-6.38 -18.58,-8.04 0.05,19.18 6.97,40.78 29.89,40.21 6.04,-9.11 14.89,-15.99 18.77,-26.78 -8.73,1.55 -20.84,5.3 -26.24,-1.97 2.95,-3.11 7.7,-6.19 10.55,-8.78 8.88,-8.08 18.75,-21.4 22.53,-33.84 -6.01,0.26 -14.42,1.08 -18.52,-1.83 8.02,-8.19 19.84,-12.52 24.84,-23.59 -4.48,-0.06 -5.7,0.54 -9.19,-1.1 1.84,-4.87 8.64,-8.99 11.74,-13.15 2.66,-3.58 8.09,-10.54 8.55,-14.6l-13.1 -0.35c1.37,-5.09 0.39,-2.37 3.66,-5.76 11.08,-11.44 12.47,-27.53 16.53,-42.34 3.61,1.28 2.04,1.04 3.79,5.75l9.73 17.42c4.64,6.68 12.5,12.72 15.79,19.97l-12.5 0.49c-0.01,4.13 0.06,1.86 3.42,4.87 4.65,4.15 11.88,8.07 14.16,13.88l-13.05 0.31c2.52,6.55 11.21,11.83 14.7,18.45 -0.28,0.19 -0.66,0.38 -0.89,0.47l-7.06 1c2.01,7.6 14.72,16.05 18.75,24.45 -7.39,0.46 -7.82,-1.5 -12.89,-1.86 2.91,6.61 11.92,11.59 15.92,17.92 -4.66,2.27 -15.16,-4.02 -18.89,-5.78 0.36,6.16 7.25,13.33 10.5,17.39 3.03,3.78 11.34,9.85 12.42,13.84 -7.36,-0.12 -10.62,-3.52 -15.67,-5.34 0.38,9.05 15.71,25.07 19.45,30.88 18.91,0.08 17.13,3.09 29.09,-12.37 2.75,-3.56 8.06,-9.38 9.71,-13.67 -9.85,2.64 -11.86,6.63 -25.31,6.29l9.51 -6.53 -10.64 -3.58 4.31 -3.6c9.34,-6.16 23.95,-12.51 27.78,-23.66l-16.16 2.4c1.75,-1.86 1,-0.95 2.86,-2.49 3.22,-2.67 4.96,-4.23 6.65,-8.79 -8.56,2.16 -23.69,8.74 -33.01,3.9 6.08,-4.64 15.05,-3.51 21.49,-11.23 -5.62,-0.13 -11.89,0.77 -16.73,-2.36 5.5,-3.62 13.93,-4.96 20.18,-9.41l-19.55 -0.61c6.82,-5.78 15.96,-10.56 23.04,-16.34 5.06,-4.13 14.65,-13.48 16.91,-22.73l-12.77 0.72c3.6,-4.24 8.24,-6.56 12.26,-10.73l-13.63 3.46c3.75,-5.03 9.47,-9.09 13.98,-14.5 4.47,-5.37 8.53,-9.64 12.76,-15.62 6.81,-9.62 15.08,-22.66 17.32,-37.22 3.13,6.42 4.99,15.05 7.88,21.82 7.08,16.59 15.12,32.13 29.34,43.49 2.12,1.69 4.98,3.28 7.26,5.49l-10.76 -0.13c0.92,4.71 2.58,7.63 3.87,10.72 -8.27,0.26 -14.12,-2.66 -19.89,-5.39 4.51,13.94 18.35,27.82 31.79,34.04 -6.57,1.83 -11.35,1.39 -18.03,0.9 7.97,12.22 32.43,27 36.11,32.47l-19.14 -3.02 6.3 13.82c-9.75,-1.85 -15.58,-7.79 -22.37,-10.06 -1.52,21.51 7.14,39.75 18.83,50.37 9.88,8.98 17.08,3.79 23.35,-3.69 3.01,-3.59 11.7,-15.06 12.32,-20.64 -6.42,1.94 -6.15,4.3 -15.26,5.15 2.77,-6.02 8.85,-9.64 12.8,-14.17 3.08,-3.54 7.37,-9.42 9.47,-14.43 -5.84,0.26 -11.69,7.02 -18.06,4.64 3.1,-6.1 13.25,-9.04 14.31,-16.71 -4.67,1.24 -5.22,2.64 -11.69,2.02 1.53,-4.77 13.37,-16.05 17.83,-22.08l-7.66 -1.5c2.21,-6.04 10.25,-10.59 13.28,-17.84l-11.84 -0.05c2.35,-6.38 13.15,-10.39 16.59,-17.09l-11.45 -0.41c-0.07,-3.65 4.02,-6.21 6.72,-8.95 12,-12.18 14.07,-24.96 19.29,-31.61 1.87,3.04 4.29,18.52 6.94,24.94 2.87,6.97 11.38,16.52 12.13,20.24l-11.6 0.11c1.78,11.37 16.14,17.41 18.49,26.15l-8.48 0.52c5.38,9.89 15.81,14.55 23.18,22.24 -4.74,1.59 -11.46,1.69 -17.34,1.12 6.63,22.46 24.17,32.11 30.59,39.89 -7.21,5.97 -16.11,3.28 -24.14,1.37 1.85,9.76 14.91,18.21 17.85,25.07l9.51 -0.01c5.11,-3.05 11.07,-12.59 13.2,-18.68 -5.03,2.82 -8.04,5.97 -16.18,5.11 3.35,-3.5 14.51,-21.13 15.59,-28.68 -4.69,1.73 -8.89,3.49 -15.18,3.21 3.52,-4.54 13.34,-10.15 18.76,-14.36l5.27 -5.42 -16.69 0.78c0.2,-0.27 0.5,-0.6 0.66,-0.77 0.16,-0.17 0.48,-0.55 0.67,-0.75 0.19,-0.19 0.46,-0.49 0.67,-0.7l7.44 -6.29c2.18,-2.06 5.48,-6.08 6.91,-8.94z"/>
 </g>
</svg>
