<?xml version="1.0" encoding="UTF-8"?>
<!DOCTYPE svg PUBLIC "-//W3C//DTD SVG 1.1//EN" "http://www.w3.org/Graphics/SVG/1.1/DTD/svg11.dtd">
<!-- Creator: CorelDRAW -->
<svg xmlns="http://www.w3.org/2000/svg" xml:space="preserve" width="1000px" height="1000px" version="1.1" style="shape-rendering:geometricPrecision; text-rendering:geometricPrecision; image-rendering:optimizeQuality; fill-rule:evenodd; clip-rule:evenodd"
viewBox="0 0 1000 1000"
 xmlns:xlink="http://www.w3.org/1999/xlink"
 xmlns:xodm="http://www.corel.com/coreldraw/odm/2003">
 <defs>
  <style type="text/css">
   <![CDATA[
    .fil0 {fill:#FEFEFE}
    .fil1 {fill:#0C3167;fill-rule:nonzero}
   ]]>
  </style>
 </defs>
 <g id="Layer_x0020_1">
  <metadata id="CorelCorpID_0Corel-Layer"/>
  <g id="_2770116487424">
   <path class="fil0" d="M308.15 348.1c2.27,-5.38 4.59,-11.7 6.96,-18.97 -2.29,-3.44 -4.33,-7.1 -6.13,-10.99 -0.59,-1.28 -1.13,-2.57 -1.62,-3.86 -1.94,-4.83 -3.44,-9.74 -4.51,-14.71 -1.35,-6.38 -2.04,-12.5 -2.04,-18.34 0,-49.92 25.11,-78.77 75.3,-86.56 3.24,-0.5 6.45,-0.74 9.63,-0.75l0 -0.24 3.37 0c4.06,0 8.04,0.24 11.95,0.71l1.04 -4.17 1.38 -6.53 0.03 0.01c0.45,-2.14 1.02,-4.29 1.7,-6.42 3.68,-11.44 8.85,-21.23 15.46,-29.34 11.88,-14.55 26.74,-23.13 44.56,-25.76 1.39,-0.22 2.79,-0.4 4.22,-0.52 7.72,-0.71 12.05,-1.06 12.98,-1.06 9.66,0 19.46,1.65 29.37,4.95 9.34,3.12 17.9,7.5 25.65,13.14 2.71,1.96 5.26,4.06 7.67,6.28l2.53 -0.01 0 0.11c2.93,0 5.9,0.21 8.88,0.63 8.45,1.21 16.33,3.2 23.64,5.98 14.8,-12.23 32.32,-18.34 52.55,-18.34 22.18,0 41.62,9.74 58.31,29.22 4.05,-7.14 9.09,-13.52 15.11,-19.12 15.81,-14.73 34.57,-22.09 56.26,-22.09l0 0.18 2.96 0.07c10.55,0.51 20.52,2.87 29.88,7.07 10.09,4.53 18.85,10.78 26.25,18.73 14.72,15.83 22.09,34.57 22.09,56.25l-0.23 0 -0.02 1.73c-0.26,9.35 -0.45,17.58 -0.56,24.65 -0.04,2.52 0.06,5.38 0.06,22.72 0,12.26 -0.38,27.11 -1.14,44.56 -0.61,13.98 -1.58,28.32 -2.92,43.01 -1.43,15.8 -3.76,31.25 -6.97,46.33l-0.52 2.66c-3.45,15.65 -8.17,32.61 -14.15,50.84l-0.04 -0.01c-0.44,1.33 -0.91,2.65 -1.44,3.96 -5.69,14.23 -14.42,25.75 -26.19,34.53l1.93 2.04c6.11,6.69 10.85,14.03 14.22,22 6.7,-3.07 13.39,-5.53 20.07,-7.38 11.12,-3.08 21.81,-4.62 32.05,-4.62 7.19,0 14.81,0.84 22.86,2.51l-0.01 0.05c6.05,1.27 12,3.03 17.85,5.29 1.45,0.51 2.91,1.08 4.34,1.71 13.53,5.88 25.92,13.64 37.16,23.27 10.59,9.05 20.17,19.9 28.72,32.54l0.5 0.74c10.32,15.67 18.01,31.91 23.07,48.68 5.19,17.18 7.78,34.84 7.78,52.96 0,18.7 -2.91,36.14 -8.73,52.34 -6.74,18.77 -17.03,34.54 -30.87,47.3l-0.13 -0.15c-13.11,12.2 -27.53,21.88 -43.22,29 -15.19,6.9 -31.94,11.56 -50.24,13.99 -14.12,1.86 -27.02,3.2 -38.66,4 -13.73,0.95 -26.23,1.42 -37.51,1.42l-23.98 0c-10.48,-0.04 -22.42,-0.83 -35.83,-2.36 -5.83,-0.68 -12.46,-1.71 -19.89,-3.09l-2.18 -0.41c-6.26,1.3 -12.84,2.39 -19.75,3.25 -2.02,16.16 -8.54,30.42 -19.55,42.75 -11.41,12.78 -25.82,21.1 -43.19,24.96 -2.64,0.66 -5.34,1.16 -8.11,1.49l-46.94 5.65c-3.36,0.55 -6.8,0.84 -10.32,0.84 -15.77,0 -30.16,-4.14 -43.15,-12.46 -10.71,-6.87 -19.17,-15.93 -25.38,-27.17 -2.21,-3.63 -4.09,-7.54 -5.57,-11.7 -3.26,-9.12 -5.09,-18.28 -5.49,-27.46 -6.66,1.36 -13.7,2.48 -21.09,3.35 -13.49,1.57 -27.91,2.36 -43.23,2.36l-11.62 0 0 -0.1 -2.65 -0.18c-15.55,-0.4 -29.87,-3.48 -42.96,-9.21 -5.87,4.1 -11.66,7.82 -17.37,11.19 -23.98,14.13 -46.98,21.98 -69,23.54 -27.07,1.91 -43.42,2.87 -49.04,2.87 -24.44,0 -48.28,-3.38 -71.5,-10.12 -22.99,-6.68 -44.67,-16.72 -65,-30.1 -24.89,-16.42 -44.69,-36.65 -59.35,-60.69 -13.51,-22.15 -22.49,-47.11 -26.92,-74.84 -1.03,-4.54 -1.58,-9.26 -1.58,-14.12l0 -3.75c0,-13.6 2.23,-26.83 6.7,-39.66 4.2,-12.08 10.32,-23.1 18.33,-33.02l2.02 -2.52c8.57,-10.11 18.12,-18.05 28.64,-23.85 13.33,-7.32 27.32,-10.99 41.98,-10.99 3.36,0 7.2,0.32 11.52,0.93l-0.01 0.04c2.61,0.37 5.09,0.84 7.46,1.39 2.72,-3.28 5.72,-6.36 8.99,-9.23 11.6,-10.18 25.35,-16.56 41.25,-19.12 2.9,-0.43 5.86,-0.69 8.88,-0.74l44.83 -0.81c-0.49,-3.68 -0.73,-6.85 -0.73,-9.49 0,-11.86 2.41,-23.84 7.22,-35.95 3.88,-9.78 9.1,-18.93 15.65,-27.42 1.18,-1.57 2.44,-3.1 3.79,-4.58l23.61 -25.86 0.05 0.05 1.68 -1.77c6.07,-6.19 11.37,-12.03 15.87,-17.5 4.16,-5.05 8.19,-10.53 12.07,-16.41 2.79,-4.22 5.58,-9.63 8.35,-16.2z"/>
   <path class="fil1" d="M315.28 525.44c9.25,0 19.62,-6.62 31.11,-19.86 19.99,-24.49 35.04,-47.73 45.16,-69.71 10.12,-21.99 20.18,-50.6 30.17,-85.83 0.5,-2.25 0.75,-4.24 0.75,-5.99 0,-5.25 -1.87,-9.56 -5.62,-12.93 -3.75,-3.38 -8.12,-5.06 -13.12,-5.06 -1.25,0 -3.81,0.31 -7.68,0.93 -3.87,0.63 -7.18,4.81 -9.93,12.56 -8.25,27.73 -17.12,48.78 -26.61,63.15 -9.5,14.37 -21.37,28.79 -35.61,43.29l-23.61 25.86c-6.74,8.49 -10.12,16.99 -10.12,25.48 0,2.75 0.88,7.56 2.63,14.43 1.75,6.87 7.87,11.31 18.36,13.31 1.25,0.24 2.62,0.37 4.12,0.37zm-83.81 249.39c5,0 19.87,-0.88 44.6,-2.62 24.74,-1.75 55.47,-19.87 92.2,-54.34 8.74,18.98 23.48,28.6 44.22,28.85l4.13 0 0 -37.1 -4.13 0c-8.99,0 -13.49,-9 -13.49,-26.99 0,-2.24 0.13,-4.18 0.38,-5.8 0.24,-1.63 0.37,-3.07 0.37,-4.31 0,-6.25 -2.87,-11.37 -8.62,-15.37 -3.25,-2 -6.62,-3 -10.12,-3 -1.25,0 -3.37,0.31 -6.37,0.94 -3,0.62 -6,3.06 -9,7.31 -16.98,24.48 -37.85,42.47 -62.58,53.97 -20.99,9.74 -42.23,14.61 -63.72,14.61 -3.75,0 -12.87,-0.56 -27.36,-1.69 -14.49,-1.12 -30.85,-9.87 -49.09,-26.23 -18.24,-16.37 -29.48,-40.16 -33.73,-71.4 -3,-20.24 -9.37,-31.35 -19.12,-33.35 -1.75,-0.5 -3.5,-0.75 -5.24,-0.75 -8,0 -15.5,4.12 -22.49,12.37 -8,9.24 -12,20.73 -12,34.48l0 3.75c5.75,42.47 25.49,74.83 59.22,97.06 29.98,19.74 63.97,29.61 101.94,29.61zm-48.35 -157.41l127.43 -13.87c10.5,-1.74 15.74,-7.61 15.74,-17.61 0,-3.25 -0.87,-6.5 -2.62,-9.74 -2.75,-5.25 -7.75,-7.87 -14.99,-7.87l-124.81 2.25c-7.74,1.24 -12.86,5.74 -15.36,13.49 -1.25,4 -1.87,7.87 -1.87,11.61 0,3.75 0.62,7.5 1.87,11.25 2.75,7 7.62,10.49 14.61,10.49zm364.67 129.3l0 -37.1c-8.25,0 -14.99,-0.25 -20.24,-0.75 8.25,-12.5 12.62,-29.86 13.12,-52.1 0,-19.49 -3.62,-33.98 -10.87,-43.47 -7.99,-10.75 -18.37,-16.12 -31.11,-16.12 -6.49,0 -13.12,1.5 -19.86,4.5 -12.49,5.75 -23.42,14.8 -32.79,27.17 -9.38,12.37 -15.06,25.8 -17.06,40.29l-0.37 7.87c0,11.49 3.62,22.37 10.87,32.61l-23.99 0c-2.5,4.74 -3.75,10.74 -3.75,17.99 0,7.49 1.25,13.87 3.75,19.11l8.62 0c26.74,0 48.1,-2.49 64.09,-7.49 9.25,2.49 19.3,4.37 30.17,5.62 10.87,1.25 20.68,1.87 29.42,1.87zm-63.34 -48.72c-4.75,-2 -9.12,-4.62 -13.12,-7.87 -3.99,-3.25 -5.99,-7.75 -5.99,-13.49 0,-4 2,-9.68 5.99,-17.06 4,-7.37 8.5,-13.67 13.5,-18.92 3.99,-4 7.49,-6 10.49,-6 1,0 2.62,0.44 4.87,1.31 2.25,0.88 3.37,7.69 3.37,20.43 -0.99,19.74 -7.37,33.61 -19.11,41.6zm-38.98 -140.92c-7.74,-1.25 -12.86,-5.37 -15.36,-12.37 -1.25,-3.5 -1.88,-6.99 -1.88,-10.49 0,-3.25 0.63,-6.5 1.88,-9.75 2.5,-6.24 7.37,-9.36 14.62,-9.36l68.58 6.37c10.49,1.24 15.74,7 15.74,17.24 0,3.49 -0.87,6.87 -2.62,10.12 -2.75,4.99 -7.75,7.49 -15,7.49l-65.96 0.75zm197.51 189.64l-0.37 -37.1 -1.88 0c-6.74,0 -11.86,-2.5 -15.36,-7.5 -2.75,-3.99 -4.12,-9.49 -4.12,-16.49 1.75,-11.49 2.62,-22.73 2.62,-33.73 0,-21.49 -3.5,-34.73 -10.49,-39.72 -3.25,-2.25 -6.5,-3.38 -9.75,-3.38 -3,0 -6.81,1.5 -11.43,4.5 -4.62,3 -6.93,8.37 -6.93,16.11 0.25,3.5 0.37,7.25 0.37,11.25 0,3.99 -0.25,9.37 -0.75,16.11 -0.74,19.74 -5.5,34.48 -14.24,44.23 -4.99,5.75 -12.87,8.62 -23.61,8.62 -1,4.5 -1.5,11.49 -1.5,20.99 0,5.75 0.5,11.11 1.5,16.11 20.49,0 37.48,-6.99 50.97,-20.98 10.49,13.99 24.36,20.98 41.6,20.98l3.37 0zm-74.95 73.08l49.85 -5.99c10.49,-1.75 15.74,-7.62 15.74,-17.62 0,-3.25 -0.88,-6.49 -2.63,-9.74 -2.75,-5.25 -7.75,-7.87 -14.99,-7.87l-47.22 -0.75c-7.75,1 -12.87,5 -15.37,11.99 -1.25,3.5 -1.87,7 -1.87,10.49 0,3.25 0.62,6.63 1.87,10.12 2.5,6.25 7.37,9.37 14.62,9.37zm206.5 -73.08l0 -37.1c-8.25,0 -14.99,-0.25 -20.24,-0.75 8.25,-12.5 12.62,-29.86 13.12,-52.1 0,-19.49 -3.62,-33.98 -10.87,-43.47 -7.99,-10.75 -18.36,-16.12 -31.1,-16.12 -6.5,0 -13.12,1.5 -19.87,4.5 -12.49,5.75 -23.42,14.8 -32.79,27.17 -9.37,12.37 -15.06,25.8 -17.05,40.29l-0.38 7.87c0,11.49 3.62,22.37 10.87,32.61l-23.99 0c-2.5,4.74 -3.74,10.74 -3.74,17.99 0,7.49 1.24,13.87 3.74,19.11l8.62 0c26.74,0 48.1,-2.49 64.09,-7.49 9.25,2.49 19.3,4.37 30.17,5.62 10.87,1.25 20.68,1.87 29.42,1.87zm-63.34 -48.72c-4.74,-2 -9.12,-4.62 -13.11,-7.87 -4,-3.25 -6,-7.75 -6,-13.49 0,-4 2,-9.68 6,-17.06 3.99,-7.37 8.49,-13.67 13.49,-18.92 4,-4 7.49,-6 10.49,-6 1,0 2.62,0.44 4.87,1.31 2.25,0.88 3.38,7.69 3.38,20.43 -1,19.74 -7.37,33.61 -19.12,41.6zm-38.97 -140.92c-7.75,-1.25 -12.87,-5.37 -15.37,-12.37 -1.25,-3.5 -1.88,-6.99 -1.88,-10.49 0,-3.25 0.63,-6.5 1.88,-9.75 2.5,-6.24 7.37,-9.36 14.62,-9.36l68.58 6.37c10.49,1.24 15.74,7 15.74,17.24 0,3.49 -0.87,6.87 -2.62,10.12 -2.75,4.99 -7.75,7.49 -14.99,7.49l-65.96 0.75zm125.55 189.64c21.73,0 44.41,-1.56 68.02,-4.68 23.61,-3.13 43.29,-12.06 59.03,-26.8 12.74,-11.74 19.11,-29.48 19.11,-53.22 0,-24.24 -6.74,-46.6 -20.24,-67.08 -10.49,-15.5 -23.48,-26.61 -38.97,-33.36 -6.5,-2.75 -13.12,-4.12 -19.86,-4.12 -10,0 -20.37,2.87 -31.11,8.62 -9,5.24 -17.12,11.87 -24.36,19.86 -15.99,17.74 -23.99,29.73 -23.99,35.98 0,3.25 1.62,7.37 4.87,12.37 3.25,5 8.62,8.74 16.12,11.24 2,0.5 4,0.75 5.99,0.75 5.25,0 9.75,-2.25 13.49,-6.75 4.25,-5.74 7.88,-11.99 10.88,-18.74 3.99,-10.24 9.12,-17.74 15.36,-22.48 4.25,-2 8.25,-3 11.99,-3 5,0 10.5,2.25 16.5,6.75 5.99,4.5 11.43,11.68 16.3,21.55 4.87,9.86 7.81,18.3 8.8,25.29 0.5,3.75 0.76,7.25 0.76,10.5 0,27.73 -16.74,43.72 -50.23,47.97 -12.49,1.25 -24.86,1.87 -37.1,1.87l-10.49 0c-7.25,0 -13.99,0.13 -20.24,0.38l-14.62 0c-1.74,4.74 -2.62,10.74 -2.62,17.99 0,7.49 0.88,13.87 2.62,19.11l23.99 0zm-404.91 -441.65l-1.87 0c-8.74,0 -14.62,-3.25 -17.62,-9.75 -1.5,-3.49 -2.24,-6.99 -2.24,-10.49 0,-13.99 7.24,-22.11 21.73,-24.36l3.38 0c10.24,0 16.99,3 20.24,8.99 1.99,3.25 2.99,6.75 2.99,10.5 0,13.99 -8.87,22.36 -26.61,25.11zm118.06 130.8l0 -37.11 -0.75 0c-10.24,-1 -16.62,-8.11 -19.12,-21.36 -0.99,-6.5 -1.49,-13.74 -1.49,-21.74 0,-8.24 0.87,-19.48 2.62,-33.73 2.5,-19.48 9.12,-51.34 19.86,-95.57 2.5,-8.24 3.75,-14.11 3.75,-17.61 0,-6.25 -2.74,-11.37 -8.24,-15.37 -5.5,-4 -11.5,-5.99 -17.99,-5.99 -0.75,0 -3.19,0.18 -7.31,0.56 -4.13,0.37 -7.44,4.43 -9.93,12.17l-1.88 9c-13.49,53.22 -20.23,99.07 -20.23,137.55 0,56.21 20.11,85.95 60.33,89.2l0.38 0zm95.19 0l-0.37 -37.11 -1.87 0c-6.75,0 -11.87,-2.49 -15.37,-7.49 -2.75,-4 -4.12,-9.5 -4.12,-16.49 1.75,-11.5 2.62,-22.74 2.62,-33.74 0,-21.48 -3.5,-34.73 -10.49,-39.72 -3.25,-2.25 -6.5,-3.37 -9.75,-3.37 -2.99,0 -6.81,1.49 -11.43,4.5 -4.62,2.99 -6.93,8.36 -6.93,16.11 0.25,3.49 0.37,7.24 0.37,11.24 0,4 -0.25,9.37 -0.75,16.12 -0.74,19.74 -5.49,34.48 -14.24,44.22 -4.99,5.75 -12.86,8.62 -23.61,8.62 -1,4.5 -1.5,11.5 -1.5,20.99 0,5.75 0.5,11.12 1.5,16.12 20.49,0 37.48,-7 50.97,-20.99 10.5,13.99 24.36,20.99 41.6,20.99l3.37 0zm-47.97 -179.52c10,0 16.62,-3 19.86,-9 2.01,-3.5 3.01,-7 3.01,-10.49 0,-14.25 -8.75,-22.61 -26.24,-25.12l-1.12 0c-9,0 -15.12,3.25 -18.37,9.75 -1.5,3.25 -2.25,6.74 -2.25,10.49 0,14 7.25,22.12 21.74,24.37l3.37 0zm49.1 179.52c62.71,-1.25 94.07,-27.61 94.07,-79.08 0,-2.5 -0.44,-10.37 -1.31,-23.61 -0.88,-13.25 -6.19,-32.61 -15.93,-58.1 -19.49,-49.97 -34.23,-74.96 -44.23,-74.96 -8.24,0 -15.36,4.88 -21.36,14.62 -2.25,3.75 -3.37,7.63 -3.37,11.62 0,3.5 0.88,7 2.62,10.5 7,11.99 14.87,26.86 23.61,44.59 8.75,17.75 14.99,35.48 18.74,53.23 1.5,6.24 2.25,12.24 2.25,17.98 0,10 -3,19.99 -8.99,29.99 -6,9.99 -21.49,15.37 -46.48,16.11l-1.12 0c-1.5,4.25 -2.25,9.5 -2.25,15.74l0 7.5c0,4.25 0.75,8.87 2.25,13.87l1.5 0zm138.67 -0.38c9.24,0 15.36,-3.74 18.36,-11.24 10.25,-31.23 16.56,-59.9 18.93,-86.02 2.37,-26.1 3.56,-53.4 3.56,-81.88 0,-15.25 0.25,-31.61 0.75,-49.1 0,-5.25 -1.69,-9.68 -5.06,-13.31 -3.37,-3.62 -7.68,-5.55 -12.93,-5.81 -5.25,0 -9.68,1.69 -13.31,5.06 -3.62,3.38 -5.56,7.69 -5.8,12.93 -1.26,38.98 -4.69,73.28 -10.31,102.88 -5.63,29.61 -14.81,62.9 -27.55,99.88l-0.37 4.5c0,6 3.24,11.18 9.74,15.55 6.5,4.37 13.99,6.56 22.49,6.56l1.5 0z"/>
  </g>
 </g>
</svg>
